<mxfile host="app.diagrams.net" modified="2023-04-22T12:48:55.715Z" agent="Mozilla/5.0 (Macintosh; Intel Mac OS X 10_15_7) AppleWebKit/537.36 (KHTML, like Gecko) Chrome/112.0.0.0 Safari/537.36" etag="E-L39xDVJG7FWhDGFspt" version="21.2.1" type="device">
  <diagram name="第 1 页" id="9zUbWYoIl6yVEuOiOavs">
    <mxGraphModel dx="531" dy="335" grid="0" gridSize="10" guides="1" tooltips="1" connect="1" arrows="1" fold="1" page="1" pageScale="1" pageWidth="1654" pageHeight="2336" math="0" shadow="0">
      <root>
        <mxCell id="0" />
        <mxCell id="1" parent="0" />
        <mxCell id="oUjWwWJiYIkfK6Kyxx1s-647" value="1" style="rounded=0;whiteSpace=wrap;html=1;fontFamily=Songti TC;fillColor=#d5e8d4;strokeColor=#82b366;" parent="1" vertex="1">
          <mxGeometry x="327" y="1183" width="20" height="20" as="geometry" />
        </mxCell>
        <mxCell id="oUjWwWJiYIkfK6Kyxx1s-648" value="2" style="rounded=0;whiteSpace=wrap;html=1;fontFamily=Songti TC;fillColor=#d5e8d4;strokeColor=#82b366;" parent="1" vertex="1">
          <mxGeometry x="347" y="1183" width="20" height="20" as="geometry" />
        </mxCell>
        <mxCell id="oUjWwWJiYIkfK6Kyxx1s-649" value="1" style="rounded=0;whiteSpace=wrap;html=1;fontFamily=Songti TC;fillColor=#d5e8d4;strokeColor=#82b366;" parent="1" vertex="1">
          <mxGeometry x="327" y="1203" width="20" height="20" as="geometry" />
        </mxCell>
        <mxCell id="oUjWwWJiYIkfK6Kyxx1s-650" value="2" style="rounded=0;whiteSpace=wrap;html=1;fontFamily=Songti TC;fillColor=#d5e8d4;strokeColor=#82b366;" parent="1" vertex="1">
          <mxGeometry x="347" y="1203" width="20" height="20" as="geometry" />
        </mxCell>
        <mxCell id="oUjWwWJiYIkfK6Kyxx1s-651" value="3" style="rounded=0;whiteSpace=wrap;html=1;fontFamily=Songti TC;" parent="1" vertex="1">
          <mxGeometry x="367" y="1183" width="20" height="20" as="geometry" />
        </mxCell>
        <mxCell id="oUjWwWJiYIkfK6Kyxx1s-652" value="4" style="rounded=0;whiteSpace=wrap;html=1;fontFamily=Songti TC;" parent="1" vertex="1">
          <mxGeometry x="387" y="1183" width="20" height="20" as="geometry" />
        </mxCell>
        <mxCell id="oUjWwWJiYIkfK6Kyxx1s-653" value="3" style="rounded=0;whiteSpace=wrap;html=1;fontFamily=Songti TC;" parent="1" vertex="1">
          <mxGeometry x="367" y="1203" width="20" height="20" as="geometry" />
        </mxCell>
        <mxCell id="oUjWwWJiYIkfK6Kyxx1s-654" value="4" style="rounded=0;whiteSpace=wrap;html=1;fontFamily=Songti TC;" parent="1" vertex="1">
          <mxGeometry x="387" y="1203" width="20" height="20" as="geometry" />
        </mxCell>
        <mxCell id="oUjWwWJiYIkfK6Kyxx1s-655" value="1" style="rounded=0;whiteSpace=wrap;html=1;fontFamily=Songti TC;" parent="1" vertex="1">
          <mxGeometry x="327" y="1223" width="20" height="20" as="geometry" />
        </mxCell>
        <mxCell id="oUjWwWJiYIkfK6Kyxx1s-656" value="2" style="rounded=0;whiteSpace=wrap;html=1;fontFamily=Songti TC;" parent="1" vertex="1">
          <mxGeometry x="347" y="1223" width="20" height="20" as="geometry" />
        </mxCell>
        <mxCell id="oUjWwWJiYIkfK6Kyxx1s-657" value="1" style="rounded=0;whiteSpace=wrap;html=1;fontFamily=Songti TC;" parent="1" vertex="1">
          <mxGeometry x="327" y="1243" width="20" height="20" as="geometry" />
        </mxCell>
        <mxCell id="oUjWwWJiYIkfK6Kyxx1s-658" value="2" style="rounded=0;whiteSpace=wrap;html=1;fontFamily=Songti TC;" parent="1" vertex="1">
          <mxGeometry x="347" y="1243" width="20" height="20" as="geometry" />
        </mxCell>
        <mxCell id="oUjWwWJiYIkfK6Kyxx1s-659" value="3" style="rounded=0;whiteSpace=wrap;html=1;fontFamily=Songti TC;" parent="1" vertex="1">
          <mxGeometry x="367" y="1223" width="20" height="20" as="geometry" />
        </mxCell>
        <mxCell id="oUjWwWJiYIkfK6Kyxx1s-660" value="4" style="rounded=0;whiteSpace=wrap;html=1;fontFamily=Songti TC;" parent="1" vertex="1">
          <mxGeometry x="387" y="1223" width="20" height="20" as="geometry" />
        </mxCell>
        <mxCell id="oUjWwWJiYIkfK6Kyxx1s-661" value="3" style="rounded=0;whiteSpace=wrap;html=1;fontFamily=Songti TC;" parent="1" vertex="1">
          <mxGeometry x="367" y="1243" width="20" height="20" as="geometry" />
        </mxCell>
        <mxCell id="oUjWwWJiYIkfK6Kyxx1s-662" value="4" style="rounded=0;whiteSpace=wrap;html=1;fontFamily=Songti TC;" parent="1" vertex="1">
          <mxGeometry x="387" y="1243" width="20" height="20" as="geometry" />
        </mxCell>
        <mxCell id="oUjWwWJiYIkfK6Kyxx1s-631" value="1" style="rounded=0;whiteSpace=wrap;html=1;fontFamily=Songti TC;fillColor=#fff2cc;strokeColor=#d6b656;" parent="1" vertex="1">
          <mxGeometry x="227" y="1183" width="20" height="20" as="geometry" />
        </mxCell>
        <mxCell id="oUjWwWJiYIkfK6Kyxx1s-632" value="2" style="rounded=0;whiteSpace=wrap;html=1;fontFamily=Songti TC;fillColor=#fff2cc;strokeColor=#d6b656;" parent="1" vertex="1">
          <mxGeometry x="247" y="1183" width="20" height="20" as="geometry" />
        </mxCell>
        <mxCell id="oUjWwWJiYIkfK6Kyxx1s-633" value="1" style="rounded=0;whiteSpace=wrap;html=1;fontFamily=Songti TC;fillColor=#fff2cc;strokeColor=#d6b656;" parent="1" vertex="1">
          <mxGeometry x="227" y="1203" width="20" height="20" as="geometry" />
        </mxCell>
        <mxCell id="oUjWwWJiYIkfK6Kyxx1s-634" value="2" style="rounded=0;whiteSpace=wrap;html=1;fontFamily=Songti TC;fillColor=#fff2cc;strokeColor=#d6b656;" parent="1" vertex="1">
          <mxGeometry x="247" y="1203" width="20" height="20" as="geometry" />
        </mxCell>
        <mxCell id="oUjWwWJiYIkfK6Kyxx1s-635" value="3" style="rounded=0;whiteSpace=wrap;html=1;fontFamily=Songti TC;" parent="1" vertex="1">
          <mxGeometry x="267" y="1183" width="20" height="20" as="geometry" />
        </mxCell>
        <mxCell id="oUjWwWJiYIkfK6Kyxx1s-636" value="4" style="rounded=0;whiteSpace=wrap;html=1;fontFamily=Songti TC;" parent="1" vertex="1">
          <mxGeometry x="287" y="1183" width="20" height="20" as="geometry" />
        </mxCell>
        <mxCell id="oUjWwWJiYIkfK6Kyxx1s-637" value="3" style="rounded=0;whiteSpace=wrap;html=1;fontFamily=Songti TC;" parent="1" vertex="1">
          <mxGeometry x="267" y="1203" width="20" height="20" as="geometry" />
        </mxCell>
        <mxCell id="oUjWwWJiYIkfK6Kyxx1s-638" value="4" style="rounded=0;whiteSpace=wrap;html=1;fontFamily=Songti TC;" parent="1" vertex="1">
          <mxGeometry x="287" y="1203" width="20" height="20" as="geometry" />
        </mxCell>
        <mxCell id="oUjWwWJiYIkfK6Kyxx1s-639" value="1" style="rounded=0;whiteSpace=wrap;html=1;fontFamily=Songti TC;fillColor=#fff2cc;strokeColor=#d6b656;" parent="1" vertex="1">
          <mxGeometry x="227" y="1223" width="20" height="20" as="geometry" />
        </mxCell>
        <mxCell id="oUjWwWJiYIkfK6Kyxx1s-640" value="2" style="rounded=0;whiteSpace=wrap;html=1;fontFamily=Songti TC;fillColor=#fff2cc;strokeColor=#d6b656;" parent="1" vertex="1">
          <mxGeometry x="247" y="1223" width="20" height="20" as="geometry" />
        </mxCell>
        <mxCell id="oUjWwWJiYIkfK6Kyxx1s-641" value="1" style="rounded=0;whiteSpace=wrap;html=1;fontFamily=Songti TC;" parent="1" vertex="1">
          <mxGeometry x="227" y="1243" width="20" height="20" as="geometry" />
        </mxCell>
        <mxCell id="oUjWwWJiYIkfK6Kyxx1s-642" value="2" style="rounded=0;whiteSpace=wrap;html=1;fontFamily=Songti TC;" parent="1" vertex="1">
          <mxGeometry x="247" y="1243" width="20" height="20" as="geometry" />
        </mxCell>
        <mxCell id="oUjWwWJiYIkfK6Kyxx1s-643" value="3" style="rounded=0;whiteSpace=wrap;html=1;fontFamily=Songti TC;" parent="1" vertex="1">
          <mxGeometry x="267" y="1223" width="20" height="20" as="geometry" />
        </mxCell>
        <mxCell id="oUjWwWJiYIkfK6Kyxx1s-644" value="4" style="rounded=0;whiteSpace=wrap;html=1;fontFamily=Songti TC;" parent="1" vertex="1">
          <mxGeometry x="287" y="1223" width="20" height="20" as="geometry" />
        </mxCell>
        <mxCell id="oUjWwWJiYIkfK6Kyxx1s-645" value="3" style="rounded=0;whiteSpace=wrap;html=1;fontFamily=Songti TC;" parent="1" vertex="1">
          <mxGeometry x="267" y="1243" width="20" height="20" as="geometry" />
        </mxCell>
        <mxCell id="oUjWwWJiYIkfK6Kyxx1s-646" value="4" style="rounded=0;whiteSpace=wrap;html=1;fontFamily=Songti TC;" parent="1" vertex="1">
          <mxGeometry x="287" y="1243" width="20" height="20" as="geometry" />
        </mxCell>
        <mxCell id="oUjWwWJiYIkfK6Kyxx1s-599" value="1" style="rounded=0;whiteSpace=wrap;html=1;fontFamily=Songti TC;fillColor=#f8cecc;strokeColor=#b85450;" parent="1" vertex="1">
          <mxGeometry x="127" y="1183" width="20" height="20" as="geometry" />
        </mxCell>
        <mxCell id="oUjWwWJiYIkfK6Kyxx1s-600" value="2" style="rounded=0;whiteSpace=wrap;html=1;fontFamily=Songti TC;fillColor=#f8cecc;strokeColor=#b85450;" parent="1" vertex="1">
          <mxGeometry x="147" y="1183" width="20" height="20" as="geometry" />
        </mxCell>
        <mxCell id="oUjWwWJiYIkfK6Kyxx1s-601" value="1" style="rounded=0;whiteSpace=wrap;html=1;fontFamily=Songti TC;fillColor=#f8cecc;strokeColor=#b85450;" parent="1" vertex="1">
          <mxGeometry x="127" y="1203" width="20" height="20" as="geometry" />
        </mxCell>
        <mxCell id="oUjWwWJiYIkfK6Kyxx1s-602" value="2" style="rounded=0;whiteSpace=wrap;html=1;fontFamily=Songti TC;fillColor=#f8cecc;strokeColor=#b85450;" parent="1" vertex="1">
          <mxGeometry x="147" y="1203" width="20" height="20" as="geometry" />
        </mxCell>
        <mxCell id="oUjWwWJiYIkfK6Kyxx1s-603" value="3" style="rounded=0;whiteSpace=wrap;html=1;fontFamily=Songti TC;fillColor=#f8cecc;strokeColor=#b85450;" parent="1" vertex="1">
          <mxGeometry x="167" y="1183" width="20" height="20" as="geometry" />
        </mxCell>
        <mxCell id="oUjWwWJiYIkfK6Kyxx1s-604" value="4" style="rounded=0;whiteSpace=wrap;html=1;fontFamily=Songti TC;" parent="1" vertex="1">
          <mxGeometry x="187" y="1183" width="20" height="20" as="geometry" />
        </mxCell>
        <mxCell id="oUjWwWJiYIkfK6Kyxx1s-605" value="3" style="rounded=0;whiteSpace=wrap;html=1;fontFamily=Songti TC;fillColor=#f8cecc;strokeColor=#b85450;" parent="1" vertex="1">
          <mxGeometry x="167" y="1203" width="20" height="20" as="geometry" />
        </mxCell>
        <mxCell id="oUjWwWJiYIkfK6Kyxx1s-606" value="4" style="rounded=0;whiteSpace=wrap;html=1;fontFamily=Songti TC;" parent="1" vertex="1">
          <mxGeometry x="187" y="1203" width="20" height="20" as="geometry" />
        </mxCell>
        <mxCell id="oUjWwWJiYIkfK6Kyxx1s-607" value="1" style="rounded=0;whiteSpace=wrap;html=1;fontFamily=Songti TC;" parent="1" vertex="1">
          <mxGeometry x="127" y="1223" width="20" height="20" as="geometry" />
        </mxCell>
        <mxCell id="oUjWwWJiYIkfK6Kyxx1s-608" value="2" style="rounded=0;whiteSpace=wrap;html=1;fontFamily=Songti TC;" parent="1" vertex="1">
          <mxGeometry x="147" y="1223" width="20" height="20" as="geometry" />
        </mxCell>
        <mxCell id="oUjWwWJiYIkfK6Kyxx1s-609" value="1" style="rounded=0;whiteSpace=wrap;html=1;fontFamily=Songti TC;" parent="1" vertex="1">
          <mxGeometry x="127" y="1243" width="20" height="20" as="geometry" />
        </mxCell>
        <mxCell id="oUjWwWJiYIkfK6Kyxx1s-610" value="2" style="rounded=0;whiteSpace=wrap;html=1;fontFamily=Songti TC;" parent="1" vertex="1">
          <mxGeometry x="147" y="1243" width="20" height="20" as="geometry" />
        </mxCell>
        <mxCell id="oUjWwWJiYIkfK6Kyxx1s-611" value="3" style="rounded=0;whiteSpace=wrap;html=1;fontFamily=Songti TC;" parent="1" vertex="1">
          <mxGeometry x="167" y="1223" width="20" height="20" as="geometry" />
        </mxCell>
        <mxCell id="oUjWwWJiYIkfK6Kyxx1s-612" value="4" style="rounded=0;whiteSpace=wrap;html=1;fontFamily=Songti TC;" parent="1" vertex="1">
          <mxGeometry x="187" y="1223" width="20" height="20" as="geometry" />
        </mxCell>
        <mxCell id="oUjWwWJiYIkfK6Kyxx1s-613" value="3" style="rounded=0;whiteSpace=wrap;html=1;fontFamily=Songti TC;" parent="1" vertex="1">
          <mxGeometry x="167" y="1243" width="20" height="20" as="geometry" />
        </mxCell>
        <mxCell id="oUjWwWJiYIkfK6Kyxx1s-614" value="4" style="rounded=0;whiteSpace=wrap;html=1;fontFamily=Songti TC;" parent="1" vertex="1">
          <mxGeometry x="187" y="1243" width="20" height="20" as="geometry" />
        </mxCell>
        <mxCell id="oUjWwWJiYIkfK6Kyxx1s-2" value="&lt;font style=&quot;font-size: 14px;&quot;&gt;1&lt;/font&gt;" style="rounded=0;whiteSpace=wrap;html=1;fillColor=#ffe6cc;strokeColor=#d79b00;fontFamily=Songti TC;fontSize=14;" parent="1" vertex="1">
          <mxGeometry x="280" y="480" width="40" height="40" as="geometry" />
        </mxCell>
        <mxCell id="oUjWwWJiYIkfK6Kyxx1s-3" value="2" style="rounded=0;whiteSpace=wrap;html=1;fillColor=#ffe6cc;strokeColor=#d79b00;fontFamily=Songti TC;fontSize=14;" parent="1" vertex="1">
          <mxGeometry x="320" y="480" width="40" height="40" as="geometry" />
        </mxCell>
        <mxCell id="oUjWwWJiYIkfK6Kyxx1s-4" value="3" style="rounded=0;whiteSpace=wrap;html=1;fillColor=#ffe6cc;strokeColor=#d79b00;fontFamily=Songti TC;fontSize=14;" parent="1" vertex="1">
          <mxGeometry x="360" y="480" width="40" height="40" as="geometry" />
        </mxCell>
        <mxCell id="oUjWwWJiYIkfK6Kyxx1s-5" value="3" style="rounded=0;whiteSpace=wrap;html=1;fillColor=#ffe6cc;strokeColor=#d79b00;fontFamily=Songti TC;fontSize=14;" parent="1" vertex="1">
          <mxGeometry x="400" y="480" width="40" height="40" as="geometry" />
        </mxCell>
        <mxCell id="oUjWwWJiYIkfK6Kyxx1s-6" value="&lt;font color=&quot;#ff0000&quot;&gt;4&lt;/font&gt;" style="rounded=0;whiteSpace=wrap;html=1;fillColor=#dae8fc;strokeColor=#6c8ebf;fontFamily=Songti TC;fontSize=14;" parent="1" vertex="1">
          <mxGeometry x="440" y="480" width="40" height="40" as="geometry" />
        </mxCell>
        <mxCell id="oUjWwWJiYIkfK6Kyxx1s-7" value="5" style="rounded=0;whiteSpace=wrap;html=1;fillColor=#dae8fc;strokeColor=#6c8ebf;fontFamily=Songti TC;fontSize=14;" parent="1" vertex="1">
          <mxGeometry x="480" y="480" width="40" height="40" as="geometry" />
        </mxCell>
        <mxCell id="oUjWwWJiYIkfK6Kyxx1s-8" value="6" style="rounded=0;whiteSpace=wrap;html=1;fillColor=#dae8fc;strokeColor=#6c8ebf;fontFamily=Songti TC;fontSize=14;" parent="1" vertex="1">
          <mxGeometry x="520" y="480" width="40" height="40" as="geometry" />
        </mxCell>
        <mxCell id="oUjWwWJiYIkfK6Kyxx1s-9" value="7" style="rounded=0;whiteSpace=wrap;html=1;fillColor=#dae8fc;strokeColor=#6c8ebf;fontFamily=Songti TC;fontSize=14;" parent="1" vertex="1">
          <mxGeometry x="560" y="480" width="40" height="40" as="geometry" />
        </mxCell>
        <mxCell id="oUjWwWJiYIkfK6Kyxx1s-10" value="8" style="rounded=0;whiteSpace=wrap;html=1;fillColor=#dae8fc;strokeColor=#6c8ebf;fontFamily=Songti TC;fontSize=14;" parent="1" vertex="1">
          <mxGeometry x="600" y="480" width="40" height="40" as="geometry" />
        </mxCell>
        <mxCell id="oUjWwWJiYIkfK6Kyxx1s-11" value="" style="endArrow=classic;html=1;rounded=0;" parent="1" edge="1">
          <mxGeometry width="50" height="50" relative="1" as="geometry">
            <mxPoint x="240" y="440" as="sourcePoint" />
            <mxPoint x="640" y="440" as="targetPoint" />
          </mxGeometry>
        </mxCell>
        <mxCell id="oUjWwWJiYIkfK6Kyxx1s-12" value="" style="endArrow=none;html=1;rounded=0;" parent="1" edge="1">
          <mxGeometry width="50" height="50" relative="1" as="geometry">
            <mxPoint x="240" y="440" as="sourcePoint" />
            <mxPoint x="400" y="280" as="targetPoint" />
          </mxGeometry>
        </mxCell>
        <mxCell id="oUjWwWJiYIkfK6Kyxx1s-13" value="" style="endArrow=none;html=1;rounded=0;" parent="1" edge="1">
          <mxGeometry width="50" height="50" relative="1" as="geometry">
            <mxPoint x="400" y="280" as="sourcePoint" />
            <mxPoint x="440" y="280" as="targetPoint" />
          </mxGeometry>
        </mxCell>
        <mxCell id="oUjWwWJiYIkfK6Kyxx1s-14" value="&lt;font style=&quot;font-size: 14px;&quot;&gt;0&lt;/font&gt;" style="rounded=0;whiteSpace=wrap;html=1;fillColor=#ffe6cc;strokeColor=#d79b00;fontFamily=Songti TC;fontSize=14;" parent="1" vertex="1">
          <mxGeometry x="240" y="480" width="40" height="40" as="geometry" />
        </mxCell>
        <mxCell id="oUjWwWJiYIkfK6Kyxx1s-15" value="" style="endArrow=none;html=1;rounded=0;strokeColor=#FF0000;" parent="1" edge="1">
          <mxGeometry width="50" height="50" relative="1" as="geometry">
            <mxPoint x="440" y="280" as="sourcePoint" />
            <mxPoint x="480" y="280" as="targetPoint" />
          </mxGeometry>
        </mxCell>
        <mxCell id="oUjWwWJiYIkfK6Kyxx1s-16" value="" style="endArrow=none;html=1;rounded=0;" parent="1" edge="1">
          <mxGeometry width="50" height="50" relative="1" as="geometry">
            <mxPoint x="480" y="280" as="sourcePoint" />
            <mxPoint x="520" y="240" as="targetPoint" />
          </mxGeometry>
        </mxCell>
        <mxCell id="oUjWwWJiYIkfK6Kyxx1s-17" value="" style="endArrow=none;html=1;rounded=0;" parent="1" edge="1">
          <mxGeometry width="50" height="50" relative="1" as="geometry">
            <mxPoint x="520" y="240" as="sourcePoint" />
            <mxPoint x="640" y="120" as="targetPoint" />
          </mxGeometry>
        </mxCell>
        <mxCell id="oUjWwWJiYIkfK6Kyxx1s-18" value="" style="endArrow=classic;html=1;rounded=0;" parent="1" edge="1">
          <mxGeometry width="50" height="50" relative="1" as="geometry">
            <mxPoint x="240" y="440" as="sourcePoint" />
            <mxPoint x="240" y="120" as="targetPoint" />
          </mxGeometry>
        </mxCell>
        <mxCell id="oUjWwWJiYIkfK6Kyxx1s-19" value="" style="endArrow=none;dashed=1;html=1;dashPattern=1 3;strokeWidth=2;rounded=0;fontColor=#FF0000;labelBorderColor=#FF0000;strokeColor=#FF0000;" parent="1" edge="1">
          <mxGeometry width="50" height="50" relative="1" as="geometry">
            <mxPoint x="480" y="480" as="sourcePoint" />
            <mxPoint x="480" y="280" as="targetPoint" />
          </mxGeometry>
        </mxCell>
        <mxCell id="oUjWwWJiYIkfK6Kyxx1s-20" value="&lt;div style=&quot;text-align: left;&quot;&gt;&lt;span style=&quot;font-family: &amp;quot;Songti TC&amp;quot;; font-size: x-small; background-color: initial;&quot;&gt;假设指定的数是存在的，而且是4，&lt;/span&gt;&lt;/div&gt;&lt;font face=&quot;Songti TC&quot; size=&quot;1&quot;&gt;&lt;div style=&quot;text-align: left;&quot;&gt;&lt;span style=&quot;background-color: initial;&quot;&gt;那么棕色部分就是满足&amp;lt;=4的&lt;/span&gt;&lt;/div&gt;&lt;div style=&quot;text-align: left;&quot;&gt;&lt;span style=&quot;background-color: initial;&quot;&gt;蓝色部分就是满足&amp;gt;=4的&lt;/span&gt;&lt;/div&gt;&lt;/font&gt;" style="text;html=1;align=center;verticalAlign=middle;resizable=0;points=[];autosize=1;strokeColor=none;fillColor=none;" parent="1" vertex="1">
          <mxGeometry x="315" y="530" width="210" height="60" as="geometry" />
        </mxCell>
        <mxCell id="oUjWwWJiYIkfK6Kyxx1s-21" value="&lt;font face=&quot;Songti TC&quot;&gt;&lt;font size=&quot;1&quot;&gt;从数轴上来看：&lt;br&gt;&amp;gt;=x的最小值和&lt;/font&gt;&amp;lt;x的最大值&lt;/font&gt;&lt;font size=&quot;1&quot; face=&quot;Songti TC&quot;&gt;&lt;br&gt;就是x本身，或者离x最近的数字&lt;br&gt;&lt;br&gt;&lt;/font&gt;" style="text;html=1;align=center;verticalAlign=middle;resizable=0;points=[];autosize=1;strokeColor=none;fillColor=none;" parent="1" vertex="1">
          <mxGeometry x="550" y="280" width="190" height="70" as="geometry" />
        </mxCell>
        <mxCell id="oUjWwWJiYIkfK6Kyxx1s-22" value="" style="endArrow=none;dashed=1;html=1;dashPattern=1 3;strokeWidth=2;rounded=0;strokeColor=#FF0000;" parent="1" edge="1">
          <mxGeometry width="50" height="50" relative="1" as="geometry">
            <mxPoint x="400" y="480" as="sourcePoint" />
            <mxPoint x="400" y="280" as="targetPoint" />
          </mxGeometry>
        </mxCell>
        <mxCell id="oUjWwWJiYIkfK6Kyxx1s-24" value="" style="endArrow=classic;html=1;rounded=0;" parent="1" edge="1">
          <mxGeometry width="50" height="50" relative="1" as="geometry">
            <mxPoint x="750" y="360" as="sourcePoint" />
            <mxPoint x="820" y="360" as="targetPoint" />
          </mxGeometry>
        </mxCell>
        <mxCell id="oUjWwWJiYIkfK6Kyxx1s-25" value="&lt;font size=&quot;1&quot; face=&quot;Songti TC&quot;&gt;抽象&lt;br&gt;&lt;/font&gt;" style="text;html=1;align=center;verticalAlign=middle;resizable=0;points=[];autosize=1;strokeColor=none;fillColor=none;" parent="1" vertex="1">
          <mxGeometry x="760" y="330" width="50" height="30" as="geometry" />
        </mxCell>
        <mxCell id="oUjWwWJiYIkfK6Kyxx1s-26" value="" style="endArrow=classic;html=1;rounded=0;" parent="1" edge="1">
          <mxGeometry width="50" height="50" relative="1" as="geometry">
            <mxPoint x="860" y="390" as="sourcePoint" />
            <mxPoint x="1260" y="390" as="targetPoint" />
          </mxGeometry>
        </mxCell>
        <mxCell id="oUjWwWJiYIkfK6Kyxx1s-27" value="" style="endArrow=classic;html=1;rounded=0;" parent="1" edge="1">
          <mxGeometry width="50" height="50" relative="1" as="geometry">
            <mxPoint x="870" y="390" as="sourcePoint" />
            <mxPoint x="1020" y="390" as="targetPoint" />
            <Array as="points">
              <mxPoint x="870" y="350" />
              <mxPoint x="970" y="350" />
              <mxPoint x="1020" y="350" />
            </Array>
          </mxGeometry>
        </mxCell>
        <mxCell id="oUjWwWJiYIkfK6Kyxx1s-28" value="" style="endArrow=classic;html=1;rounded=0;" parent="1" edge="1">
          <mxGeometry width="50" height="50" relative="1" as="geometry">
            <mxPoint x="1190" y="390" as="sourcePoint" />
            <mxPoint x="1040" y="390" as="targetPoint" />
            <Array as="points">
              <mxPoint x="1190" y="350" />
              <mxPoint x="1140" y="350" />
              <mxPoint x="1040" y="350" />
            </Array>
          </mxGeometry>
        </mxCell>
        <mxCell id="oUjWwWJiYIkfK6Kyxx1s-29" value="&lt;font size=&quot;1&quot; face=&quot;Songti TC&quot;&gt;满足给定性质&lt;br&gt;&lt;/font&gt;" style="text;html=1;align=center;verticalAlign=middle;resizable=0;points=[];autosize=1;strokeColor=none;fillColor=none;" parent="1" vertex="1">
          <mxGeometry x="895" y="350" width="100" height="30" as="geometry" />
        </mxCell>
        <mxCell id="oUjWwWJiYIkfK6Kyxx1s-31" value="&lt;font size=&quot;1&quot; face=&quot;Songti TC&quot;&gt;不满足给定性质&lt;br&gt;&lt;/font&gt;" style="text;html=1;align=center;verticalAlign=middle;resizable=0;points=[];autosize=1;strokeColor=none;fillColor=none;" parent="1" vertex="1">
          <mxGeometry x="1060" y="350" width="110" height="30" as="geometry" />
        </mxCell>
        <mxCell id="oUjWwWJiYIkfK6Kyxx1s-32" value="" style="endArrow=classic;html=1;rounded=0;" parent="1" edge="1">
          <mxGeometry width="50" height="50" relative="1" as="geometry">
            <mxPoint x="1020" y="430" as="sourcePoint" />
            <mxPoint x="1020" y="390" as="targetPoint" />
          </mxGeometry>
        </mxCell>
        <mxCell id="oUjWwWJiYIkfK6Kyxx1s-33" value="" style="endArrow=classic;html=1;rounded=0;" parent="1" edge="1">
          <mxGeometry width="50" height="50" relative="1" as="geometry">
            <mxPoint x="1040" y="430" as="sourcePoint" />
            <mxPoint x="1040" y="390" as="targetPoint" />
          </mxGeometry>
        </mxCell>
        <mxCell id="oUjWwWJiYIkfK6Kyxx1s-34" value="&lt;font size=&quot;1&quot; face=&quot;Songti TC&quot;&gt;满足性质的&lt;br&gt;最后一个元素的位置&lt;br&gt;&lt;/font&gt;" style="text;html=1;align=center;verticalAlign=middle;resizable=0;points=[];autosize=1;strokeColor=none;fillColor=none;" parent="1" vertex="1">
          <mxGeometry x="900" y="410" width="130" height="40" as="geometry" />
        </mxCell>
        <mxCell id="oUjWwWJiYIkfK6Kyxx1s-35" value="&lt;font size=&quot;1&quot; face=&quot;Songti TC&quot;&gt;不满足性质的&lt;br&gt;第一个元素的位置&lt;br&gt;&lt;/font&gt;" style="text;html=1;align=center;verticalAlign=middle;resizable=0;points=[];autosize=1;strokeColor=none;fillColor=none;" parent="1" vertex="1">
          <mxGeometry x="1030" y="410" width="120" height="40" as="geometry" />
        </mxCell>
        <mxCell id="oUjWwWJiYIkfK6Kyxx1s-37" value="&lt;div style=&quot;text-align: left;&quot;&gt;&lt;span style=&quot;font-family: &amp;quot;Songti TC&amp;quot;; font-size: x-small; background-color: initial;&quot;&gt;例如有这样的一个非递减序列：[1, 1, 2, 2, 3, 4, 4, 4]，&lt;/span&gt;&lt;/div&gt;&lt;div style=&quot;text-align: left;&quot;&gt;&lt;span style=&quot;font-family: &amp;quot;Songti TC&amp;quot;; font-size: x-small; background-color: initial;&quot;&gt;要找到值是4的元素的下标范围，从肉眼看是[5, 7]&lt;/span&gt;&lt;/div&gt;&lt;div style=&quot;text-align: left;&quot;&gt;&lt;font size=&quot;1&quot; face=&quot;Songti TC&quot;&gt;从二分+数轴视角看，4就是二分要查找的元素&lt;/font&gt;&lt;/div&gt;" style="text;html=1;align=center;verticalAlign=middle;resizable=0;points=[];autosize=1;strokeColor=none;fillColor=none;" parent="1" vertex="1">
          <mxGeometry x="835" y="450" width="290" height="60" as="geometry" />
        </mxCell>
        <mxCell id="oUjWwWJiYIkfK6Kyxx1s-38" value="&lt;font style=&quot;font-size: 14px;&quot;&gt;1&lt;/font&gt;" style="rounded=0;whiteSpace=wrap;html=1;fillColor=#ffe6cc;strokeColor=#d79b00;fontFamily=Songti TC;fontSize=14;" parent="1" vertex="1">
          <mxGeometry x="890" y="520" width="40" height="40" as="geometry" />
        </mxCell>
        <mxCell id="oUjWwWJiYIkfK6Kyxx1s-39" value="2" style="rounded=0;whiteSpace=wrap;html=1;fillColor=#ffe6cc;strokeColor=#d79b00;fontFamily=Songti TC;fontSize=14;" parent="1" vertex="1">
          <mxGeometry x="930" y="520" width="40" height="40" as="geometry" />
        </mxCell>
        <mxCell id="oUjWwWJiYIkfK6Kyxx1s-40" value="2" style="rounded=0;whiteSpace=wrap;html=1;fillColor=#ffe6cc;strokeColor=#d79b00;fontFamily=Songti TC;fontSize=14;" parent="1" vertex="1">
          <mxGeometry x="970" y="520" width="40" height="40" as="geometry" />
        </mxCell>
        <mxCell id="oUjWwWJiYIkfK6Kyxx1s-41" value="3" style="rounded=0;whiteSpace=wrap;html=1;fillColor=#ffe6cc;strokeColor=#d79b00;fontFamily=Songti TC;fontSize=14;" parent="1" vertex="1">
          <mxGeometry x="1010" y="520" width="40" height="40" as="geometry" />
        </mxCell>
        <mxCell id="oUjWwWJiYIkfK6Kyxx1s-42" value="4" style="rounded=0;whiteSpace=wrap;html=1;fillColor=#dae8fc;strokeColor=#6c8ebf;fontFamily=Songti TC;fontSize=14;" parent="1" vertex="1">
          <mxGeometry x="1050" y="520" width="40" height="40" as="geometry" />
        </mxCell>
        <mxCell id="oUjWwWJiYIkfK6Kyxx1s-43" value="4" style="rounded=0;whiteSpace=wrap;html=1;fillColor=#dae8fc;strokeColor=#6c8ebf;fontFamily=Songti TC;fontSize=14;" parent="1" vertex="1">
          <mxGeometry x="1090" y="520" width="40" height="40" as="geometry" />
        </mxCell>
        <mxCell id="oUjWwWJiYIkfK6Kyxx1s-44" value="4" style="rounded=0;whiteSpace=wrap;html=1;fillColor=#dae8fc;strokeColor=#6c8ebf;fontFamily=Songti TC;fontSize=14;" parent="1" vertex="1">
          <mxGeometry x="1130" y="520" width="40" height="40" as="geometry" />
        </mxCell>
        <mxCell id="oUjWwWJiYIkfK6Kyxx1s-47" value="&lt;font style=&quot;font-size: 14px;&quot;&gt;1&lt;/font&gt;" style="rounded=0;whiteSpace=wrap;html=1;fillColor=#ffe6cc;strokeColor=#d79b00;fontFamily=Songti TC;fontSize=14;" parent="1" vertex="1">
          <mxGeometry x="850" y="520" width="40" height="40" as="geometry" />
        </mxCell>
        <mxCell id="oUjWwWJiYIkfK6Kyxx1s-58" value="" style="group" parent="1" vertex="1" connectable="0">
          <mxGeometry x="850" y="560" width="320" height="20" as="geometry" />
        </mxCell>
        <mxCell id="oUjWwWJiYIkfK6Kyxx1s-49" value="&lt;font style=&quot;font-size: 14px;&quot;&gt;1&lt;/font&gt;" style="rounded=0;whiteSpace=wrap;html=1;fontFamily=Songti TC;fontSize=14;container=0;" parent="oUjWwWJiYIkfK6Kyxx1s-58" vertex="1">
          <mxGeometry x="40" width="40" height="20" as="geometry" />
        </mxCell>
        <mxCell id="oUjWwWJiYIkfK6Kyxx1s-50" value="2" style="rounded=0;whiteSpace=wrap;html=1;fontFamily=Songti TC;fontSize=14;container=0;" parent="oUjWwWJiYIkfK6Kyxx1s-58" vertex="1">
          <mxGeometry x="80" width="40" height="20" as="geometry" />
        </mxCell>
        <mxCell id="oUjWwWJiYIkfK6Kyxx1s-51" value="3" style="rounded=0;whiteSpace=wrap;html=1;fontFamily=Songti TC;fontSize=14;container=0;" parent="oUjWwWJiYIkfK6Kyxx1s-58" vertex="1">
          <mxGeometry x="120" width="40" height="20" as="geometry" />
        </mxCell>
        <mxCell id="oUjWwWJiYIkfK6Kyxx1s-52" value="4" style="rounded=0;whiteSpace=wrap;html=1;fontFamily=Songti TC;fontSize=14;container=0;" parent="oUjWwWJiYIkfK6Kyxx1s-58" vertex="1">
          <mxGeometry x="160" width="40" height="20" as="geometry" />
        </mxCell>
        <mxCell id="oUjWwWJiYIkfK6Kyxx1s-53" value="5" style="rounded=0;whiteSpace=wrap;html=1;fontFamily=Songti TC;fontSize=14;container=0;" parent="oUjWwWJiYIkfK6Kyxx1s-58" vertex="1">
          <mxGeometry x="200" width="40" height="20" as="geometry" />
        </mxCell>
        <mxCell id="oUjWwWJiYIkfK6Kyxx1s-54" value="6" style="rounded=0;whiteSpace=wrap;html=1;fontFamily=Songti TC;fontSize=14;container=0;" parent="oUjWwWJiYIkfK6Kyxx1s-58" vertex="1">
          <mxGeometry x="240" width="40" height="20" as="geometry" />
        </mxCell>
        <mxCell id="oUjWwWJiYIkfK6Kyxx1s-55" value="7" style="rounded=0;whiteSpace=wrap;html=1;fontFamily=Songti TC;fontSize=14;container=0;" parent="oUjWwWJiYIkfK6Kyxx1s-58" vertex="1">
          <mxGeometry x="280" width="40" height="20" as="geometry" />
        </mxCell>
        <mxCell id="oUjWwWJiYIkfK6Kyxx1s-56" value="&lt;font style=&quot;font-size: 14px;&quot;&gt;0&lt;/font&gt;" style="rounded=0;whiteSpace=wrap;html=1;fontFamily=Songti TC;fontSize=14;container=0;" parent="oUjWwWJiYIkfK6Kyxx1s-58" vertex="1">
          <mxGeometry width="40" height="20" as="geometry" />
        </mxCell>
        <mxCell id="oUjWwWJiYIkfK6Kyxx1s-59" value="&lt;font size=&quot;1&quot; face=&quot;Songti TC&quot;&gt;&lt;br&gt;&lt;/font&gt;" style="text;html=1;align=center;verticalAlign=middle;resizable=0;points=[];autosize=1;strokeColor=none;fillColor=none;" parent="1" vertex="1">
          <mxGeometry x="1160" y="635" width="20" height="30" as="geometry" />
        </mxCell>
        <mxCell id="oUjWwWJiYIkfK6Kyxx1s-60" value="&lt;font size=&quot;1&quot; face=&quot;Songti TC&quot;&gt;不满足a[i]&amp;gt;=4的第一个位置&lt;br&gt;(a[i]&amp;lt;4的最后一个位置)&lt;br&gt;&lt;/font&gt;" style="text;html=1;align=center;verticalAlign=middle;resizable=0;points=[];autosize=1;strokeColor=none;fillColor=none;" parent="1" vertex="1">
          <mxGeometry x="890" y="610" width="170" height="40" as="geometry" />
        </mxCell>
        <mxCell id="oUjWwWJiYIkfK6Kyxx1s-61" value="" style="endArrow=classic;html=1;rounded=0;" parent="1" edge="1">
          <mxGeometry width="50" height="50" relative="1" as="geometry">
            <mxPoint x="1170" y="620" as="sourcePoint" />
            <mxPoint x="1170" y="580" as="targetPoint" />
          </mxGeometry>
        </mxCell>
        <mxCell id="oUjWwWJiYIkfK6Kyxx1s-62" value="" style="endArrow=classic;html=1;rounded=0;" parent="1" edge="1">
          <mxGeometry width="50" height="50" relative="1" as="geometry">
            <mxPoint x="1050" y="620" as="sourcePoint" />
            <mxPoint x="1050" y="580" as="targetPoint" />
          </mxGeometry>
        </mxCell>
        <mxCell id="oUjWwWJiYIkfK6Kyxx1s-63" value="&lt;div style=&quot;text-align: left;&quot;&gt;&lt;span style=&quot;color: rgb(179, 179, 179); font-family: &amp;quot;Songti TC&amp;quot;; background-color: initial;&quot;&gt;注意是不满足的第一个位置，&lt;/span&gt;&lt;/div&gt;&lt;font style=&quot;font-size: 12px;&quot; face=&quot;Songti TC&quot;&gt;&lt;div style=&quot;text-align: left;&quot;&gt;&lt;span style=&quot;color: rgb(179, 179, 179); background-color: initial;&quot;&gt;所以应该是4而不是3&lt;/span&gt;&lt;/div&gt;&lt;/font&gt;" style="text;html=1;align=center;verticalAlign=middle;resizable=0;points=[];autosize=1;strokeColor=none;fillColor=none;" parent="1" vertex="1">
          <mxGeometry x="890" y="640" width="180" height="40" as="geometry" />
        </mxCell>
        <mxCell id="oUjWwWJiYIkfK6Kyxx1s-64" value="&lt;font size=&quot;1&quot; face=&quot;Songti TC&quot;&gt;满足a[i]&amp;gt;=4的最后一个位置位置&lt;br&gt;&lt;/font&gt;" style="text;html=1;align=center;verticalAlign=middle;resizable=0;points=[];autosize=1;strokeColor=none;fillColor=none;" parent="1" vertex="1">
          <mxGeometry x="1085" y="615" width="190" height="30" as="geometry" />
        </mxCell>
        <mxCell id="oUjWwWJiYIkfK6Kyxx1s-65" value="" style="endArrow=none;html=1;rounded=0;" parent="1" edge="1">
          <mxGeometry width="50" height="50" relative="1" as="geometry">
            <mxPoint x="519.5" y="990" as="sourcePoint" />
            <mxPoint x="630.5" y="990" as="targetPoint" />
          </mxGeometry>
        </mxCell>
        <mxCell id="oUjWwWJiYIkfK6Kyxx1s-66" value="" style="endArrow=none;html=1;rounded=0;" parent="1" edge="1">
          <mxGeometry width="50" height="50" relative="1" as="geometry">
            <mxPoint x="510" y="963.5" as="sourcePoint" />
            <mxPoint x="627" y="926.5" as="targetPoint" />
            <Array as="points">
              <mxPoint x="527" y="926.5" />
            </Array>
          </mxGeometry>
        </mxCell>
        <mxCell id="oUjWwWJiYIkfK6Kyxx1s-67" value="&lt;font style=&quot;font-size: 25px;&quot;&gt;&amp;nbsp;1&amp;nbsp; 2&amp;nbsp; 3&amp;nbsp; 4&lt;/font&gt;" style="text;html=1;strokeColor=none;fillColor=none;align=center;verticalAlign=middle;whiteSpace=wrap;rounded=0;fontFamily=Songti TC;" parent="1" vertex="1">
          <mxGeometry x="520" y="930" width="110" height="30" as="geometry" />
        </mxCell>
        <mxCell id="oUjWwWJiYIkfK6Kyxx1s-68" value="&lt;font style=&quot;font-size: 25px;&quot;&gt;11&lt;/font&gt;" style="text;html=1;strokeColor=none;fillColor=none;align=center;verticalAlign=middle;whiteSpace=wrap;rounded=0;fontFamily=Songti TC;" parent="1" vertex="1">
          <mxGeometry x="460" y="930" width="70" height="30" as="geometry" />
        </mxCell>
        <mxCell id="oUjWwWJiYIkfK6Kyxx1s-69" value="&lt;font color=&quot;#ff0000&quot; style=&quot;font-size: 25px;&quot;&gt;0&amp;nbsp;&lt;/font&gt;" style="text;html=1;strokeColor=none;fillColor=none;align=center;verticalAlign=middle;whiteSpace=wrap;rounded=0;fontFamily=Songti TC;" parent="1" vertex="1">
          <mxGeometry x="510" y="900" width="70" height="30" as="geometry" />
        </mxCell>
        <mxCell id="oUjWwWJiYIkfK6Kyxx1s-70" value="&lt;font style=&quot;font-size: 25px;&quot;&gt;0&amp;nbsp;&lt;/font&gt;" style="text;html=1;strokeColor=none;fillColor=none;align=center;verticalAlign=middle;whiteSpace=wrap;rounded=0;fontFamily=Songti TC;" parent="1" vertex="1">
          <mxGeometry x="510" y="960" width="70" height="30" as="geometry" />
        </mxCell>
        <mxCell id="oUjWwWJiYIkfK6Kyxx1s-71" value="&lt;font color=&quot;#0000ff&quot; style=&quot;font-size: 25px;&quot;&gt;1&amp;nbsp;&lt;/font&gt;" style="text;html=1;strokeColor=none;fillColor=none;align=center;verticalAlign=middle;whiteSpace=wrap;rounded=0;fontFamily=Songti TC;" parent="1" vertex="1">
          <mxGeometry x="510" y="990" width="70" height="30" as="geometry" />
        </mxCell>
        <mxCell id="oUjWwWJiYIkfK6Kyxx1s-72" value="&lt;font style=&quot;font-size: 25px;&quot;&gt;-&lt;/font&gt;" style="text;html=1;strokeColor=none;fillColor=none;align=center;verticalAlign=middle;whiteSpace=wrap;rounded=0;fontFamily=Songti TC;" parent="1" vertex="1">
          <mxGeometry x="510" y="970" width="30" height="10" as="geometry" />
        </mxCell>
        <mxCell id="oUjWwWJiYIkfK6Kyxx1s-89" value="" style="endArrow=none;html=1;rounded=0;" parent="1" edge="1">
          <mxGeometry width="50" height="50" relative="1" as="geometry">
            <mxPoint x="724" y="990" as="sourcePoint" />
            <mxPoint x="835" y="990" as="targetPoint" />
          </mxGeometry>
        </mxCell>
        <mxCell id="oUjWwWJiYIkfK6Kyxx1s-90" value="" style="endArrow=none;html=1;rounded=0;" parent="1" edge="1">
          <mxGeometry width="50" height="50" relative="1" as="geometry">
            <mxPoint x="714.5" y="963.5" as="sourcePoint" />
            <mxPoint x="831.5" y="926.5" as="targetPoint" />
            <Array as="points">
              <mxPoint x="731.5" y="926.5" />
            </Array>
          </mxGeometry>
        </mxCell>
        <mxCell id="oUjWwWJiYIkfK6Kyxx1s-91" value="&lt;font style=&quot;font-size: 25px;&quot;&gt;&amp;nbsp;1&amp;nbsp; 2&amp;nbsp; 3&amp;nbsp; 4&lt;/font&gt;" style="text;html=1;strokeColor=none;fillColor=none;align=center;verticalAlign=middle;whiteSpace=wrap;rounded=0;fontFamily=Songti TC;" parent="1" vertex="1">
          <mxGeometry x="724.5" y="930" width="110" height="30" as="geometry" />
        </mxCell>
        <mxCell id="oUjWwWJiYIkfK6Kyxx1s-92" value="&lt;font style=&quot;font-size: 25px;&quot;&gt;11&lt;/font&gt;" style="text;html=1;strokeColor=none;fillColor=none;align=center;verticalAlign=middle;whiteSpace=wrap;rounded=0;fontFamily=Songti TC;" parent="1" vertex="1">
          <mxGeometry x="664.5" y="930" width="70" height="30" as="geometry" />
        </mxCell>
        <mxCell id="oUjWwWJiYIkfK6Kyxx1s-93" value="&lt;font color=&quot;#ff0000&quot; style=&quot;font-size: 25px;&quot;&gt;&amp;nbsp; &amp;nbsp;0&amp;nbsp; 1&lt;/font&gt;" style="text;html=1;strokeColor=none;fillColor=none;align=center;verticalAlign=middle;whiteSpace=wrap;rounded=0;fontFamily=Songti TC;" parent="1" vertex="1">
          <mxGeometry x="714.5" y="900" width="70" height="30" as="geometry" />
        </mxCell>
        <mxCell id="oUjWwWJiYIkfK6Kyxx1s-94" value="&lt;font style=&quot;font-size: 25px;&quot;&gt;0&amp;nbsp;&lt;/font&gt;" style="text;html=1;strokeColor=none;fillColor=none;align=center;verticalAlign=middle;whiteSpace=wrap;rounded=0;fontFamily=Songti TC;" parent="1" vertex="1">
          <mxGeometry x="714.5" y="960" width="70" height="30" as="geometry" />
        </mxCell>
        <mxCell id="oUjWwWJiYIkfK6Kyxx1s-95" value="&lt;font color=&quot;#0000ff&quot; style=&quot;font-size: 25px;&quot;&gt;&amp;nbsp; &amp;nbsp;1&amp;nbsp; &lt;/font&gt;&lt;font style=&quot;font-size: 25px;&quot;&gt;2&lt;/font&gt;" style="text;html=1;strokeColor=none;fillColor=none;align=center;verticalAlign=middle;whiteSpace=wrap;rounded=0;fontFamily=Songti TC;" parent="1" vertex="1">
          <mxGeometry x="714.5" y="990" width="70" height="30" as="geometry" />
        </mxCell>
        <mxCell id="oUjWwWJiYIkfK6Kyxx1s-96" value="&lt;font style=&quot;font-size: 25px;&quot;&gt;-&lt;/font&gt;" style="text;html=1;strokeColor=none;fillColor=none;align=center;verticalAlign=middle;whiteSpace=wrap;rounded=0;fontFamily=Songti TC;" parent="1" vertex="1">
          <mxGeometry x="714.5" y="970" width="30" height="10" as="geometry" />
        </mxCell>
        <mxCell id="oUjWwWJiYIkfK6Kyxx1s-98" value="" style="endArrow=none;html=1;rounded=0;" parent="1" edge="1">
          <mxGeometry width="50" height="50" relative="1" as="geometry">
            <mxPoint x="724.5" y="1050" as="sourcePoint" />
            <mxPoint x="835.5" y="1050" as="targetPoint" />
          </mxGeometry>
        </mxCell>
        <mxCell id="oUjWwWJiYIkfK6Kyxx1s-99" value="&lt;font style=&quot;font-size: 25px;&quot;&gt;&amp;nbsp; &amp;nbsp;1&amp;nbsp; 1&lt;/font&gt;" style="text;html=1;strokeColor=none;fillColor=none;align=center;verticalAlign=middle;whiteSpace=wrap;rounded=0;fontFamily=Songti TC;" parent="1" vertex="1">
          <mxGeometry x="714.5" y="1020" width="70" height="30" as="geometry" />
        </mxCell>
        <mxCell id="oUjWwWJiYIkfK6Kyxx1s-100" value="&lt;font style=&quot;font-size: 25px;&quot;&gt;-&lt;/font&gt;" style="text;html=1;strokeColor=none;fillColor=none;align=center;verticalAlign=middle;whiteSpace=wrap;rounded=0;fontFamily=Songti TC;" parent="1" vertex="1">
          <mxGeometry x="714.5" y="1030" width="30" height="10" as="geometry" />
        </mxCell>
        <mxCell id="oUjWwWJiYIkfK6Kyxx1s-101" value="&lt;font color=&quot;#0000ff&quot; style=&quot;font-size: 25px;&quot;&gt;&amp;nbsp; &amp;nbsp; &amp;nbsp; &amp;nbsp;1&lt;/font&gt;" style="text;html=1;strokeColor=none;fillColor=none;align=center;verticalAlign=middle;whiteSpace=wrap;rounded=0;fontFamily=Songti TC;" parent="1" vertex="1">
          <mxGeometry x="714.5" y="1050" width="70" height="30" as="geometry" />
        </mxCell>
        <mxCell id="oUjWwWJiYIkfK6Kyxx1s-102" value="" style="endArrow=none;html=1;rounded=0;" parent="1" edge="1">
          <mxGeometry width="50" height="50" relative="1" as="geometry">
            <mxPoint x="919" y="990" as="sourcePoint" />
            <mxPoint x="1030" y="990" as="targetPoint" />
          </mxGeometry>
        </mxCell>
        <mxCell id="oUjWwWJiYIkfK6Kyxx1s-103" value="" style="endArrow=none;html=1;rounded=0;" parent="1" edge="1">
          <mxGeometry width="50" height="50" relative="1" as="geometry">
            <mxPoint x="909.5" y="963.5" as="sourcePoint" />
            <mxPoint x="1026.5" y="926.5" as="targetPoint" />
            <Array as="points">
              <mxPoint x="926.5" y="926.5" />
            </Array>
          </mxGeometry>
        </mxCell>
        <mxCell id="oUjWwWJiYIkfK6Kyxx1s-104" value="&lt;font style=&quot;font-size: 25px;&quot;&gt;&amp;nbsp;1&amp;nbsp; 2&amp;nbsp; 3&amp;nbsp; 4&lt;/font&gt;" style="text;html=1;strokeColor=none;fillColor=none;align=center;verticalAlign=middle;whiteSpace=wrap;rounded=0;fontFamily=Songti TC;" parent="1" vertex="1">
          <mxGeometry x="919.5" y="930" width="110" height="30" as="geometry" />
        </mxCell>
        <mxCell id="oUjWwWJiYIkfK6Kyxx1s-105" value="&lt;font style=&quot;font-size: 25px;&quot;&gt;11&lt;/font&gt;" style="text;html=1;strokeColor=none;fillColor=none;align=center;verticalAlign=middle;whiteSpace=wrap;rounded=0;fontFamily=Songti TC;" parent="1" vertex="1">
          <mxGeometry x="859.5" y="930" width="70" height="30" as="geometry" />
        </mxCell>
        <mxCell id="oUjWwWJiYIkfK6Kyxx1s-106" value="&lt;font color=&quot;#ff0000&quot; style=&quot;font-size: 25px;&quot;&gt;&amp;nbsp;0&amp;nbsp; 1&amp;nbsp; 1&lt;/font&gt;" style="text;html=1;strokeColor=none;fillColor=none;align=left;verticalAlign=middle;whiteSpace=wrap;rounded=0;fontFamily=Songti TC;" parent="1" vertex="1">
          <mxGeometry x="930" y="900" width="100" height="30" as="geometry" />
        </mxCell>
        <mxCell id="oUjWwWJiYIkfK6Kyxx1s-107" value="&lt;font style=&quot;font-size: 25px;&quot;&gt;0&amp;nbsp;&lt;/font&gt;" style="text;html=1;strokeColor=none;fillColor=none;align=center;verticalAlign=middle;whiteSpace=wrap;rounded=0;fontFamily=Songti TC;" parent="1" vertex="1">
          <mxGeometry x="909.5" y="960" width="70" height="30" as="geometry" />
        </mxCell>
        <mxCell id="oUjWwWJiYIkfK6Kyxx1s-108" value="&lt;font color=&quot;#0000ff&quot; style=&quot;font-size: 25px;&quot;&gt;&amp;nbsp; &amp;nbsp;1&amp;nbsp; &lt;/font&gt;&lt;font style=&quot;font-size: 25px;&quot;&gt;2&lt;/font&gt;" style="text;html=1;strokeColor=none;fillColor=none;align=center;verticalAlign=middle;whiteSpace=wrap;rounded=0;fontFamily=Songti TC;" parent="1" vertex="1">
          <mxGeometry x="909.5" y="990" width="70" height="30" as="geometry" />
        </mxCell>
        <mxCell id="oUjWwWJiYIkfK6Kyxx1s-109" value="&lt;font style=&quot;font-size: 25px;&quot;&gt;-&lt;/font&gt;" style="text;html=1;strokeColor=none;fillColor=none;align=center;verticalAlign=middle;whiteSpace=wrap;rounded=0;fontFamily=Songti TC;" parent="1" vertex="1">
          <mxGeometry x="909.5" y="970" width="30" height="10" as="geometry" />
        </mxCell>
        <mxCell id="oUjWwWJiYIkfK6Kyxx1s-110" value="" style="endArrow=none;html=1;rounded=0;" parent="1" edge="1">
          <mxGeometry width="50" height="50" relative="1" as="geometry">
            <mxPoint x="919.5" y="1050" as="sourcePoint" />
            <mxPoint x="1031" y="1050" as="targetPoint" />
          </mxGeometry>
        </mxCell>
        <mxCell id="oUjWwWJiYIkfK6Kyxx1s-111" value="&lt;font style=&quot;font-size: 25px;&quot;&gt;&amp;nbsp; &amp;nbsp;1&amp;nbsp; 1&lt;/font&gt;" style="text;html=1;strokeColor=none;fillColor=none;align=center;verticalAlign=middle;whiteSpace=wrap;rounded=0;fontFamily=Songti TC;" parent="1" vertex="1">
          <mxGeometry x="909.5" y="1020" width="70" height="30" as="geometry" />
        </mxCell>
        <mxCell id="oUjWwWJiYIkfK6Kyxx1s-112" value="&lt;font style=&quot;font-size: 25px;&quot;&gt;-&lt;/font&gt;" style="text;html=1;strokeColor=none;fillColor=none;align=center;verticalAlign=middle;whiteSpace=wrap;rounded=0;fontFamily=Songti TC;" parent="1" vertex="1">
          <mxGeometry x="909.5" y="1030" width="30" height="10" as="geometry" />
        </mxCell>
        <mxCell id="oUjWwWJiYIkfK6Kyxx1s-113" value="&lt;font color=&quot;#0000ff&quot; style=&quot;font-size: 25px;&quot;&gt;&amp;nbsp; &amp;nbsp; &amp;nbsp;1&amp;nbsp;&lt;/font&gt;&lt;font style=&quot;font-size: 25px;&quot;&gt; 3&lt;/font&gt;" style="text;html=1;strokeColor=none;fillColor=none;align=center;verticalAlign=middle;whiteSpace=wrap;rounded=0;fontFamily=Songti TC;" parent="1" vertex="1">
          <mxGeometry x="909.5" y="1050" width="110.5" height="30" as="geometry" />
        </mxCell>
        <mxCell id="oUjWwWJiYIkfK6Kyxx1s-115" value="&lt;font style=&quot;font-size: 25px;&quot;&gt;&amp;nbsp; &amp;nbsp; &amp;nbsp;1&amp;nbsp; 1&lt;/font&gt;" style="text;html=1;strokeColor=none;fillColor=none;align=center;verticalAlign=middle;whiteSpace=wrap;rounded=0;fontFamily=Songti TC;" parent="1" vertex="1">
          <mxGeometry x="909.75" y="1080" width="110.5" height="30" as="geometry" />
        </mxCell>
        <mxCell id="oUjWwWJiYIkfK6Kyxx1s-116" value="" style="endArrow=none;html=1;rounded=0;" parent="1" edge="1">
          <mxGeometry width="50" height="50" relative="1" as="geometry">
            <mxPoint x="919.25" y="1110" as="sourcePoint" />
            <mxPoint x="1030.75" y="1110" as="targetPoint" />
          </mxGeometry>
        </mxCell>
        <mxCell id="oUjWwWJiYIkfK6Kyxx1s-117" value="&lt;font style=&quot;font-size: 25px;&quot;&gt;-&lt;/font&gt;" style="text;html=1;strokeColor=none;fillColor=none;align=center;verticalAlign=middle;whiteSpace=wrap;rounded=0;fontFamily=Songti TC;" parent="1" vertex="1">
          <mxGeometry x="909.75" y="1090" width="30" height="10" as="geometry" />
        </mxCell>
        <mxCell id="oUjWwWJiYIkfK6Kyxx1s-118" value="&lt;font color=&quot;#0000ff&quot; style=&quot;font-size: 25px;&quot;&gt;&amp;nbsp; &amp;nbsp; &amp;nbsp;2&lt;/font&gt;" style="text;html=1;strokeColor=none;fillColor=none;align=center;verticalAlign=middle;whiteSpace=wrap;rounded=0;fontFamily=Songti TC;" parent="1" vertex="1">
          <mxGeometry x="919.75" y="1110" width="110.5" height="30" as="geometry" />
        </mxCell>
        <mxCell id="oUjWwWJiYIkfK6Kyxx1s-119" value="" style="endArrow=none;html=1;rounded=0;" parent="1" edge="1">
          <mxGeometry width="50" height="50" relative="1" as="geometry">
            <mxPoint x="1109.5" y="990" as="sourcePoint" />
            <mxPoint x="1220.5" y="990" as="targetPoint" />
          </mxGeometry>
        </mxCell>
        <mxCell id="oUjWwWJiYIkfK6Kyxx1s-120" value="" style="endArrow=none;html=1;rounded=0;" parent="1" edge="1">
          <mxGeometry width="50" height="50" relative="1" as="geometry">
            <mxPoint x="1100" y="963.5" as="sourcePoint" />
            <mxPoint x="1217" y="926.5" as="targetPoint" />
            <Array as="points">
              <mxPoint x="1117" y="926.5" />
            </Array>
          </mxGeometry>
        </mxCell>
        <mxCell id="oUjWwWJiYIkfK6Kyxx1s-121" value="&lt;font style=&quot;font-size: 25px;&quot;&gt;&amp;nbsp;1&amp;nbsp; 2&amp;nbsp; 3&amp;nbsp; 4&lt;/font&gt;" style="text;html=1;strokeColor=none;fillColor=none;align=center;verticalAlign=middle;whiteSpace=wrap;rounded=0;fontFamily=Songti TC;" parent="1" vertex="1">
          <mxGeometry x="1110" y="930" width="110" height="30" as="geometry" />
        </mxCell>
        <mxCell id="oUjWwWJiYIkfK6Kyxx1s-122" value="&lt;font style=&quot;font-size: 25px;&quot;&gt;11&lt;/font&gt;" style="text;html=1;strokeColor=none;fillColor=none;align=center;verticalAlign=middle;whiteSpace=wrap;rounded=0;fontFamily=Songti TC;" parent="1" vertex="1">
          <mxGeometry x="1050" y="930" width="70" height="30" as="geometry" />
        </mxCell>
        <mxCell id="oUjWwWJiYIkfK6Kyxx1s-123" value="&lt;font color=&quot;#ff0000&quot; style=&quot;font-size: 25px;&quot;&gt;&amp;nbsp;0&amp;nbsp; 1&amp;nbsp; 1&amp;nbsp; 2&lt;/font&gt;" style="text;html=1;strokeColor=none;fillColor=none;align=left;verticalAlign=middle;whiteSpace=wrap;rounded=0;fontFamily=Songti TC;" parent="1" vertex="1">
          <mxGeometry x="1120.5" y="900" width="100" height="30" as="geometry" />
        </mxCell>
        <mxCell id="oUjWwWJiYIkfK6Kyxx1s-124" value="&lt;font style=&quot;font-size: 25px;&quot;&gt;0&amp;nbsp;&lt;/font&gt;" style="text;html=1;strokeColor=none;fillColor=none;align=center;verticalAlign=middle;whiteSpace=wrap;rounded=0;fontFamily=Songti TC;" parent="1" vertex="1">
          <mxGeometry x="1100" y="960" width="70" height="30" as="geometry" />
        </mxCell>
        <mxCell id="oUjWwWJiYIkfK6Kyxx1s-125" value="&lt;font color=&quot;#0000ff&quot; style=&quot;font-size: 25px;&quot;&gt;&amp;nbsp; &amp;nbsp;1&amp;nbsp; &lt;/font&gt;&lt;font style=&quot;font-size: 25px;&quot;&gt;2&lt;/font&gt;" style="text;html=1;strokeColor=none;fillColor=none;align=center;verticalAlign=middle;whiteSpace=wrap;rounded=0;fontFamily=Songti TC;" parent="1" vertex="1">
          <mxGeometry x="1100" y="990" width="70" height="30" as="geometry" />
        </mxCell>
        <mxCell id="oUjWwWJiYIkfK6Kyxx1s-126" value="&lt;font style=&quot;font-size: 25px;&quot;&gt;-&lt;/font&gt;" style="text;html=1;strokeColor=none;fillColor=none;align=center;verticalAlign=middle;whiteSpace=wrap;rounded=0;fontFamily=Songti TC;" parent="1" vertex="1">
          <mxGeometry x="1100" y="970" width="30" height="10" as="geometry" />
        </mxCell>
        <mxCell id="oUjWwWJiYIkfK6Kyxx1s-127" value="" style="endArrow=none;html=1;rounded=0;" parent="1" edge="1">
          <mxGeometry width="50" height="50" relative="1" as="geometry">
            <mxPoint x="1110" y="1050" as="sourcePoint" />
            <mxPoint x="1221.5" y="1050" as="targetPoint" />
          </mxGeometry>
        </mxCell>
        <mxCell id="oUjWwWJiYIkfK6Kyxx1s-128" value="&lt;font style=&quot;font-size: 25px;&quot;&gt;&amp;nbsp; &amp;nbsp;1&amp;nbsp; 1&lt;/font&gt;" style="text;html=1;strokeColor=none;fillColor=none;align=center;verticalAlign=middle;whiteSpace=wrap;rounded=0;fontFamily=Songti TC;" parent="1" vertex="1">
          <mxGeometry x="1100" y="1020" width="70" height="30" as="geometry" />
        </mxCell>
        <mxCell id="oUjWwWJiYIkfK6Kyxx1s-129" value="&lt;font style=&quot;font-size: 25px;&quot;&gt;-&lt;/font&gt;" style="text;html=1;strokeColor=none;fillColor=none;align=center;verticalAlign=middle;whiteSpace=wrap;rounded=0;fontFamily=Songti TC;" parent="1" vertex="1">
          <mxGeometry x="1100" y="1030" width="30" height="10" as="geometry" />
        </mxCell>
        <mxCell id="oUjWwWJiYIkfK6Kyxx1s-130" value="&lt;font color=&quot;#0000ff&quot; style=&quot;font-size: 25px;&quot;&gt;&amp;nbsp; &amp;nbsp; &amp;nbsp;1&amp;nbsp;&lt;/font&gt;&lt;font style=&quot;font-size: 25px;&quot;&gt; 3&lt;/font&gt;" style="text;html=1;strokeColor=none;fillColor=none;align=center;verticalAlign=middle;whiteSpace=wrap;rounded=0;fontFamily=Songti TC;" parent="1" vertex="1">
          <mxGeometry x="1100" y="1050" width="110.5" height="30" as="geometry" />
        </mxCell>
        <mxCell id="oUjWwWJiYIkfK6Kyxx1s-131" value="&lt;font style=&quot;font-size: 25px;&quot;&gt;&amp;nbsp; &amp;nbsp; &amp;nbsp;1&amp;nbsp; 1&lt;/font&gt;" style="text;html=1;strokeColor=none;fillColor=none;align=center;verticalAlign=middle;whiteSpace=wrap;rounded=0;fontFamily=Songti TC;" parent="1" vertex="1">
          <mxGeometry x="1100.25" y="1080" width="110.5" height="30" as="geometry" />
        </mxCell>
        <mxCell id="oUjWwWJiYIkfK6Kyxx1s-132" value="" style="endArrow=none;html=1;rounded=0;" parent="1" edge="1">
          <mxGeometry width="50" height="50" relative="1" as="geometry">
            <mxPoint x="1109.75" y="1110" as="sourcePoint" />
            <mxPoint x="1221.25" y="1110" as="targetPoint" />
          </mxGeometry>
        </mxCell>
        <mxCell id="oUjWwWJiYIkfK6Kyxx1s-133" value="&lt;font style=&quot;font-size: 25px;&quot;&gt;-&lt;/font&gt;" style="text;html=1;strokeColor=none;fillColor=none;align=center;verticalAlign=middle;whiteSpace=wrap;rounded=0;fontFamily=Songti TC;" parent="1" vertex="1">
          <mxGeometry x="1100.25" y="1090" width="30" height="10" as="geometry" />
        </mxCell>
        <mxCell id="oUjWwWJiYIkfK6Kyxx1s-134" value="&lt;font color=&quot;#0000ff&quot; style=&quot;font-size: 25px;&quot;&gt;&amp;nbsp; &amp;nbsp; &amp;nbsp;2&amp;nbsp; &lt;/font&gt;&lt;font style=&quot;font-size: 25px;&quot;&gt;4&lt;/font&gt;" style="text;html=1;strokeColor=none;fillColor=none;align=center;verticalAlign=middle;whiteSpace=wrap;rounded=0;fontFamily=Songti TC;" parent="1" vertex="1">
          <mxGeometry x="1124.75" y="1110" width="110.5" height="30" as="geometry" />
        </mxCell>
        <mxCell id="oUjWwWJiYIkfK6Kyxx1s-135" value="&lt;font style=&quot;font-size: 25px;&quot;&gt;&amp;nbsp; &amp;nbsp; &amp;nbsp;2&amp;nbsp; 2&lt;/font&gt;" style="text;html=1;strokeColor=none;fillColor=none;align=center;verticalAlign=middle;whiteSpace=wrap;rounded=0;fontFamily=Songti TC;" parent="1" vertex="1">
          <mxGeometry x="1124.75" y="1138" width="110.5" height="30" as="geometry" />
        </mxCell>
        <mxCell id="oUjWwWJiYIkfK6Kyxx1s-136" value="&lt;font style=&quot;font-size: 25px;&quot;&gt;-&lt;/font&gt;" style="text;html=1;strokeColor=none;fillColor=none;align=center;verticalAlign=middle;whiteSpace=wrap;rounded=0;fontFamily=Songti TC;" parent="1" vertex="1">
          <mxGeometry x="1100.25" y="1148" width="30" height="10" as="geometry" />
        </mxCell>
        <mxCell id="oUjWwWJiYIkfK6Kyxx1s-137" value="" style="endArrow=none;html=1;rounded=0;" parent="1" edge="1">
          <mxGeometry width="50" height="50" relative="1" as="geometry">
            <mxPoint x="1110" y="1167.71" as="sourcePoint" />
            <mxPoint x="1221.5" y="1167.71" as="targetPoint" />
          </mxGeometry>
        </mxCell>
        <mxCell id="oUjWwWJiYIkfK6Kyxx1s-138" value="&lt;font color=&quot;#0000ff&quot; style=&quot;font-size: 25px;&quot;&gt;&amp;nbsp; &amp;nbsp; &amp;nbsp;2&lt;/font&gt;" style="text;html=1;strokeColor=none;fillColor=none;align=center;verticalAlign=middle;whiteSpace=wrap;rounded=0;fontFamily=Songti TC;" parent="1" vertex="1">
          <mxGeometry x="1140" y="1168" width="110.5" height="30" as="geometry" />
        </mxCell>
        <mxCell id="oUjWwWJiYIkfK6Kyxx1s-145" value="" style="endArrow=classic;html=1;rounded=0;dashed=1;strokeColor=#FF0000;" parent="1" edge="1">
          <mxGeometry width="50" height="50" relative="1" as="geometry">
            <mxPoint x="1205.5" y="960" as="sourcePoint" />
            <mxPoint x="1205" y="1110" as="targetPoint" />
          </mxGeometry>
        </mxCell>
        <mxCell id="oUjWwWJiYIkfK6Kyxx1s-146" value="" style="endArrow=classic;html=1;rounded=0;dashed=1;strokeColor=#FF0000;" parent="1" edge="1">
          <mxGeometry width="50" height="50" relative="1" as="geometry">
            <mxPoint x="992" y="963" as="sourcePoint" />
            <mxPoint x="992.25" y="1043" as="targetPoint" />
          </mxGeometry>
        </mxCell>
        <mxCell id="oUjWwWJiYIkfK6Kyxx1s-147" value="" style="endArrow=classic;html=1;rounded=0;dashed=1;strokeColor=#FF0000;" parent="1" edge="1">
          <mxGeometry width="50" height="50" relative="1" as="geometry">
            <mxPoint x="770.5" y="960" as="sourcePoint" />
            <mxPoint x="770" y="990" as="targetPoint" />
          </mxGeometry>
        </mxCell>
        <mxCell id="oUjWwWJiYIkfK6Kyxx1s-148" value="&lt;font style=&quot;font-size: 14px;&quot;&gt;2&lt;/font&gt;" style="rounded=0;whiteSpace=wrap;html=1;fontFamily=Songti TC;fontSize=14;fillColor=#dae8fc;strokeColor=#6c8ebf;" parent="1" vertex="1">
          <mxGeometry x="139" y="831" width="40" height="40" as="geometry" />
        </mxCell>
        <mxCell id="oUjWwWJiYIkfK6Kyxx1s-149" value="3" style="rounded=0;whiteSpace=wrap;html=1;fontFamily=Songti TC;fontSize=14;fillColor=#dae8fc;strokeColor=#6c8ebf;" parent="1" vertex="1">
          <mxGeometry x="179" y="831" width="40" height="40" as="geometry" />
        </mxCell>
        <mxCell id="oUjWwWJiYIkfK6Kyxx1s-150" value="4" style="rounded=0;whiteSpace=wrap;html=1;fontFamily=Songti TC;fontSize=14;fillColor=#dae8fc;strokeColor=#6c8ebf;" parent="1" vertex="1">
          <mxGeometry x="219" y="831" width="40" height="40" as="geometry" />
        </mxCell>
        <mxCell id="oUjWwWJiYIkfK6Kyxx1s-151" value="5" style="rounded=0;whiteSpace=wrap;html=1;fontFamily=Songti TC;fontSize=14;" parent="1" vertex="1">
          <mxGeometry x="259" y="831" width="40" height="40" as="geometry" />
        </mxCell>
        <mxCell id="oUjWwWJiYIkfK6Kyxx1s-152" value="6" style="rounded=0;whiteSpace=wrap;html=1;fontFamily=Songti TC;fontSize=14;" parent="1" vertex="1">
          <mxGeometry x="299" y="831" width="40" height="40" as="geometry" />
        </mxCell>
        <mxCell id="oUjWwWJiYIkfK6Kyxx1s-155" value="&lt;font style=&quot;font-size: 14px;&quot;&gt;1&lt;/font&gt;" style="rounded=0;whiteSpace=wrap;html=1;fontFamily=Songti TC;fontSize=14;" parent="1" vertex="1">
          <mxGeometry x="99" y="831" width="40" height="40" as="geometry" />
        </mxCell>
        <mxCell id="oUjWwWJiYIkfK6Kyxx1s-171" value="" style="group" parent="1" vertex="1" connectable="0">
          <mxGeometry x="99" y="871" width="240" height="20" as="geometry" />
        </mxCell>
        <mxCell id="oUjWwWJiYIkfK6Kyxx1s-165" value="&lt;font style=&quot;font-size: 14px;&quot;&gt;2&lt;/font&gt;" style="rounded=0;whiteSpace=wrap;html=1;fontFamily=Songti TC;fontSize=14;" parent="oUjWwWJiYIkfK6Kyxx1s-171" vertex="1">
          <mxGeometry x="40" width="40" height="20" as="geometry" />
        </mxCell>
        <mxCell id="oUjWwWJiYIkfK6Kyxx1s-166" value="3" style="rounded=0;whiteSpace=wrap;html=1;fontFamily=Songti TC;fontSize=14;" parent="oUjWwWJiYIkfK6Kyxx1s-171" vertex="1">
          <mxGeometry x="80" width="40" height="20" as="geometry" />
        </mxCell>
        <mxCell id="oUjWwWJiYIkfK6Kyxx1s-167" value="4" style="rounded=0;whiteSpace=wrap;html=1;fontFamily=Songti TC;fontSize=14;" parent="oUjWwWJiYIkfK6Kyxx1s-171" vertex="1">
          <mxGeometry x="120" width="40" height="20" as="geometry" />
        </mxCell>
        <mxCell id="oUjWwWJiYIkfK6Kyxx1s-168" value="5" style="rounded=0;whiteSpace=wrap;html=1;fontFamily=Songti TC;fontSize=14;" parent="oUjWwWJiYIkfK6Kyxx1s-171" vertex="1">
          <mxGeometry x="160" width="40" height="20" as="geometry" />
        </mxCell>
        <mxCell id="oUjWwWJiYIkfK6Kyxx1s-169" value="6" style="rounded=0;whiteSpace=wrap;html=1;fontFamily=Songti TC;fontSize=14;" parent="oUjWwWJiYIkfK6Kyxx1s-171" vertex="1">
          <mxGeometry x="200" width="40" height="20" as="geometry" />
        </mxCell>
        <mxCell id="oUjWwWJiYIkfK6Kyxx1s-170" value="&lt;font style=&quot;font-size: 14px;&quot;&gt;1&lt;/font&gt;" style="rounded=0;whiteSpace=wrap;html=1;fontFamily=Songti TC;fontSize=14;" parent="oUjWwWJiYIkfK6Kyxx1s-171" vertex="1">
          <mxGeometry width="40" height="20" as="geometry" />
        </mxCell>
        <mxCell id="oUjWwWJiYIkfK6Kyxx1s-172" value="&lt;font face=&quot;Songti TC&quot;&gt;下标&lt;/font&gt;" style="text;html=1;align=center;verticalAlign=middle;resizable=0;points=[];autosize=1;strokeColor=none;fillColor=none;" parent="1" vertex="1">
          <mxGeometry x="50" y="868" width="42" height="26" as="geometry" />
        </mxCell>
        <mxCell id="oUjWwWJiYIkfK6Kyxx1s-173" value="&lt;font face=&quot;Songti TC&quot;&gt;S[2, 4] = S[4] + S[1]&lt;/font&gt;" style="text;html=1;align=center;verticalAlign=middle;resizable=0;points=[];autosize=1;strokeColor=none;fillColor=none;" parent="1" vertex="1">
          <mxGeometry x="145.5" y="899" width="111" height="26" as="geometry" />
        </mxCell>
        <mxCell id="oUjWwWJiYIkfK6Kyxx1s-174" value="&lt;font style=&quot;font-size: 14px;&quot; face=&quot;Songti TC&quot;&gt;a[i]&lt;/font&gt;" style="text;html=1;align=center;verticalAlign=middle;resizable=0;points=[];autosize=1;strokeColor=none;fillColor=none;" parent="1" vertex="1">
          <mxGeometry x="53" y="837" width="36" height="29" as="geometry" />
        </mxCell>
        <mxCell id="oUjWwWJiYIkfK6Kyxx1s-175" value="" style="endArrow=classic;html=1;rounded=0;entryX=0;entryY=0;entryDx=0;entryDy=0;exitX=0;exitY=0;exitDx=0;exitDy=0;" parent="1" source="oUjWwWJiYIkfK6Kyxx1s-155" target="oUjWwWJiYIkfK6Kyxx1s-151" edge="1">
          <mxGeometry width="50" height="50" relative="1" as="geometry">
            <mxPoint x="100" y="828" as="sourcePoint" />
            <mxPoint x="242" y="793" as="targetPoint" />
            <Array as="points">
              <mxPoint x="99" y="796" />
              <mxPoint x="259" y="796" />
            </Array>
          </mxGeometry>
        </mxCell>
        <mxCell id="oUjWwWJiYIkfK6Kyxx1s-176" value="&lt;font face=&quot;Songti TC&quot;&gt;S[4]&lt;/font&gt;" style="text;html=1;align=center;verticalAlign=middle;resizable=0;points=[];autosize=1;strokeColor=none;fillColor=none;" parent="1" vertex="1">
          <mxGeometry x="181" y="807" width="36" height="26" as="geometry" />
        </mxCell>
        <mxCell id="oUjWwWJiYIkfK6Kyxx1s-177" value="" style="endArrow=classic;html=1;rounded=0;exitX=0;exitY=0;exitDx=0;exitDy=0;entryX=1;entryY=0;entryDx=0;entryDy=0;" parent="1" target="oUjWwWJiYIkfK6Kyxx1s-155" edge="1">
          <mxGeometry width="50" height="50" relative="1" as="geometry">
            <mxPoint x="99" y="834" as="sourcePoint" />
            <mxPoint x="138" y="828" as="targetPoint" />
            <Array as="points">
              <mxPoint x="99" y="807" />
              <mxPoint x="139" y="807" />
            </Array>
          </mxGeometry>
        </mxCell>
        <mxCell id="oUjWwWJiYIkfK6Kyxx1s-178" value="&lt;font face=&quot;Songti TC&quot;&gt;S[1]&lt;/font&gt;" style="text;html=1;align=center;verticalAlign=middle;resizable=0;points=[];autosize=1;strokeColor=none;fillColor=none;" parent="1" vertex="1">
          <mxGeometry x="100" y="807" width="36" height="26" as="geometry" />
        </mxCell>
        <mxCell id="oUjWwWJiYIkfK6Kyxx1s-179" value="1" style="rounded=0;whiteSpace=wrap;html=1;fontFamily=Songti TC;" parent="1" vertex="1">
          <mxGeometry x="27" y="1044" width="20" height="20" as="geometry" />
        </mxCell>
        <mxCell id="oUjWwWJiYIkfK6Kyxx1s-180" value="2" style="rounded=0;whiteSpace=wrap;html=1;fontFamily=Songti TC;" parent="1" vertex="1">
          <mxGeometry x="47" y="1044" width="20" height="20" as="geometry" />
        </mxCell>
        <mxCell id="oUjWwWJiYIkfK6Kyxx1s-181" value="1" style="rounded=0;whiteSpace=wrap;html=1;fontFamily=Songti TC;" parent="1" vertex="1">
          <mxGeometry x="27" y="1064" width="20" height="20" as="geometry" />
        </mxCell>
        <mxCell id="oUjWwWJiYIkfK6Kyxx1s-182" value="2" style="rounded=0;whiteSpace=wrap;html=1;fontFamily=Songti TC;fillColor=#dae8fc;strokeColor=#6c8ebf;" parent="1" vertex="1">
          <mxGeometry x="47" y="1064" width="20" height="20" as="geometry" />
        </mxCell>
        <mxCell id="oUjWwWJiYIkfK6Kyxx1s-183" value="3" style="rounded=0;whiteSpace=wrap;html=1;fontFamily=Songti TC;" parent="1" vertex="1">
          <mxGeometry x="67" y="1044" width="20" height="20" as="geometry" />
        </mxCell>
        <mxCell id="oUjWwWJiYIkfK6Kyxx1s-184" value="4" style="rounded=0;whiteSpace=wrap;html=1;fontFamily=Songti TC;" parent="1" vertex="1">
          <mxGeometry x="87" y="1044" width="20" height="20" as="geometry" />
        </mxCell>
        <mxCell id="oUjWwWJiYIkfK6Kyxx1s-185" value="3" style="rounded=0;whiteSpace=wrap;html=1;fontFamily=Songti TC;fillColor=#dae8fc;strokeColor=#6c8ebf;" parent="1" vertex="1">
          <mxGeometry x="67" y="1064" width="20" height="20" as="geometry" />
        </mxCell>
        <mxCell id="oUjWwWJiYIkfK6Kyxx1s-186" value="4" style="rounded=0;whiteSpace=wrap;html=1;fontFamily=Songti TC;" parent="1" vertex="1">
          <mxGeometry x="87" y="1064" width="20" height="20" as="geometry" />
        </mxCell>
        <mxCell id="oUjWwWJiYIkfK6Kyxx1s-187" value="1" style="rounded=0;whiteSpace=wrap;html=1;fontFamily=Songti TC;" parent="1" vertex="1">
          <mxGeometry x="27" y="1084" width="20" height="20" as="geometry" />
        </mxCell>
        <mxCell id="oUjWwWJiYIkfK6Kyxx1s-188" value="2" style="rounded=0;whiteSpace=wrap;html=1;fontFamily=Songti TC;fillColor=#dae8fc;strokeColor=#6c8ebf;" parent="1" vertex="1">
          <mxGeometry x="47" y="1084" width="20" height="20" as="geometry" />
        </mxCell>
        <mxCell id="oUjWwWJiYIkfK6Kyxx1s-189" value="1" style="rounded=0;whiteSpace=wrap;html=1;fontFamily=Songti TC;" parent="1" vertex="1">
          <mxGeometry x="27" y="1104" width="20" height="20" as="geometry" />
        </mxCell>
        <mxCell id="oUjWwWJiYIkfK6Kyxx1s-190" value="2" style="rounded=0;whiteSpace=wrap;html=1;fontFamily=Songti TC;" parent="1" vertex="1">
          <mxGeometry x="47" y="1104" width="20" height="20" as="geometry" />
        </mxCell>
        <mxCell id="oUjWwWJiYIkfK6Kyxx1s-191" value="3" style="rounded=0;whiteSpace=wrap;html=1;fontFamily=Songti TC;fillColor=#dae8fc;strokeColor=#6c8ebf;" parent="1" vertex="1">
          <mxGeometry x="67" y="1084" width="20" height="20" as="geometry" />
        </mxCell>
        <mxCell id="oUjWwWJiYIkfK6Kyxx1s-192" value="4" style="rounded=0;whiteSpace=wrap;html=1;fontFamily=Songti TC;" parent="1" vertex="1">
          <mxGeometry x="87" y="1084" width="20" height="20" as="geometry" />
        </mxCell>
        <mxCell id="oUjWwWJiYIkfK6Kyxx1s-193" value="3" style="rounded=0;whiteSpace=wrap;html=1;fontFamily=Songti TC;" parent="1" vertex="1">
          <mxGeometry x="67" y="1104" width="20" height="20" as="geometry" />
        </mxCell>
        <mxCell id="oUjWwWJiYIkfK6Kyxx1s-194" value="4" style="rounded=0;whiteSpace=wrap;html=1;fontFamily=Songti TC;" parent="1" vertex="1">
          <mxGeometry x="87" y="1104" width="20" height="20" as="geometry" />
        </mxCell>
        <mxCell id="oUjWwWJiYIkfK6Kyxx1s-195" value="&lt;font style=&quot;font-size: 11px;&quot;&gt;1&lt;/font&gt;" style="rounded=0;whiteSpace=wrap;html=1;fontFamily=Songti TC;fontSize=10;fillColor=#f8cecc;strokeColor=#b85450;" parent="1" vertex="1">
          <mxGeometry x="127" y="1044" width="20" height="20" as="geometry" />
        </mxCell>
        <mxCell id="oUjWwWJiYIkfK6Kyxx1s-196" value="3" style="rounded=0;whiteSpace=wrap;html=1;fontFamily=Songti TC;fillColor=#f8cecc;strokeColor=#b85450;" parent="1" vertex="1">
          <mxGeometry x="147" y="1044" width="20" height="20" as="geometry" />
        </mxCell>
        <mxCell id="oUjWwWJiYIkfK6Kyxx1s-197" value="2" style="rounded=0;whiteSpace=wrap;html=1;fontFamily=Songti TC;fillColor=#f8cecc;strokeColor=#b85450;" parent="1" vertex="1">
          <mxGeometry x="127" y="1064" width="20" height="20" as="geometry" />
        </mxCell>
        <mxCell id="oUjWwWJiYIkfK6Kyxx1s-198" value="6" style="rounded=0;whiteSpace=wrap;html=1;fontFamily=Songti TC;fillColor=#f8cecc;strokeColor=#b85450;" parent="1" vertex="1">
          <mxGeometry x="147" y="1064" width="20" height="20" as="geometry" />
        </mxCell>
        <mxCell id="oUjWwWJiYIkfK6Kyxx1s-199" value="6" style="rounded=0;whiteSpace=wrap;html=1;fontFamily=Songti TC;fillColor=#f8cecc;strokeColor=#b85450;" parent="1" vertex="1">
          <mxGeometry x="167" y="1044" width="20" height="20" as="geometry" />
        </mxCell>
        <mxCell id="oUjWwWJiYIkfK6Kyxx1s-200" value="10" style="rounded=0;whiteSpace=wrap;html=1;fontFamily=Songti TC;" parent="1" vertex="1">
          <mxGeometry x="187" y="1044" width="20" height="20" as="geometry" />
        </mxCell>
        <mxCell id="oUjWwWJiYIkfK6Kyxx1s-201" value="12" style="rounded=0;whiteSpace=wrap;html=1;fontFamily=Songti TC;fillColor=#f8cecc;strokeColor=#b85450;" parent="1" vertex="1">
          <mxGeometry x="167" y="1064" width="20" height="20" as="geometry" />
        </mxCell>
        <mxCell id="oUjWwWJiYIkfK6Kyxx1s-202" value="20" style="rounded=0;whiteSpace=wrap;html=1;fontFamily=Songti TC;" parent="1" vertex="1">
          <mxGeometry x="187" y="1064" width="20" height="20" as="geometry" />
        </mxCell>
        <mxCell id="oUjWwWJiYIkfK6Kyxx1s-203" value="3" style="rounded=0;whiteSpace=wrap;html=1;fontFamily=Songti TC;fillColor=#f8cecc;strokeColor=#b85450;" parent="1" vertex="1">
          <mxGeometry x="127" y="1084" width="20" height="20" as="geometry" />
        </mxCell>
        <mxCell id="oUjWwWJiYIkfK6Kyxx1s-204" value="9" style="rounded=0;whiteSpace=wrap;html=1;fontFamily=Songti TC;fillColor=#f8cecc;strokeColor=#b85450;" parent="1" vertex="1">
          <mxGeometry x="147" y="1084" width="20" height="20" as="geometry" />
        </mxCell>
        <mxCell id="oUjWwWJiYIkfK6Kyxx1s-205" value="4" style="rounded=0;whiteSpace=wrap;html=1;fontFamily=Songti TC;" parent="1" vertex="1">
          <mxGeometry x="127" y="1104" width="20" height="20" as="geometry" />
        </mxCell>
        <mxCell id="oUjWwWJiYIkfK6Kyxx1s-206" value="12" style="rounded=0;whiteSpace=wrap;html=1;fontFamily=Songti TC;" parent="1" vertex="1">
          <mxGeometry x="147" y="1104" width="20" height="20" as="geometry" />
        </mxCell>
        <mxCell id="oUjWwWJiYIkfK6Kyxx1s-207" value="18" style="rounded=0;whiteSpace=wrap;html=1;fontFamily=Songti TC;fillColor=#f8cecc;strokeColor=#b85450;" parent="1" vertex="1">
          <mxGeometry x="167" y="1084" width="20" height="20" as="geometry" />
        </mxCell>
        <mxCell id="oUjWwWJiYIkfK6Kyxx1s-208" value="30" style="rounded=0;whiteSpace=wrap;html=1;fontFamily=Songti TC;" parent="1" vertex="1">
          <mxGeometry x="187" y="1084" width="20" height="20" as="geometry" />
        </mxCell>
        <mxCell id="oUjWwWJiYIkfK6Kyxx1s-209" value="24" style="rounded=0;whiteSpace=wrap;html=1;fontFamily=Songti TC;" parent="1" vertex="1">
          <mxGeometry x="167" y="1104" width="20" height="20" as="geometry" />
        </mxCell>
        <mxCell id="oUjWwWJiYIkfK6Kyxx1s-210" value="40" style="rounded=0;whiteSpace=wrap;html=1;fontFamily=Songti TC;" parent="1" vertex="1">
          <mxGeometry x="187" y="1104" width="20" height="20" as="geometry" />
        </mxCell>
        <mxCell id="oUjWwWJiYIkfK6Kyxx1s-214" value="&lt;font face=&quot;Songti TC&quot;&gt;a[x][y]&lt;/font&gt;" style="text;html=1;align=center;verticalAlign=middle;resizable=0;points=[];autosize=1;" parent="1" vertex="1">
          <mxGeometry x="41" y="1122" width="48" height="26" as="geometry" />
        </mxCell>
        <mxCell id="oUjWwWJiYIkfK6Kyxx1s-215" value="&lt;font face=&quot;Songti TC&quot;&gt;S[3][3]&lt;/font&gt;" style="text;html=1;align=center;verticalAlign=middle;resizable=0;points=[];autosize=1;" parent="1" vertex="1">
          <mxGeometry x="142" y="1120" width="50" height="30" as="geometry" />
        </mxCell>
        <mxCell id="oUjWwWJiYIkfK6Kyxx1s-225" value="&lt;font style=&quot;font-size: 11px;&quot;&gt;1&lt;/font&gt;" style="rounded=0;whiteSpace=wrap;html=1;fontFamily=Songti TC;fontSize=10;fillColor=#dae8fc;strokeColor=#6c8ebf;" parent="1" vertex="1">
          <mxGeometry x="227" y="1044" width="20" height="20" as="geometry" />
        </mxCell>
        <mxCell id="oUjWwWJiYIkfK6Kyxx1s-226" value="3" style="rounded=0;whiteSpace=wrap;html=1;fontFamily=Songti TC;" parent="1" vertex="1">
          <mxGeometry x="247" y="1044" width="20" height="20" as="geometry" />
        </mxCell>
        <mxCell id="oUjWwWJiYIkfK6Kyxx1s-227" value="2" style="rounded=0;whiteSpace=wrap;html=1;fontFamily=Songti TC;fillColor=#dae8fc;strokeColor=#6c8ebf;" parent="1" vertex="1">
          <mxGeometry x="227" y="1064" width="20" height="20" as="geometry" />
        </mxCell>
        <mxCell id="oUjWwWJiYIkfK6Kyxx1s-228" value="6" style="rounded=0;whiteSpace=wrap;html=1;fontFamily=Songti TC;" parent="1" vertex="1">
          <mxGeometry x="247" y="1064" width="20" height="20" as="geometry" />
        </mxCell>
        <mxCell id="oUjWwWJiYIkfK6Kyxx1s-229" value="6" style="rounded=0;whiteSpace=wrap;html=1;fontFamily=Songti TC;" parent="1" vertex="1">
          <mxGeometry x="267" y="1044" width="20" height="20" as="geometry" />
        </mxCell>
        <mxCell id="oUjWwWJiYIkfK6Kyxx1s-230" value="10" style="rounded=0;whiteSpace=wrap;html=1;fontFamily=Songti TC;" parent="1" vertex="1">
          <mxGeometry x="287" y="1044" width="20" height="20" as="geometry" />
        </mxCell>
        <mxCell id="oUjWwWJiYIkfK6Kyxx1s-231" value="12" style="rounded=0;whiteSpace=wrap;html=1;fontFamily=Songti TC;" parent="1" vertex="1">
          <mxGeometry x="267" y="1064" width="20" height="20" as="geometry" />
        </mxCell>
        <mxCell id="oUjWwWJiYIkfK6Kyxx1s-232" value="20" style="rounded=0;whiteSpace=wrap;html=1;fontFamily=Songti TC;" parent="1" vertex="1">
          <mxGeometry x="287" y="1064" width="20" height="20" as="geometry" />
        </mxCell>
        <mxCell id="oUjWwWJiYIkfK6Kyxx1s-233" value="3" style="rounded=0;whiteSpace=wrap;html=1;fontFamily=Songti TC;fillColor=#dae8fc;strokeColor=#6c8ebf;" parent="1" vertex="1">
          <mxGeometry x="227" y="1084" width="20" height="20" as="geometry" />
        </mxCell>
        <mxCell id="oUjWwWJiYIkfK6Kyxx1s-234" value="9" style="rounded=0;whiteSpace=wrap;html=1;fontFamily=Songti TC;" parent="1" vertex="1">
          <mxGeometry x="247" y="1084" width="20" height="20" as="geometry" />
        </mxCell>
        <mxCell id="oUjWwWJiYIkfK6Kyxx1s-235" value="4" style="rounded=0;whiteSpace=wrap;html=1;fontFamily=Songti TC;" parent="1" vertex="1">
          <mxGeometry x="227" y="1104" width="20" height="20" as="geometry" />
        </mxCell>
        <mxCell id="oUjWwWJiYIkfK6Kyxx1s-236" value="12" style="rounded=0;whiteSpace=wrap;html=1;fontFamily=Songti TC;" parent="1" vertex="1">
          <mxGeometry x="247" y="1104" width="20" height="20" as="geometry" />
        </mxCell>
        <mxCell id="oUjWwWJiYIkfK6Kyxx1s-237" value="18" style="rounded=0;whiteSpace=wrap;html=1;fontFamily=Songti TC;" parent="1" vertex="1">
          <mxGeometry x="267" y="1084" width="20" height="20" as="geometry" />
        </mxCell>
        <mxCell id="oUjWwWJiYIkfK6Kyxx1s-238" value="30" style="rounded=0;whiteSpace=wrap;html=1;fontFamily=Songti TC;" parent="1" vertex="1">
          <mxGeometry x="287" y="1084" width="20" height="20" as="geometry" />
        </mxCell>
        <mxCell id="oUjWwWJiYIkfK6Kyxx1s-239" value="24" style="rounded=0;whiteSpace=wrap;html=1;fontFamily=Songti TC;" parent="1" vertex="1">
          <mxGeometry x="267" y="1104" width="20" height="20" as="geometry" />
        </mxCell>
        <mxCell id="oUjWwWJiYIkfK6Kyxx1s-240" value="40" style="rounded=0;whiteSpace=wrap;html=1;fontFamily=Songti TC;" parent="1" vertex="1">
          <mxGeometry x="287" y="1104" width="20" height="20" as="geometry" />
        </mxCell>
        <mxCell id="oUjWwWJiYIkfK6Kyxx1s-241" value="&lt;font face=&quot;Songti TC&quot;&gt;S[3][1]&lt;/font&gt;" style="text;html=1;align=center;verticalAlign=middle;resizable=0;points=[];autosize=1;" parent="1" vertex="1">
          <mxGeometry x="242" y="1120" width="50" height="30" as="geometry" />
        </mxCell>
        <mxCell id="oUjWwWJiYIkfK6Kyxx1s-242" value="&lt;font style=&quot;font-size: 11px;&quot;&gt;1&lt;/font&gt;" style="rounded=0;whiteSpace=wrap;html=1;fontFamily=Songti TC;fontSize=10;fillColor=#d5e8d4;strokeColor=#82b366;" parent="1" vertex="1">
          <mxGeometry x="327" y="1044" width="20" height="20" as="geometry" />
        </mxCell>
        <mxCell id="oUjWwWJiYIkfK6Kyxx1s-243" value="3" style="rounded=0;whiteSpace=wrap;html=1;fontFamily=Songti TC;fillColor=#d5e8d4;strokeColor=#82b366;" parent="1" vertex="1">
          <mxGeometry x="347" y="1044" width="20" height="20" as="geometry" />
        </mxCell>
        <mxCell id="oUjWwWJiYIkfK6Kyxx1s-244" value="2" style="rounded=0;whiteSpace=wrap;html=1;fontFamily=Songti TC;" parent="1" vertex="1">
          <mxGeometry x="327" y="1064" width="20" height="20" as="geometry" />
        </mxCell>
        <mxCell id="oUjWwWJiYIkfK6Kyxx1s-245" value="6" style="rounded=0;whiteSpace=wrap;html=1;fontFamily=Songti TC;" parent="1" vertex="1">
          <mxGeometry x="347" y="1064" width="20" height="20" as="geometry" />
        </mxCell>
        <mxCell id="oUjWwWJiYIkfK6Kyxx1s-246" value="6" style="rounded=0;whiteSpace=wrap;html=1;fontFamily=Songti TC;fillColor=#d5e8d4;strokeColor=#82b366;" parent="1" vertex="1">
          <mxGeometry x="367" y="1044" width="20" height="20" as="geometry" />
        </mxCell>
        <mxCell id="oUjWwWJiYIkfK6Kyxx1s-247" value="10" style="rounded=0;whiteSpace=wrap;html=1;fontFamily=Songti TC;" parent="1" vertex="1">
          <mxGeometry x="387" y="1044" width="20" height="20" as="geometry" />
        </mxCell>
        <mxCell id="oUjWwWJiYIkfK6Kyxx1s-248" value="12" style="rounded=0;whiteSpace=wrap;html=1;fontFamily=Songti TC;" parent="1" vertex="1">
          <mxGeometry x="367" y="1064" width="20" height="20" as="geometry" />
        </mxCell>
        <mxCell id="oUjWwWJiYIkfK6Kyxx1s-249" value="20" style="rounded=0;whiteSpace=wrap;html=1;fontFamily=Songti TC;" parent="1" vertex="1">
          <mxGeometry x="387" y="1064" width="20" height="20" as="geometry" />
        </mxCell>
        <mxCell id="oUjWwWJiYIkfK6Kyxx1s-250" value="3" style="rounded=0;whiteSpace=wrap;html=1;fontFamily=Songti TC;" parent="1" vertex="1">
          <mxGeometry x="327" y="1084" width="20" height="20" as="geometry" />
        </mxCell>
        <mxCell id="oUjWwWJiYIkfK6Kyxx1s-251" value="9" style="rounded=0;whiteSpace=wrap;html=1;fontFamily=Songti TC;" parent="1" vertex="1">
          <mxGeometry x="347" y="1084" width="20" height="20" as="geometry" />
        </mxCell>
        <mxCell id="oUjWwWJiYIkfK6Kyxx1s-252" value="4" style="rounded=0;whiteSpace=wrap;html=1;fontFamily=Songti TC;" parent="1" vertex="1">
          <mxGeometry x="327" y="1104" width="20" height="20" as="geometry" />
        </mxCell>
        <mxCell id="oUjWwWJiYIkfK6Kyxx1s-253" value="12" style="rounded=0;whiteSpace=wrap;html=1;fontFamily=Songti TC;" parent="1" vertex="1">
          <mxGeometry x="347" y="1104" width="20" height="20" as="geometry" />
        </mxCell>
        <mxCell id="oUjWwWJiYIkfK6Kyxx1s-254" value="18" style="rounded=0;whiteSpace=wrap;html=1;fontFamily=Songti TC;" parent="1" vertex="1">
          <mxGeometry x="367" y="1084" width="20" height="20" as="geometry" />
        </mxCell>
        <mxCell id="oUjWwWJiYIkfK6Kyxx1s-255" value="30" style="rounded=0;whiteSpace=wrap;html=1;fontFamily=Songti TC;" parent="1" vertex="1">
          <mxGeometry x="387" y="1084" width="20" height="20" as="geometry" />
        </mxCell>
        <mxCell id="oUjWwWJiYIkfK6Kyxx1s-256" value="24" style="rounded=0;whiteSpace=wrap;html=1;fontFamily=Songti TC;" parent="1" vertex="1">
          <mxGeometry x="367" y="1104" width="20" height="20" as="geometry" />
        </mxCell>
        <mxCell id="oUjWwWJiYIkfK6Kyxx1s-257" value="40" style="rounded=0;whiteSpace=wrap;html=1;fontFamily=Songti TC;" parent="1" vertex="1">
          <mxGeometry x="387" y="1104" width="20" height="20" as="geometry" />
        </mxCell>
        <mxCell id="oUjWwWJiYIkfK6Kyxx1s-258" value="&lt;font face=&quot;Songti TC&quot;&gt;S[1][3]&lt;/font&gt;" style="text;html=1;align=center;verticalAlign=middle;resizable=0;points=[];autosize=1;" parent="1" vertex="1">
          <mxGeometry x="342" y="1120" width="50" height="30" as="geometry" />
        </mxCell>
        <mxCell id="oUjWwWJiYIkfK6Kyxx1s-259" value="&lt;font style=&quot;font-size: 11px;&quot;&gt;1&lt;/font&gt;" style="rounded=0;whiteSpace=wrap;html=1;fontFamily=Songti TC;fontSize=10;fillColor=#e1d5e7;strokeColor=#9673a6;" parent="1" vertex="1">
          <mxGeometry x="427" y="1044" width="20" height="20" as="geometry" />
        </mxCell>
        <mxCell id="oUjWwWJiYIkfK6Kyxx1s-260" value="3" style="rounded=0;whiteSpace=wrap;html=1;fontFamily=Songti TC;" parent="1" vertex="1">
          <mxGeometry x="447" y="1044" width="20" height="20" as="geometry" />
        </mxCell>
        <mxCell id="oUjWwWJiYIkfK6Kyxx1s-261" value="2" style="rounded=0;whiteSpace=wrap;html=1;fontFamily=Songti TC;" parent="1" vertex="1">
          <mxGeometry x="427" y="1064" width="20" height="20" as="geometry" />
        </mxCell>
        <mxCell id="oUjWwWJiYIkfK6Kyxx1s-262" value="6" style="rounded=0;whiteSpace=wrap;html=1;fontFamily=Songti TC;" parent="1" vertex="1">
          <mxGeometry x="447" y="1064" width="20" height="20" as="geometry" />
        </mxCell>
        <mxCell id="oUjWwWJiYIkfK6Kyxx1s-263" value="6" style="rounded=0;whiteSpace=wrap;html=1;fontFamily=Songti TC;" parent="1" vertex="1">
          <mxGeometry x="467" y="1044" width="20" height="20" as="geometry" />
        </mxCell>
        <mxCell id="oUjWwWJiYIkfK6Kyxx1s-264" value="10" style="rounded=0;whiteSpace=wrap;html=1;fontFamily=Songti TC;" parent="1" vertex="1">
          <mxGeometry x="487" y="1044" width="20" height="20" as="geometry" />
        </mxCell>
        <mxCell id="oUjWwWJiYIkfK6Kyxx1s-265" value="12" style="rounded=0;whiteSpace=wrap;html=1;fontFamily=Songti TC;" parent="1" vertex="1">
          <mxGeometry x="467" y="1064" width="20" height="20" as="geometry" />
        </mxCell>
        <mxCell id="oUjWwWJiYIkfK6Kyxx1s-266" value="20" style="rounded=0;whiteSpace=wrap;html=1;fontFamily=Songti TC;" parent="1" vertex="1">
          <mxGeometry x="487" y="1064" width="20" height="20" as="geometry" />
        </mxCell>
        <mxCell id="oUjWwWJiYIkfK6Kyxx1s-267" value="3" style="rounded=0;whiteSpace=wrap;html=1;fontFamily=Songti TC;" parent="1" vertex="1">
          <mxGeometry x="427" y="1084" width="20" height="20" as="geometry" />
        </mxCell>
        <mxCell id="oUjWwWJiYIkfK6Kyxx1s-268" value="9" style="rounded=0;whiteSpace=wrap;html=1;fontFamily=Songti TC;" parent="1" vertex="1">
          <mxGeometry x="447" y="1084" width="20" height="20" as="geometry" />
        </mxCell>
        <mxCell id="oUjWwWJiYIkfK6Kyxx1s-269" value="4" style="rounded=0;whiteSpace=wrap;html=1;fontFamily=Songti TC;" parent="1" vertex="1">
          <mxGeometry x="427" y="1104" width="20" height="20" as="geometry" />
        </mxCell>
        <mxCell id="oUjWwWJiYIkfK6Kyxx1s-270" value="12" style="rounded=0;whiteSpace=wrap;html=1;fontFamily=Songti TC;" parent="1" vertex="1">
          <mxGeometry x="447" y="1104" width="20" height="20" as="geometry" />
        </mxCell>
        <mxCell id="oUjWwWJiYIkfK6Kyxx1s-271" value="18" style="rounded=0;whiteSpace=wrap;html=1;fontFamily=Songti TC;" parent="1" vertex="1">
          <mxGeometry x="467" y="1084" width="20" height="20" as="geometry" />
        </mxCell>
        <mxCell id="oUjWwWJiYIkfK6Kyxx1s-272" value="30" style="rounded=0;whiteSpace=wrap;html=1;fontFamily=Songti TC;" parent="1" vertex="1">
          <mxGeometry x="487" y="1084" width="20" height="20" as="geometry" />
        </mxCell>
        <mxCell id="oUjWwWJiYIkfK6Kyxx1s-273" value="24" style="rounded=0;whiteSpace=wrap;html=1;fontFamily=Songti TC;" parent="1" vertex="1">
          <mxGeometry x="467" y="1104" width="20" height="20" as="geometry" />
        </mxCell>
        <mxCell id="oUjWwWJiYIkfK6Kyxx1s-274" value="40" style="rounded=0;whiteSpace=wrap;html=1;fontFamily=Songti TC;" parent="1" vertex="1">
          <mxGeometry x="487" y="1104" width="20" height="20" as="geometry" />
        </mxCell>
        <mxCell id="oUjWwWJiYIkfK6Kyxx1s-275" value="&lt;font face=&quot;Songti TC&quot;&gt;S[1][1]&lt;/font&gt;" style="text;html=1;align=center;verticalAlign=middle;resizable=0;points=[];autosize=1;" parent="1" vertex="1">
          <mxGeometry x="442" y="1120" width="50" height="30" as="geometry" />
        </mxCell>
        <mxCell id="oUjWwWJiYIkfK6Kyxx1s-276" value="" style="ellipse;whiteSpace=wrap;html=1;aspect=fixed;" parent="1" vertex="1">
          <mxGeometry as="geometry" />
        </mxCell>
        <mxCell id="oUjWwWJiYIkfK6Kyxx1s-277" value="&lt;font color=&quot;#ff0000&quot; style=&quot;font-size: 20px;&quot; face=&quot;Courier New&quot;&gt;.&lt;/font&gt;" style="text;html=1;align=center;verticalAlign=middle;resizable=0;points=[];autosize=1;strokeColor=none;fillColor=none;" parent="1" vertex="1">
          <mxGeometry x="307" y="1020" width="40" height="40" as="geometry" />
        </mxCell>
        <mxCell id="oUjWwWJiYIkfK6Kyxx1s-278" value="&lt;font color=&quot;#ff0000&quot; style=&quot;font-size: 20px;&quot; face=&quot;Courier New&quot;&gt;.&lt;/font&gt;" style="text;html=1;align=center;verticalAlign=middle;resizable=0;points=[];autosize=1;strokeColor=none;fillColor=none;" parent="1" vertex="1">
          <mxGeometry x="367" y="1040" width="40" height="40" as="geometry" />
        </mxCell>
        <mxCell id="oUjWwWJiYIkfK6Kyxx1s-279" value="&lt;font color=&quot;#ff0000&quot; style=&quot;font-size: 20px;&quot; face=&quot;Courier New&quot;&gt;.&lt;/font&gt;" style="text;html=1;align=center;verticalAlign=middle;resizable=0;points=[];autosize=1;strokeColor=none;fillColor=none;" parent="1" vertex="1">
          <mxGeometry x="167" y="1080" width="40" height="40" as="geometry" />
        </mxCell>
        <mxCell id="oUjWwWJiYIkfK6Kyxx1s-280" value="&lt;font color=&quot;#ff0000&quot; style=&quot;font-size: 20px;&quot; face=&quot;Courier New&quot;&gt;.&lt;/font&gt;" style="text;html=1;align=center;verticalAlign=middle;resizable=0;points=[];autosize=1;strokeColor=none;fillColor=none;" parent="1" vertex="1">
          <mxGeometry x="207" y="1020" width="40" height="40" as="geometry" />
        </mxCell>
        <mxCell id="oUjWwWJiYIkfK6Kyxx1s-281" value="&lt;font color=&quot;#ff0000&quot; style=&quot;font-size: 20px;&quot; face=&quot;Courier New&quot;&gt;.&lt;/font&gt;" style="text;html=1;align=center;verticalAlign=middle;resizable=0;points=[];autosize=1;strokeColor=none;fillColor=none;" parent="1" vertex="1">
          <mxGeometry x="427" y="1040" width="40" height="40" as="geometry" />
        </mxCell>
        <mxCell id="oUjWwWJiYIkfK6Kyxx1s-282" value="&lt;font color=&quot;#ff0000&quot; style=&quot;font-size: 20px;&quot; face=&quot;Courier New&quot;&gt;.&lt;/font&gt;" style="text;html=1;align=center;verticalAlign=middle;resizable=0;points=[];autosize=1;strokeColor=none;fillColor=none;" parent="1" vertex="1">
          <mxGeometry x="227" y="1080" width="40" height="40" as="geometry" />
        </mxCell>
        <mxCell id="oUjWwWJiYIkfK6Kyxx1s-283" value="&lt;font color=&quot;#ff0000&quot; style=&quot;font-size: 20px;&quot; face=&quot;Courier New&quot;&gt;.&lt;/font&gt;" style="text;html=1;align=center;verticalAlign=middle;resizable=0;points=[];autosize=1;strokeColor=none;fillColor=none;" parent="1" vertex="1">
          <mxGeometry x="407" y="1020" width="40" height="40" as="geometry" />
        </mxCell>
        <mxCell id="oUjWwWJiYIkfK6Kyxx1s-284" value="&lt;font color=&quot;#ff0000&quot; style=&quot;font-size: 20px;&quot; face=&quot;Courier New&quot;&gt;.&lt;/font&gt;" style="text;html=1;align=center;verticalAlign=middle;resizable=0;points=[];autosize=1;strokeColor=none;fillColor=none;" parent="1" vertex="1">
          <mxGeometry x="107" y="1020" width="40" height="40" as="geometry" />
        </mxCell>
        <mxCell id="oUjWwWJiYIkfK6Kyxx1s-285" value="1" style="rounded=0;whiteSpace=wrap;html=1;fontFamily=Songti TC;" parent="1" vertex="1">
          <mxGeometry x="427" y="1183" width="20" height="20" as="geometry" />
        </mxCell>
        <mxCell id="oUjWwWJiYIkfK6Kyxx1s-286" value="2" style="rounded=0;whiteSpace=wrap;html=1;fontFamily=Songti TC;" parent="1" vertex="1">
          <mxGeometry x="447" y="1183" width="20" height="20" as="geometry" />
        </mxCell>
        <mxCell id="oUjWwWJiYIkfK6Kyxx1s-287" value="1" style="rounded=0;whiteSpace=wrap;html=1;fontFamily=Songti TC;" parent="1" vertex="1">
          <mxGeometry x="427" y="1203" width="20" height="20" as="geometry" />
        </mxCell>
        <mxCell id="oUjWwWJiYIkfK6Kyxx1s-288" value="2" style="rounded=0;whiteSpace=wrap;html=1;fontFamily=Songti TC;" parent="1" vertex="1">
          <mxGeometry x="447" y="1203" width="20" height="20" as="geometry" />
        </mxCell>
        <mxCell id="oUjWwWJiYIkfK6Kyxx1s-289" value="3" style="rounded=0;whiteSpace=wrap;html=1;fontFamily=Songti TC;" parent="1" vertex="1">
          <mxGeometry x="467" y="1183" width="20" height="20" as="geometry" />
        </mxCell>
        <mxCell id="oUjWwWJiYIkfK6Kyxx1s-290" value="4" style="rounded=0;whiteSpace=wrap;html=1;fontFamily=Songti TC;" parent="1" vertex="1">
          <mxGeometry x="487" y="1183" width="20" height="20" as="geometry" />
        </mxCell>
        <mxCell id="oUjWwWJiYIkfK6Kyxx1s-291" value="3" style="rounded=0;whiteSpace=wrap;html=1;fontFamily=Songti TC;" parent="1" vertex="1">
          <mxGeometry x="467" y="1203" width="20" height="20" as="geometry" />
        </mxCell>
        <mxCell id="oUjWwWJiYIkfK6Kyxx1s-292" value="4" style="rounded=0;whiteSpace=wrap;html=1;fontFamily=Songti TC;" parent="1" vertex="1">
          <mxGeometry x="487" y="1203" width="20" height="20" as="geometry" />
        </mxCell>
        <mxCell id="oUjWwWJiYIkfK6Kyxx1s-293" value="1" style="rounded=0;whiteSpace=wrap;html=1;fontFamily=Songti TC;" parent="1" vertex="1">
          <mxGeometry x="427" y="1223" width="20" height="20" as="geometry" />
        </mxCell>
        <mxCell id="oUjWwWJiYIkfK6Kyxx1s-294" value="2" style="rounded=0;whiteSpace=wrap;html=1;fontFamily=Songti TC;" parent="1" vertex="1">
          <mxGeometry x="447" y="1223" width="20" height="20" as="geometry" />
        </mxCell>
        <mxCell id="oUjWwWJiYIkfK6Kyxx1s-295" value="1" style="rounded=0;whiteSpace=wrap;html=1;fontFamily=Songti TC;" parent="1" vertex="1">
          <mxGeometry x="427" y="1243" width="20" height="20" as="geometry" />
        </mxCell>
        <mxCell id="oUjWwWJiYIkfK6Kyxx1s-296" value="2" style="rounded=0;whiteSpace=wrap;html=1;fontFamily=Songti TC;" parent="1" vertex="1">
          <mxGeometry x="447" y="1243" width="20" height="20" as="geometry" />
        </mxCell>
        <mxCell id="oUjWwWJiYIkfK6Kyxx1s-297" value="3" style="rounded=0;whiteSpace=wrap;html=1;fontFamily=Songti TC;fillColor=#dae8fc;strokeColor=#6c8ebf;" parent="1" vertex="1">
          <mxGeometry x="467" y="1223" width="20" height="20" as="geometry" />
        </mxCell>
        <mxCell id="oUjWwWJiYIkfK6Kyxx1s-298" value="4" style="rounded=0;whiteSpace=wrap;html=1;fontFamily=Songti TC;" parent="1" vertex="1">
          <mxGeometry x="487" y="1223" width="20" height="20" as="geometry" />
        </mxCell>
        <mxCell id="oUjWwWJiYIkfK6Kyxx1s-299" value="3" style="rounded=0;whiteSpace=wrap;html=1;fontFamily=Songti TC;" parent="1" vertex="1">
          <mxGeometry x="467" y="1243" width="20" height="20" as="geometry" />
        </mxCell>
        <mxCell id="oUjWwWJiYIkfK6Kyxx1s-300" value="4" style="rounded=0;whiteSpace=wrap;html=1;fontFamily=Songti TC;" parent="1" vertex="1">
          <mxGeometry x="487" y="1243" width="20" height="20" as="geometry" />
        </mxCell>
        <mxCell id="oUjWwWJiYIkfK6Kyxx1s-317" value="&lt;font face=&quot;Songti TC&quot;&gt;a[3][3]&lt;/font&gt;" style="text;html=1;align=center;verticalAlign=middle;resizable=0;points=[];autosize=1;" parent="1" vertex="1">
          <mxGeometry x="441" y="1261" width="48" height="26" as="geometry" />
        </mxCell>
        <mxCell id="oUjWwWJiYIkfK6Kyxx1s-318" value="&lt;font face=&quot;Songti TC&quot;&gt;S[2][3]&lt;/font&gt;" style="text;html=1;align=center;verticalAlign=middle;resizable=0;points=[];autosize=1;" parent="1" vertex="1">
          <mxGeometry x="143" y="1261" width="48" height="26" as="geometry" />
        </mxCell>
        <mxCell id="oUjWwWJiYIkfK6Kyxx1s-335" value="&lt;font face=&quot;Songti TC&quot;&gt;S[3][2]&lt;/font&gt;" style="text;html=1;align=center;verticalAlign=middle;resizable=0;points=[];autosize=1;" parent="1" vertex="1">
          <mxGeometry x="243" y="1261" width="48" height="26" as="geometry" />
        </mxCell>
        <mxCell id="oUjWwWJiYIkfK6Kyxx1s-352" value="&lt;font face=&quot;Songti TC&quot;&gt;S[2][2]&lt;/font&gt;" style="text;html=1;align=center;verticalAlign=middle;resizable=0;points=[];autosize=1;" parent="1" vertex="1">
          <mxGeometry x="343" y="1261" width="48" height="26" as="geometry" />
        </mxCell>
        <mxCell id="oUjWwWJiYIkfK6Kyxx1s-370" value="&lt;font color=&quot;#ff0000&quot; style=&quot;font-size: 20px;&quot; face=&quot;Courier New&quot;&gt;.&lt;/font&gt;" style="text;html=1;align=center;verticalAlign=middle;resizable=0;points=[];autosize=1;movable=0;rotatable=0;deletable=0;editable=0;locked=1;connectable=0;" parent="1" vertex="1">
          <mxGeometry x="650" y="1915" width="40" height="40" as="geometry" />
        </mxCell>
        <mxCell id="oUjWwWJiYIkfK6Kyxx1s-373" value="&lt;font color=&quot;#ff0000&quot; style=&quot;font-size: 20px;&quot; face=&quot;Courier New&quot;&gt;.&lt;/font&gt;" style="text;html=1;align=center;verticalAlign=middle;resizable=0;points=[];autosize=1;movable=0;rotatable=0;deletable=0;editable=0;locked=1;connectable=0;" parent="1" vertex="1">
          <mxGeometry x="550" y="1935" width="40" height="40" as="geometry" />
        </mxCell>
        <mxCell id="oUjWwWJiYIkfK6Kyxx1s-376" value="&lt;font color=&quot;#ff0000&quot; style=&quot;font-size: 20px;&quot; face=&quot;Courier New&quot;&gt;.&lt;/font&gt;" style="text;html=1;align=center;verticalAlign=middle;resizable=0;points=[];autosize=1;movable=0;rotatable=0;deletable=0;editable=0;locked=1;connectable=0;" parent="1" vertex="1">
          <mxGeometry x="510" y="1875" width="40" height="40" as="geometry" />
        </mxCell>
        <mxCell id="oUjWwWJiYIkfK6Kyxx1s-377" value="&lt;font color=&quot;#ff0000&quot; style=&quot;font-size: 20px;&quot; face=&quot;Courier New&quot;&gt;.&lt;/font&gt;" style="text;html=1;align=center;verticalAlign=middle;resizable=0;points=[];autosize=1;movable=0;rotatable=0;deletable=0;editable=0;locked=1;connectable=0;" parent="1" vertex="1">
          <mxGeometry x="610" y="1875" width="40" height="40" as="geometry" />
        </mxCell>
        <mxCell id="oUjWwWJiYIkfK6Kyxx1s-395" value="&lt;font face=&quot;Songti TC&quot;&gt;S[3][3]&lt;/font&gt;" style="text;html=1;align=center;verticalAlign=middle;resizable=0;points=[];autosize=1;" parent="1" vertex="1">
          <mxGeometry x="42" y="1259" width="50" height="30" as="geometry" />
        </mxCell>
        <mxCell id="oUjWwWJiYIkfK6Kyxx1s-398" value="&lt;font color=&quot;#ff0000&quot; style=&quot;font-size: 20px;&quot; face=&quot;Courier New&quot;&gt;.&lt;/font&gt;" style="text;html=1;align=center;verticalAlign=middle;resizable=0;points=[];autosize=1;movable=0;rotatable=0;deletable=0;editable=0;locked=1;connectable=0;" parent="1" vertex="1">
          <mxGeometry x="410" y="1875" width="40" height="40" as="geometry" />
        </mxCell>
        <mxCell id="oUjWwWJiYIkfK6Kyxx1s-399" value="&lt;font color=&quot;#ff0000&quot; style=&quot;font-size: 20px;&quot; face=&quot;Courier New&quot;&gt;.&lt;/font&gt;" style="text;html=1;align=center;verticalAlign=middle;resizable=0;points=[];autosize=1;movable=0;rotatable=0;deletable=0;editable=0;locked=1;connectable=0;" parent="1" vertex="1">
          <mxGeometry x="470" y="1915" width="40" height="40" as="geometry" />
        </mxCell>
        <mxCell id="oUjWwWJiYIkfK6Kyxx1s-400" value="1" style="rounded=0;whiteSpace=wrap;html=1;fontFamily=Songti TC;fillColor=#dae8fc;strokeColor=#6c8ebf;" parent="1" vertex="1">
          <mxGeometry x="27" y="1183" width="20" height="20" as="geometry" />
        </mxCell>
        <mxCell id="oUjWwWJiYIkfK6Kyxx1s-401" value="2" style="rounded=0;whiteSpace=wrap;html=1;fontFamily=Songti TC;fillColor=#dae8fc;strokeColor=#6c8ebf;" parent="1" vertex="1">
          <mxGeometry x="47" y="1183" width="20" height="20" as="geometry" />
        </mxCell>
        <mxCell id="oUjWwWJiYIkfK6Kyxx1s-402" value="1" style="rounded=0;whiteSpace=wrap;html=1;fontFamily=Songti TC;fillColor=#dae8fc;strokeColor=#6c8ebf;" parent="1" vertex="1">
          <mxGeometry x="27" y="1203" width="20" height="20" as="geometry" />
        </mxCell>
        <mxCell id="oUjWwWJiYIkfK6Kyxx1s-403" value="2" style="rounded=0;whiteSpace=wrap;html=1;fontFamily=Songti TC;fillColor=#dae8fc;strokeColor=#6c8ebf;" parent="1" vertex="1">
          <mxGeometry x="47" y="1203" width="20" height="20" as="geometry" />
        </mxCell>
        <mxCell id="oUjWwWJiYIkfK6Kyxx1s-404" value="3" style="rounded=0;whiteSpace=wrap;html=1;fontFamily=Songti TC;fillColor=#dae8fc;strokeColor=#6c8ebf;" parent="1" vertex="1">
          <mxGeometry x="67" y="1183" width="20" height="20" as="geometry" />
        </mxCell>
        <mxCell id="oUjWwWJiYIkfK6Kyxx1s-405" value="4" style="rounded=0;whiteSpace=wrap;html=1;fontFamily=Songti TC;" parent="1" vertex="1">
          <mxGeometry x="87" y="1183" width="20" height="20" as="geometry" />
        </mxCell>
        <mxCell id="oUjWwWJiYIkfK6Kyxx1s-406" value="3" style="rounded=0;whiteSpace=wrap;html=1;fontFamily=Songti TC;fillColor=#dae8fc;strokeColor=#6c8ebf;" parent="1" vertex="1">
          <mxGeometry x="67" y="1203" width="20" height="20" as="geometry" />
        </mxCell>
        <mxCell id="oUjWwWJiYIkfK6Kyxx1s-407" value="4" style="rounded=0;whiteSpace=wrap;html=1;fontFamily=Songti TC;" parent="1" vertex="1">
          <mxGeometry x="87" y="1203" width="20" height="20" as="geometry" />
        </mxCell>
        <mxCell id="oUjWwWJiYIkfK6Kyxx1s-408" value="1" style="rounded=0;whiteSpace=wrap;html=1;fontFamily=Songti TC;fillColor=#dae8fc;strokeColor=#6c8ebf;" parent="1" vertex="1">
          <mxGeometry x="27" y="1223" width="20" height="20" as="geometry" />
        </mxCell>
        <mxCell id="oUjWwWJiYIkfK6Kyxx1s-409" value="2" style="rounded=0;whiteSpace=wrap;html=1;fontFamily=Songti TC;fillColor=#dae8fc;strokeColor=#6c8ebf;" parent="1" vertex="1">
          <mxGeometry x="47" y="1223" width="20" height="20" as="geometry" />
        </mxCell>
        <mxCell id="oUjWwWJiYIkfK6Kyxx1s-410" value="1" style="rounded=0;whiteSpace=wrap;html=1;fontFamily=Songti TC;" parent="1" vertex="1">
          <mxGeometry x="27" y="1243" width="20" height="20" as="geometry" />
        </mxCell>
        <mxCell id="oUjWwWJiYIkfK6Kyxx1s-411" value="2" style="rounded=0;whiteSpace=wrap;html=1;fontFamily=Songti TC;" parent="1" vertex="1">
          <mxGeometry x="47" y="1243" width="20" height="20" as="geometry" />
        </mxCell>
        <mxCell id="oUjWwWJiYIkfK6Kyxx1s-412" value="3" style="rounded=0;whiteSpace=wrap;html=1;fontFamily=Songti TC;fillColor=#dae8fc;strokeColor=#6c8ebf;" parent="1" vertex="1">
          <mxGeometry x="67" y="1223" width="20" height="20" as="geometry" />
        </mxCell>
        <mxCell id="oUjWwWJiYIkfK6Kyxx1s-413" value="4" style="rounded=0;whiteSpace=wrap;html=1;fontFamily=Songti TC;" parent="1" vertex="1">
          <mxGeometry x="87" y="1223" width="20" height="20" as="geometry" />
        </mxCell>
        <mxCell id="oUjWwWJiYIkfK6Kyxx1s-414" value="3" style="rounded=0;whiteSpace=wrap;html=1;fontFamily=Songti TC;" parent="1" vertex="1">
          <mxGeometry x="67" y="1243" width="20" height="20" as="geometry" />
        </mxCell>
        <mxCell id="oUjWwWJiYIkfK6Kyxx1s-415" value="4" style="rounded=0;whiteSpace=wrap;html=1;fontFamily=Songti TC;" parent="1" vertex="1">
          <mxGeometry x="87" y="1243" width="20" height="20" as="geometry" />
        </mxCell>
        <mxCell id="oUjWwWJiYIkfK6Kyxx1s-752" value="1" style="rounded=0;whiteSpace=wrap;html=1;fontFamily=Songti TC;fillColor=#dae8fc;strokeColor=#6c8ebf;" parent="1" vertex="1">
          <mxGeometry x="327" y="1334" width="20" height="20" as="geometry" />
        </mxCell>
        <mxCell id="oUjWwWJiYIkfK6Kyxx1s-753" value="2" style="rounded=0;whiteSpace=wrap;html=1;fontFamily=Songti TC;fillColor=#dae8fc;strokeColor=#6c8ebf;" parent="1" vertex="1">
          <mxGeometry x="347" y="1334" width="20" height="20" as="geometry" />
        </mxCell>
        <mxCell id="oUjWwWJiYIkfK6Kyxx1s-754" value="1" style="rounded=0;whiteSpace=wrap;html=1;fontFamily=Songti TC;" parent="1" vertex="1">
          <mxGeometry x="327" y="1354" width="20" height="20" as="geometry" />
        </mxCell>
        <mxCell id="oUjWwWJiYIkfK6Kyxx1s-755" value="2" style="rounded=0;whiteSpace=wrap;html=1;fontFamily=Songti TC;" parent="1" vertex="1">
          <mxGeometry x="347" y="1354" width="20" height="20" as="geometry" />
        </mxCell>
        <mxCell id="oUjWwWJiYIkfK6Kyxx1s-756" value="3" style="rounded=0;whiteSpace=wrap;html=1;fontFamily=Songti TC;fillColor=#dae8fc;strokeColor=#6c8ebf;" parent="1" vertex="1">
          <mxGeometry x="367" y="1334" width="20" height="20" as="geometry" />
        </mxCell>
        <mxCell id="oUjWwWJiYIkfK6Kyxx1s-757" value="4" style="rounded=0;whiteSpace=wrap;html=1;fontFamily=Songti TC;" parent="1" vertex="1">
          <mxGeometry x="387" y="1334" width="20" height="20" as="geometry" />
        </mxCell>
        <mxCell id="oUjWwWJiYIkfK6Kyxx1s-758" value="3" style="rounded=0;whiteSpace=wrap;html=1;fontFamily=Songti TC;" parent="1" vertex="1">
          <mxGeometry x="367" y="1354" width="20" height="20" as="geometry" />
        </mxCell>
        <mxCell id="oUjWwWJiYIkfK6Kyxx1s-759" value="4" style="rounded=0;whiteSpace=wrap;html=1;fontFamily=Songti TC;" parent="1" vertex="1">
          <mxGeometry x="387" y="1354" width="20" height="20" as="geometry" />
        </mxCell>
        <mxCell id="oUjWwWJiYIkfK6Kyxx1s-760" value="1" style="rounded=0;whiteSpace=wrap;html=1;fontFamily=Songti TC;" parent="1" vertex="1">
          <mxGeometry x="327" y="1374" width="20" height="20" as="geometry" />
        </mxCell>
        <mxCell id="oUjWwWJiYIkfK6Kyxx1s-761" value="2" style="rounded=0;whiteSpace=wrap;html=1;fontFamily=Songti TC;" parent="1" vertex="1">
          <mxGeometry x="347" y="1374" width="20" height="20" as="geometry" />
        </mxCell>
        <mxCell id="oUjWwWJiYIkfK6Kyxx1s-762" value="1" style="rounded=0;whiteSpace=wrap;html=1;fontFamily=Songti TC;" parent="1" vertex="1">
          <mxGeometry x="327" y="1394" width="20" height="20" as="geometry" />
        </mxCell>
        <mxCell id="oUjWwWJiYIkfK6Kyxx1s-763" value="2" style="rounded=0;whiteSpace=wrap;html=1;fontFamily=Songti TC;" parent="1" vertex="1">
          <mxGeometry x="347" y="1394" width="20" height="20" as="geometry" />
        </mxCell>
        <mxCell id="oUjWwWJiYIkfK6Kyxx1s-764" value="3" style="rounded=0;whiteSpace=wrap;html=1;fontFamily=Songti TC;" parent="1" vertex="1">
          <mxGeometry x="367" y="1374" width="20" height="20" as="geometry" />
        </mxCell>
        <mxCell id="oUjWwWJiYIkfK6Kyxx1s-765" value="4" style="rounded=0;whiteSpace=wrap;html=1;fontFamily=Songti TC;" parent="1" vertex="1">
          <mxGeometry x="387" y="1374" width="20" height="20" as="geometry" />
        </mxCell>
        <mxCell id="oUjWwWJiYIkfK6Kyxx1s-766" value="3" style="rounded=0;whiteSpace=wrap;html=1;fontFamily=Songti TC;" parent="1" vertex="1">
          <mxGeometry x="367" y="1394" width="20" height="20" as="geometry" />
        </mxCell>
        <mxCell id="oUjWwWJiYIkfK6Kyxx1s-767" value="4" style="rounded=0;whiteSpace=wrap;html=1;fontFamily=Songti TC;" parent="1" vertex="1">
          <mxGeometry x="387" y="1394" width="20" height="20" as="geometry" />
        </mxCell>
        <mxCell id="oUjWwWJiYIkfK6Kyxx1s-768" value="1" style="rounded=0;whiteSpace=wrap;html=1;fontFamily=Songti TC;fillColor=#fff2cc;strokeColor=#d6b656;" parent="1" vertex="1">
          <mxGeometry x="227" y="1334" width="20" height="20" as="geometry" />
        </mxCell>
        <mxCell id="oUjWwWJiYIkfK6Kyxx1s-769" value="2" style="rounded=0;whiteSpace=wrap;html=1;fontFamily=Songti TC;" parent="1" vertex="1">
          <mxGeometry x="247" y="1334" width="20" height="20" as="geometry" />
        </mxCell>
        <mxCell id="oUjWwWJiYIkfK6Kyxx1s-770" value="1" style="rounded=0;whiteSpace=wrap;html=1;fontFamily=Songti TC;fillColor=#fff2cc;strokeColor=#d6b656;" parent="1" vertex="1">
          <mxGeometry x="227" y="1354" width="20" height="20" as="geometry" />
        </mxCell>
        <mxCell id="oUjWwWJiYIkfK6Kyxx1s-771" value="2" style="rounded=0;whiteSpace=wrap;html=1;fontFamily=Songti TC;" parent="1" vertex="1">
          <mxGeometry x="247" y="1354" width="20" height="20" as="geometry" />
        </mxCell>
        <mxCell id="oUjWwWJiYIkfK6Kyxx1s-772" value="3" style="rounded=0;whiteSpace=wrap;html=1;fontFamily=Songti TC;" parent="1" vertex="1">
          <mxGeometry x="267" y="1334" width="20" height="20" as="geometry" />
        </mxCell>
        <mxCell id="oUjWwWJiYIkfK6Kyxx1s-773" value="4" style="rounded=0;whiteSpace=wrap;html=1;fontFamily=Songti TC;" parent="1" vertex="1">
          <mxGeometry x="287" y="1334" width="20" height="20" as="geometry" />
        </mxCell>
        <mxCell id="oUjWwWJiYIkfK6Kyxx1s-774" value="3" style="rounded=0;whiteSpace=wrap;html=1;fontFamily=Songti TC;" parent="1" vertex="1">
          <mxGeometry x="267" y="1354" width="20" height="20" as="geometry" />
        </mxCell>
        <mxCell id="oUjWwWJiYIkfK6Kyxx1s-775" value="4" style="rounded=0;whiteSpace=wrap;html=1;fontFamily=Songti TC;" parent="1" vertex="1">
          <mxGeometry x="287" y="1354" width="20" height="20" as="geometry" />
        </mxCell>
        <mxCell id="oUjWwWJiYIkfK6Kyxx1s-776" value="1" style="rounded=0;whiteSpace=wrap;html=1;fontFamily=Songti TC;fillColor=#fff2cc;strokeColor=#d6b656;" parent="1" vertex="1">
          <mxGeometry x="227" y="1374" width="20" height="20" as="geometry" />
        </mxCell>
        <mxCell id="oUjWwWJiYIkfK6Kyxx1s-777" value="2" style="rounded=0;whiteSpace=wrap;html=1;fontFamily=Songti TC;" parent="1" vertex="1">
          <mxGeometry x="247" y="1374" width="20" height="20" as="geometry" />
        </mxCell>
        <mxCell id="oUjWwWJiYIkfK6Kyxx1s-778" value="1" style="rounded=0;whiteSpace=wrap;html=1;fontFamily=Songti TC;" parent="1" vertex="1">
          <mxGeometry x="227" y="1394" width="20" height="20" as="geometry" />
        </mxCell>
        <mxCell id="oUjWwWJiYIkfK6Kyxx1s-779" value="2" style="rounded=0;whiteSpace=wrap;html=1;fontFamily=Songti TC;" parent="1" vertex="1">
          <mxGeometry x="247" y="1394" width="20" height="20" as="geometry" />
        </mxCell>
        <mxCell id="oUjWwWJiYIkfK6Kyxx1s-780" value="3" style="rounded=0;whiteSpace=wrap;html=1;fontFamily=Songti TC;" parent="1" vertex="1">
          <mxGeometry x="267" y="1374" width="20" height="20" as="geometry" />
        </mxCell>
        <mxCell id="oUjWwWJiYIkfK6Kyxx1s-781" value="4" style="rounded=0;whiteSpace=wrap;html=1;fontFamily=Songti TC;" parent="1" vertex="1">
          <mxGeometry x="287" y="1374" width="20" height="20" as="geometry" />
        </mxCell>
        <mxCell id="oUjWwWJiYIkfK6Kyxx1s-782" value="3" style="rounded=0;whiteSpace=wrap;html=1;fontFamily=Songti TC;" parent="1" vertex="1">
          <mxGeometry x="267" y="1394" width="20" height="20" as="geometry" />
        </mxCell>
        <mxCell id="oUjWwWJiYIkfK6Kyxx1s-783" value="4" style="rounded=0;whiteSpace=wrap;html=1;fontFamily=Songti TC;" parent="1" vertex="1">
          <mxGeometry x="287" y="1394" width="20" height="20" as="geometry" />
        </mxCell>
        <mxCell id="oUjWwWJiYIkfK6Kyxx1s-784" value="1" style="rounded=0;whiteSpace=wrap;html=1;fontFamily=Songti TC;fillColor=#f8cecc;strokeColor=#b85450;" parent="1" vertex="1">
          <mxGeometry x="127" y="1334" width="20" height="20" as="geometry" />
        </mxCell>
        <mxCell id="oUjWwWJiYIkfK6Kyxx1s-785" value="2" style="rounded=0;whiteSpace=wrap;html=1;fontFamily=Songti TC;fillColor=#f8cecc;strokeColor=#b85450;" parent="1" vertex="1">
          <mxGeometry x="147" y="1334" width="20" height="20" as="geometry" />
        </mxCell>
        <mxCell id="oUjWwWJiYIkfK6Kyxx1s-786" value="1" style="rounded=0;whiteSpace=wrap;html=1;fontFamily=Songti TC;fillColor=#f8cecc;strokeColor=#b85450;" parent="1" vertex="1">
          <mxGeometry x="127" y="1354" width="20" height="20" as="geometry" />
        </mxCell>
        <mxCell id="oUjWwWJiYIkfK6Kyxx1s-787" value="2" style="rounded=0;whiteSpace=wrap;html=1;fontFamily=Songti TC;fillColor=#f8cecc;strokeColor=#b85450;" parent="1" vertex="1">
          <mxGeometry x="147" y="1354" width="20" height="20" as="geometry" />
        </mxCell>
        <mxCell id="oUjWwWJiYIkfK6Kyxx1s-788" value="3" style="rounded=0;whiteSpace=wrap;html=1;fontFamily=Songti TC;fillColor=#f8cecc;strokeColor=#b85450;" parent="1" vertex="1">
          <mxGeometry x="167" y="1334" width="20" height="20" as="geometry" />
        </mxCell>
        <mxCell id="oUjWwWJiYIkfK6Kyxx1s-789" value="4" style="rounded=0;whiteSpace=wrap;html=1;fontFamily=Songti TC;" parent="1" vertex="1">
          <mxGeometry x="187" y="1334" width="20" height="20" as="geometry" />
        </mxCell>
        <mxCell id="oUjWwWJiYIkfK6Kyxx1s-790" value="3" style="rounded=0;whiteSpace=wrap;html=1;fontFamily=Songti TC;fillColor=#f8cecc;strokeColor=#b85450;" parent="1" vertex="1">
          <mxGeometry x="167" y="1354" width="20" height="20" as="geometry" />
        </mxCell>
        <mxCell id="oUjWwWJiYIkfK6Kyxx1s-791" value="4" style="rounded=0;whiteSpace=wrap;html=1;fontFamily=Songti TC;" parent="1" vertex="1">
          <mxGeometry x="187" y="1354" width="20" height="20" as="geometry" />
        </mxCell>
        <mxCell id="oUjWwWJiYIkfK6Kyxx1s-792" value="1" style="rounded=0;whiteSpace=wrap;html=1;fontFamily=Songti TC;fillColor=#f8cecc;strokeColor=#b85450;" parent="1" vertex="1">
          <mxGeometry x="127" y="1374" width="20" height="20" as="geometry" />
        </mxCell>
        <mxCell id="oUjWwWJiYIkfK6Kyxx1s-793" value="2" style="rounded=0;whiteSpace=wrap;html=1;fontFamily=Songti TC;fillColor=#f8cecc;strokeColor=#b85450;" parent="1" vertex="1">
          <mxGeometry x="147" y="1374" width="20" height="20" as="geometry" />
        </mxCell>
        <mxCell id="oUjWwWJiYIkfK6Kyxx1s-794" value="1" style="rounded=0;whiteSpace=wrap;html=1;fontFamily=Songti TC;" parent="1" vertex="1">
          <mxGeometry x="127" y="1394" width="20" height="20" as="geometry" />
        </mxCell>
        <mxCell id="oUjWwWJiYIkfK6Kyxx1s-795" value="2" style="rounded=0;whiteSpace=wrap;html=1;fontFamily=Songti TC;" parent="1" vertex="1">
          <mxGeometry x="147" y="1394" width="20" height="20" as="geometry" />
        </mxCell>
        <mxCell id="oUjWwWJiYIkfK6Kyxx1s-796" value="3" style="rounded=0;whiteSpace=wrap;html=1;fontFamily=Songti TC;fillColor=#f8cecc;strokeColor=#b85450;" parent="1" vertex="1">
          <mxGeometry x="167" y="1374" width="20" height="20" as="geometry" />
        </mxCell>
        <mxCell id="oUjWwWJiYIkfK6Kyxx1s-797" value="4" style="rounded=0;whiteSpace=wrap;html=1;fontFamily=Songti TC;" parent="1" vertex="1">
          <mxGeometry x="187" y="1374" width="20" height="20" as="geometry" />
        </mxCell>
        <mxCell id="oUjWwWJiYIkfK6Kyxx1s-798" value="3" style="rounded=0;whiteSpace=wrap;html=1;fontFamily=Songti TC;" parent="1" vertex="1">
          <mxGeometry x="167" y="1394" width="20" height="20" as="geometry" />
        </mxCell>
        <mxCell id="oUjWwWJiYIkfK6Kyxx1s-799" value="4" style="rounded=0;whiteSpace=wrap;html=1;fontFamily=Songti TC;" parent="1" vertex="1">
          <mxGeometry x="187" y="1394" width="20" height="20" as="geometry" />
        </mxCell>
        <mxCell id="oUjWwWJiYIkfK6Kyxx1s-800" value="1" style="rounded=0;whiteSpace=wrap;html=1;fontFamily=Songti TC;fillColor=#d5e8d4;strokeColor=#82b366;" parent="1" vertex="1">
          <mxGeometry x="427" y="1334" width="20" height="20" as="geometry" />
        </mxCell>
        <mxCell id="oUjWwWJiYIkfK6Kyxx1s-801" value="2" style="rounded=0;whiteSpace=wrap;html=1;fontFamily=Songti TC;" parent="1" vertex="1">
          <mxGeometry x="447" y="1334" width="20" height="20" as="geometry" />
        </mxCell>
        <mxCell id="oUjWwWJiYIkfK6Kyxx1s-802" value="1" style="rounded=0;whiteSpace=wrap;html=1;fontFamily=Songti TC;" parent="1" vertex="1">
          <mxGeometry x="427" y="1354" width="20" height="20" as="geometry" />
        </mxCell>
        <mxCell id="oUjWwWJiYIkfK6Kyxx1s-803" value="2" style="rounded=0;whiteSpace=wrap;html=1;fontFamily=Songti TC;" parent="1" vertex="1">
          <mxGeometry x="447" y="1354" width="20" height="20" as="geometry" />
        </mxCell>
        <mxCell id="oUjWwWJiYIkfK6Kyxx1s-804" value="3" style="rounded=0;whiteSpace=wrap;html=1;fontFamily=Songti TC;" parent="1" vertex="1">
          <mxGeometry x="467" y="1334" width="20" height="20" as="geometry" />
        </mxCell>
        <mxCell id="oUjWwWJiYIkfK6Kyxx1s-805" value="4" style="rounded=0;whiteSpace=wrap;html=1;fontFamily=Songti TC;" parent="1" vertex="1">
          <mxGeometry x="487" y="1334" width="20" height="20" as="geometry" />
        </mxCell>
        <mxCell id="oUjWwWJiYIkfK6Kyxx1s-806" value="3" style="rounded=0;whiteSpace=wrap;html=1;fontFamily=Songti TC;" parent="1" vertex="1">
          <mxGeometry x="467" y="1354" width="20" height="20" as="geometry" />
        </mxCell>
        <mxCell id="oUjWwWJiYIkfK6Kyxx1s-807" value="4" style="rounded=0;whiteSpace=wrap;html=1;fontFamily=Songti TC;" parent="1" vertex="1">
          <mxGeometry x="487" y="1354" width="20" height="20" as="geometry" />
        </mxCell>
        <mxCell id="oUjWwWJiYIkfK6Kyxx1s-808" value="1" style="rounded=0;whiteSpace=wrap;html=1;fontFamily=Songti TC;" parent="1" vertex="1">
          <mxGeometry x="427" y="1374" width="20" height="20" as="geometry" />
        </mxCell>
        <mxCell id="oUjWwWJiYIkfK6Kyxx1s-809" value="2" style="rounded=0;whiteSpace=wrap;html=1;fontFamily=Songti TC;" parent="1" vertex="1">
          <mxGeometry x="447" y="1374" width="20" height="20" as="geometry" />
        </mxCell>
        <mxCell id="oUjWwWJiYIkfK6Kyxx1s-810" value="1" style="rounded=0;whiteSpace=wrap;html=1;fontFamily=Songti TC;" parent="1" vertex="1">
          <mxGeometry x="427" y="1394" width="20" height="20" as="geometry" />
        </mxCell>
        <mxCell id="oUjWwWJiYIkfK6Kyxx1s-811" value="2" style="rounded=0;whiteSpace=wrap;html=1;fontFamily=Songti TC;" parent="1" vertex="1">
          <mxGeometry x="447" y="1394" width="20" height="20" as="geometry" />
        </mxCell>
        <mxCell id="oUjWwWJiYIkfK6Kyxx1s-812" value="3" style="rounded=0;whiteSpace=wrap;html=1;fontFamily=Songti TC;" parent="1" vertex="1">
          <mxGeometry x="467" y="1374" width="20" height="20" as="geometry" />
        </mxCell>
        <mxCell id="oUjWwWJiYIkfK6Kyxx1s-813" value="4" style="rounded=0;whiteSpace=wrap;html=1;fontFamily=Songti TC;" parent="1" vertex="1">
          <mxGeometry x="487" y="1374" width="20" height="20" as="geometry" />
        </mxCell>
        <mxCell id="oUjWwWJiYIkfK6Kyxx1s-814" value="3" style="rounded=0;whiteSpace=wrap;html=1;fontFamily=Songti TC;" parent="1" vertex="1">
          <mxGeometry x="467" y="1394" width="20" height="20" as="geometry" />
        </mxCell>
        <mxCell id="oUjWwWJiYIkfK6Kyxx1s-815" value="4" style="rounded=0;whiteSpace=wrap;html=1;fontFamily=Songti TC;" parent="1" vertex="1">
          <mxGeometry x="487" y="1394" width="20" height="20" as="geometry" />
        </mxCell>
        <mxCell id="oUjWwWJiYIkfK6Kyxx1s-816" value="&lt;font face=&quot;Songti TC&quot;&gt;S[1][1]&lt;/font&gt;" style="text;html=1;align=center;verticalAlign=middle;resizable=0;points=[];autosize=1;" parent="1" vertex="1">
          <mxGeometry x="441" y="1412" width="48" height="26" as="geometry" />
        </mxCell>
        <mxCell id="oUjWwWJiYIkfK6Kyxx1s-817" value="&lt;font face=&quot;Songti TC&quot;&gt;S[3][3]&lt;/font&gt;" style="text;html=1;align=center;verticalAlign=middle;resizable=0;points=[];autosize=1;" parent="1" vertex="1">
          <mxGeometry x="143" y="1412" width="48" height="26" as="geometry" />
        </mxCell>
        <mxCell id="oUjWwWJiYIkfK6Kyxx1s-818" value="&lt;font face=&quot;Songti TC&quot;&gt;S[3][1]&lt;/font&gt;" style="text;html=1;align=center;verticalAlign=middle;resizable=0;points=[];autosize=1;" parent="1" vertex="1">
          <mxGeometry x="243" y="1412" width="48" height="26" as="geometry" />
        </mxCell>
        <mxCell id="oUjWwWJiYIkfK6Kyxx1s-819" value="&lt;font face=&quot;Songti TC&quot;&gt;S[1][3]&lt;/font&gt;" style="text;html=1;align=center;verticalAlign=middle;resizable=0;points=[];autosize=1;" parent="1" vertex="1">
          <mxGeometry x="343" y="1412" width="48" height="26" as="geometry" />
        </mxCell>
        <mxCell id="oUjWwWJiYIkfK6Kyxx1s-820" value="&lt;font color=&quot;#ff0000&quot; style=&quot;font-size: 20px;&quot; face=&quot;Courier New&quot;&gt;.&lt;/font&gt;" style="text;html=1;align=center;verticalAlign=middle;resizable=0;points=[];autosize=1;movable=0;rotatable=0;deletable=0;editable=0;locked=1;connectable=0;" parent="1" vertex="1">
          <mxGeometry x="670" y="1935" width="40" height="40" as="geometry" />
        </mxCell>
        <mxCell id="oUjWwWJiYIkfK6Kyxx1s-821" value="&lt;font color=&quot;#ff0000&quot; style=&quot;font-size: 20px;&quot; face=&quot;Courier New&quot;&gt;.&lt;/font&gt;" style="text;html=1;align=center;verticalAlign=middle;resizable=0;points=[];autosize=1;movable=0;rotatable=0;deletable=0;editable=0;locked=1;connectable=0;" parent="1" vertex="1">
          <mxGeometry x="570" y="1955" width="40" height="40" as="geometry" />
        </mxCell>
        <mxCell id="oUjWwWJiYIkfK6Kyxx1s-822" value="&lt;font face=&quot;Songti TC&quot;&gt;a[1][1]~a[3][3]&lt;/font&gt;" style="text;html=1;align=center;verticalAlign=middle;resizable=0;points=[];autosize=1;" parent="1" vertex="1">
          <mxGeometry x="24" y="1412" width="87" height="26" as="geometry" />
        </mxCell>
        <mxCell id="oUjWwWJiYIkfK6Kyxx1s-823" value="&lt;font color=&quot;#ff0000&quot; style=&quot;font-size: 20px;&quot; face=&quot;Courier New&quot;&gt;.&lt;/font&gt;" style="text;html=1;align=center;verticalAlign=middle;resizable=1;points=[];autosize=1;movable=1;rotatable=1;deletable=1;editable=1;locked=0;connectable=1;" parent="1" vertex="1">
          <mxGeometry x="191" y="1254" width="40" height="40" as="geometry" />
        </mxCell>
        <mxCell id="oUjWwWJiYIkfK6Kyxx1s-824" value="1" style="rounded=0;whiteSpace=wrap;html=1;fontFamily=Songti TC;" parent="1" vertex="1">
          <mxGeometry x="27" y="1334" width="20" height="20" as="geometry" />
        </mxCell>
        <mxCell id="oUjWwWJiYIkfK6Kyxx1s-825" value="2" style="rounded=0;whiteSpace=wrap;html=1;fontFamily=Songti TC;" parent="1" vertex="1">
          <mxGeometry x="47" y="1334" width="20" height="20" as="geometry" />
        </mxCell>
        <mxCell id="oUjWwWJiYIkfK6Kyxx1s-826" value="1" style="rounded=0;whiteSpace=wrap;html=1;fontFamily=Songti TC;" parent="1" vertex="1">
          <mxGeometry x="27" y="1354" width="20" height="20" as="geometry" />
        </mxCell>
        <mxCell id="oUjWwWJiYIkfK6Kyxx1s-827" value="2" style="rounded=0;whiteSpace=wrap;html=1;fontFamily=Songti TC;fillColor=#dae8fc;strokeColor=#6c8ebf;" parent="1" vertex="1">
          <mxGeometry x="47" y="1354" width="20" height="20" as="geometry" />
        </mxCell>
        <mxCell id="oUjWwWJiYIkfK6Kyxx1s-828" value="3" style="rounded=0;whiteSpace=wrap;html=1;fontFamily=Songti TC;" parent="1" vertex="1">
          <mxGeometry x="67" y="1334" width="20" height="20" as="geometry" />
        </mxCell>
        <mxCell id="oUjWwWJiYIkfK6Kyxx1s-829" value="4" style="rounded=0;whiteSpace=wrap;html=1;fontFamily=Songti TC;" parent="1" vertex="1">
          <mxGeometry x="87" y="1334" width="20" height="20" as="geometry" />
        </mxCell>
        <mxCell id="oUjWwWJiYIkfK6Kyxx1s-830" value="3" style="rounded=0;whiteSpace=wrap;html=1;fontFamily=Songti TC;fillColor=#dae8fc;strokeColor=#6c8ebf;" parent="1" vertex="1">
          <mxGeometry x="67" y="1354" width="20" height="20" as="geometry" />
        </mxCell>
        <mxCell id="oUjWwWJiYIkfK6Kyxx1s-831" value="4" style="rounded=0;whiteSpace=wrap;html=1;fontFamily=Songti TC;" parent="1" vertex="1">
          <mxGeometry x="87" y="1354" width="20" height="20" as="geometry" />
        </mxCell>
        <mxCell id="oUjWwWJiYIkfK6Kyxx1s-832" value="1" style="rounded=0;whiteSpace=wrap;html=1;fontFamily=Songti TC;" parent="1" vertex="1">
          <mxGeometry x="27" y="1374" width="20" height="20" as="geometry" />
        </mxCell>
        <mxCell id="oUjWwWJiYIkfK6Kyxx1s-833" value="2" style="rounded=0;whiteSpace=wrap;html=1;fontFamily=Songti TC;fillColor=#dae8fc;strokeColor=#6c8ebf;" parent="1" vertex="1">
          <mxGeometry x="47" y="1374" width="20" height="20" as="geometry" />
        </mxCell>
        <mxCell id="oUjWwWJiYIkfK6Kyxx1s-834" value="1" style="rounded=0;whiteSpace=wrap;html=1;fontFamily=Songti TC;" parent="1" vertex="1">
          <mxGeometry x="27" y="1394" width="20" height="20" as="geometry" />
        </mxCell>
        <mxCell id="oUjWwWJiYIkfK6Kyxx1s-835" value="2" style="rounded=0;whiteSpace=wrap;html=1;fontFamily=Songti TC;" parent="1" vertex="1">
          <mxGeometry x="47" y="1394" width="20" height="20" as="geometry" />
        </mxCell>
        <mxCell id="oUjWwWJiYIkfK6Kyxx1s-836" value="3" style="rounded=0;whiteSpace=wrap;html=1;fontFamily=Songti TC;fillColor=#dae8fc;strokeColor=#6c8ebf;" parent="1" vertex="1">
          <mxGeometry x="67" y="1374" width="20" height="20" as="geometry" />
        </mxCell>
        <mxCell id="oUjWwWJiYIkfK6Kyxx1s-837" value="4" style="rounded=0;whiteSpace=wrap;html=1;fontFamily=Songti TC;" parent="1" vertex="1">
          <mxGeometry x="87" y="1374" width="20" height="20" as="geometry" />
        </mxCell>
        <mxCell id="oUjWwWJiYIkfK6Kyxx1s-838" value="3" style="rounded=0;whiteSpace=wrap;html=1;fontFamily=Songti TC;" parent="1" vertex="1">
          <mxGeometry x="67" y="1394" width="20" height="20" as="geometry" />
        </mxCell>
        <mxCell id="oUjWwWJiYIkfK6Kyxx1s-839" value="4" style="rounded=0;whiteSpace=wrap;html=1;fontFamily=Songti TC;" parent="1" vertex="1">
          <mxGeometry x="87" y="1394" width="20" height="20" as="geometry" />
        </mxCell>
        <mxCell id="oUjWwWJiYIkfK6Kyxx1s-844" value="&lt;font color=&quot;#ffffff&quot; face=&quot;Courier New&quot;&gt;3,3&lt;/font&gt;" style="rounded=0;whiteSpace=wrap;html=1;fontFamily=Songti TC;fillColor=#000000;opacity=50;" parent="1" vertex="1">
          <mxGeometry x="175.5" y="1386" width="23" height="14" as="geometry" />
        </mxCell>
        <mxCell id="oUjWwWJiYIkfK6Kyxx1s-845" value="&lt;font color=&quot;#ffffff&quot; face=&quot;Courier New&quot;&gt;3,1&lt;/font&gt;" style="rounded=0;whiteSpace=wrap;html=1;fontFamily=Songti TC;fillColor=#000000;opacity=50;" parent="1" vertex="1">
          <mxGeometry x="237" y="1386" width="23" height="14" as="geometry" />
        </mxCell>
        <mxCell id="oUjWwWJiYIkfK6Kyxx1s-846" value="&lt;font color=&quot;#ffffff&quot; face=&quot;Courier New&quot;&gt;1,3&lt;/font&gt;" style="rounded=0;whiteSpace=wrap;html=1;fontFamily=Songti TC;fillColor=#000000;opacity=50;" parent="1" vertex="1">
          <mxGeometry x="375.5" y="1345" width="23" height="14" as="geometry" />
        </mxCell>
        <mxCell id="oUjWwWJiYIkfK6Kyxx1s-847" value="&lt;font color=&quot;#ffffff&quot; face=&quot;Courier New&quot;&gt;1,1&lt;/font&gt;" style="rounded=0;whiteSpace=wrap;html=1;fontFamily=Songti TC;fillColor=#000000;opacity=50;" parent="1" vertex="1">
          <mxGeometry x="437" y="1348" width="23" height="14" as="geometry" />
        </mxCell>
        <mxCell id="oUjWwWJiYIkfK6Kyxx1s-848" value="&lt;font color=&quot;#ffffff&quot; face=&quot;Courier New&quot;&gt;3,3&lt;/font&gt;" style="rounded=0;whiteSpace=wrap;html=1;fontFamily=Songti TC;fillColor=#000000;opacity=50;" parent="1" vertex="1">
          <mxGeometry x="74" y="1386" width="23" height="14" as="geometry" />
        </mxCell>
        <mxCell id="oUjWwWJiYIkfK6Kyxx1s-849" value="&lt;font color=&quot;#ffffff&quot; face=&quot;Courier New&quot;&gt;1,1&lt;/font&gt;" style="rounded=0;whiteSpace=wrap;html=1;fontFamily=Songti TC;fillColor=#000000;opacity=50;" parent="1" vertex="1">
          <mxGeometry x="36" y="1348" width="23" height="14" as="geometry" />
        </mxCell>
        <mxCell id="GnZqrN5t43sFXC09FRVO-1" value="1" style="rounded=0;whiteSpace=wrap;html=1;fontFamily=Songti TC;fontColor=none;noLabel=1;" vertex="1" parent="1">
          <mxGeometry x="330" y="1527" width="20" height="20" as="geometry" />
        </mxCell>
        <mxCell id="GnZqrN5t43sFXC09FRVO-2" value="2" style="rounded=0;whiteSpace=wrap;html=1;fontFamily=Songti TC;fontColor=none;noLabel=1;" vertex="1" parent="1">
          <mxGeometry x="350" y="1527" width="20" height="20" as="geometry" />
        </mxCell>
        <mxCell id="GnZqrN5t43sFXC09FRVO-3" value="1" style="rounded=0;whiteSpace=wrap;html=1;fontFamily=Songti TC;fontColor=none;noLabel=1;" vertex="1" parent="1">
          <mxGeometry x="330" y="1547" width="20" height="20" as="geometry" />
        </mxCell>
        <mxCell id="GnZqrN5t43sFXC09FRVO-4" value="2" style="rounded=0;whiteSpace=wrap;html=1;fontFamily=Songti TC;fontColor=none;noLabel=1;" vertex="1" parent="1">
          <mxGeometry x="350" y="1547" width="20" height="20" as="geometry" />
        </mxCell>
        <mxCell id="GnZqrN5t43sFXC09FRVO-5" value="3" style="rounded=0;whiteSpace=wrap;html=1;fontFamily=Songti TC;fontColor=none;noLabel=1;" vertex="1" parent="1">
          <mxGeometry x="370" y="1527" width="20" height="20" as="geometry" />
        </mxCell>
        <mxCell id="GnZqrN5t43sFXC09FRVO-6" value="4" style="rounded=0;whiteSpace=wrap;html=1;fontFamily=Songti TC;fillColor=#dae8fc;strokeColor=#6c8ebf;fontColor=none;noLabel=1;" vertex="1" parent="1">
          <mxGeometry x="390" y="1527" width="20" height="20" as="geometry" />
        </mxCell>
        <mxCell id="GnZqrN5t43sFXC09FRVO-7" value="3" style="rounded=0;whiteSpace=wrap;html=1;fontFamily=Songti TC;fontColor=none;noLabel=1;" vertex="1" parent="1">
          <mxGeometry x="370" y="1547" width="20" height="20" as="geometry" />
        </mxCell>
        <mxCell id="GnZqrN5t43sFXC09FRVO-8" value="4" style="rounded=0;whiteSpace=wrap;html=1;fontFamily=Songti TC;fillColor=#dae8fc;strokeColor=#6c8ebf;fontColor=none;noLabel=1;" vertex="1" parent="1">
          <mxGeometry x="390" y="1547" width="20" height="20" as="geometry" />
        </mxCell>
        <mxCell id="GnZqrN5t43sFXC09FRVO-9" value="1" style="rounded=0;whiteSpace=wrap;html=1;fontFamily=Songti TC;fontColor=none;noLabel=1;" vertex="1" parent="1">
          <mxGeometry x="330" y="1567" width="20" height="20" as="geometry" />
        </mxCell>
        <mxCell id="GnZqrN5t43sFXC09FRVO-10" value="2" style="rounded=0;whiteSpace=wrap;html=1;fontFamily=Songti TC;fontColor=none;noLabel=1;" vertex="1" parent="1">
          <mxGeometry x="350" y="1567" width="20" height="20" as="geometry" />
        </mxCell>
        <mxCell id="GnZqrN5t43sFXC09FRVO-11" value="1" style="rounded=0;whiteSpace=wrap;html=1;fontFamily=Songti TC;fontColor=none;noLabel=1;" vertex="1" parent="1">
          <mxGeometry x="330" y="1587" width="20" height="20" as="geometry" />
        </mxCell>
        <mxCell id="GnZqrN5t43sFXC09FRVO-12" value="2" style="rounded=0;whiteSpace=wrap;html=1;fontFamily=Songti TC;fontColor=none;noLabel=1;" vertex="1" parent="1">
          <mxGeometry x="350" y="1587" width="20" height="20" as="geometry" />
        </mxCell>
        <mxCell id="GnZqrN5t43sFXC09FRVO-13" value="3" style="rounded=0;whiteSpace=wrap;html=1;fontFamily=Songti TC;fontColor=none;noLabel=1;" vertex="1" parent="1">
          <mxGeometry x="370" y="1567" width="20" height="20" as="geometry" />
        </mxCell>
        <mxCell id="GnZqrN5t43sFXC09FRVO-14" value="4" style="rounded=0;whiteSpace=wrap;html=1;fontFamily=Songti TC;fillColor=#dae8fc;strokeColor=#6c8ebf;fontColor=none;noLabel=1;" vertex="1" parent="1">
          <mxGeometry x="390" y="1567" width="20" height="20" as="geometry" />
        </mxCell>
        <mxCell id="GnZqrN5t43sFXC09FRVO-15" value="3" style="rounded=0;whiteSpace=wrap;html=1;fontFamily=Songti TC;fontColor=none;noLabel=1;" vertex="1" parent="1">
          <mxGeometry x="370" y="1587" width="20" height="20" as="geometry" />
        </mxCell>
        <mxCell id="GnZqrN5t43sFXC09FRVO-16" value="4" style="rounded=0;whiteSpace=wrap;html=1;fontFamily=Songti TC;fontColor=none;noLabel=1;" vertex="1" parent="1">
          <mxGeometry x="390" y="1587" width="20" height="20" as="geometry" />
        </mxCell>
        <mxCell id="GnZqrN5t43sFXC09FRVO-17" value="1" style="rounded=0;whiteSpace=wrap;html=1;fontFamily=Songti TC;fontColor=none;noLabel=1;" vertex="1" parent="1">
          <mxGeometry x="230" y="1527" width="20" height="20" as="geometry" />
        </mxCell>
        <mxCell id="GnZqrN5t43sFXC09FRVO-18" value="2" style="rounded=0;whiteSpace=wrap;html=1;fontFamily=Songti TC;fontColor=none;noLabel=1;" vertex="1" parent="1">
          <mxGeometry x="250" y="1527" width="20" height="20" as="geometry" />
        </mxCell>
        <mxCell id="GnZqrN5t43sFXC09FRVO-19" value="1" style="rounded=0;whiteSpace=wrap;html=1;fontFamily=Songti TC;fontColor=none;noLabel=1;" vertex="1" parent="1">
          <mxGeometry x="230" y="1547" width="20" height="20" as="geometry" />
        </mxCell>
        <mxCell id="GnZqrN5t43sFXC09FRVO-20" value="2" style="rounded=0;whiteSpace=wrap;html=1;fontFamily=Songti TC;fontColor=none;noLabel=1;" vertex="1" parent="1">
          <mxGeometry x="250" y="1547" width="20" height="20" as="geometry" />
        </mxCell>
        <mxCell id="GnZqrN5t43sFXC09FRVO-21" value="3" style="rounded=0;whiteSpace=wrap;html=1;fontFamily=Songti TC;fontColor=none;noLabel=1;" vertex="1" parent="1">
          <mxGeometry x="270" y="1527" width="20" height="20" as="geometry" />
        </mxCell>
        <mxCell id="GnZqrN5t43sFXC09FRVO-22" value="4" style="rounded=0;whiteSpace=wrap;html=1;fontFamily=Songti TC;fontColor=none;noLabel=1;" vertex="1" parent="1">
          <mxGeometry x="290" y="1527" width="20" height="20" as="geometry" />
        </mxCell>
        <mxCell id="GnZqrN5t43sFXC09FRVO-23" value="3" style="rounded=0;whiteSpace=wrap;html=1;fontFamily=Songti TC;fontColor=none;noLabel=1;" vertex="1" parent="1">
          <mxGeometry x="270" y="1547" width="20" height="20" as="geometry" />
        </mxCell>
        <mxCell id="GnZqrN5t43sFXC09FRVO-24" value="4" style="rounded=0;whiteSpace=wrap;html=1;fontFamily=Songti TC;fontColor=none;noLabel=1;" vertex="1" parent="1">
          <mxGeometry x="290" y="1547" width="20" height="20" as="geometry" />
        </mxCell>
        <mxCell id="GnZqrN5t43sFXC09FRVO-25" value="1" style="rounded=0;whiteSpace=wrap;html=1;fontFamily=Songti TC;fontColor=none;noLabel=1;" vertex="1" parent="1">
          <mxGeometry x="230" y="1567" width="20" height="20" as="geometry" />
        </mxCell>
        <mxCell id="GnZqrN5t43sFXC09FRVO-26" value="2" style="rounded=0;whiteSpace=wrap;html=1;fontFamily=Songti TC;fontColor=none;noLabel=1;" vertex="1" parent="1">
          <mxGeometry x="250" y="1567" width="20" height="20" as="geometry" />
        </mxCell>
        <mxCell id="GnZqrN5t43sFXC09FRVO-27" value="1" style="rounded=0;whiteSpace=wrap;html=1;fontFamily=Songti TC;fontColor=none;noLabel=1;" vertex="1" parent="1">
          <mxGeometry x="230" y="1587" width="20" height="20" as="geometry" />
        </mxCell>
        <mxCell id="GnZqrN5t43sFXC09FRVO-28" value="2" style="rounded=0;whiteSpace=wrap;html=1;fontFamily=Songti TC;fillColor=#fff2cc;strokeColor=#d6b656;fontColor=none;noLabel=1;" vertex="1" parent="1">
          <mxGeometry x="250" y="1587" width="20" height="20" as="geometry" />
        </mxCell>
        <mxCell id="GnZqrN5t43sFXC09FRVO-29" value="3" style="rounded=0;whiteSpace=wrap;html=1;fontFamily=Songti TC;fontColor=none;noLabel=1;" vertex="1" parent="1">
          <mxGeometry x="270" y="1567" width="20" height="20" as="geometry" />
        </mxCell>
        <mxCell id="GnZqrN5t43sFXC09FRVO-30" value="4" style="rounded=0;whiteSpace=wrap;html=1;fontFamily=Songti TC;fontColor=none;noLabel=1;" vertex="1" parent="1">
          <mxGeometry x="290" y="1567" width="20" height="20" as="geometry" />
        </mxCell>
        <mxCell id="GnZqrN5t43sFXC09FRVO-31" value="3" style="rounded=0;whiteSpace=wrap;html=1;fontFamily=Songti TC;fillColor=#fff2cc;strokeColor=#d6b656;fontColor=none;noLabel=1;" vertex="1" parent="1">
          <mxGeometry x="270" y="1587" width="20" height="20" as="geometry" />
        </mxCell>
        <mxCell id="GnZqrN5t43sFXC09FRVO-32" value="4" style="rounded=0;whiteSpace=wrap;html=1;fontFamily=Songti TC;fillColor=#fff2cc;strokeColor=#d6b656;fontColor=none;noLabel=1;" vertex="1" parent="1">
          <mxGeometry x="290" y="1587" width="20" height="20" as="geometry" />
        </mxCell>
        <mxCell id="GnZqrN5t43sFXC09FRVO-33" value="1" style="rounded=0;whiteSpace=wrap;html=1;fontFamily=Songti TC;fontColor=none;noLabel=1;" vertex="1" parent="1">
          <mxGeometry x="130" y="1527" width="20" height="20" as="geometry" />
        </mxCell>
        <mxCell id="GnZqrN5t43sFXC09FRVO-34" value="2" style="rounded=0;whiteSpace=wrap;html=1;fontFamily=Songti TC;fontColor=none;noLabel=1;" vertex="1" parent="1">
          <mxGeometry x="150" y="1527" width="20" height="20" as="geometry" />
        </mxCell>
        <mxCell id="GnZqrN5t43sFXC09FRVO-35" value="1" style="rounded=0;whiteSpace=wrap;html=1;fontFamily=Songti TC;fontColor=none;noLabel=1;" vertex="1" parent="1">
          <mxGeometry x="130" y="1547" width="20" height="20" as="geometry" />
        </mxCell>
        <mxCell id="GnZqrN5t43sFXC09FRVO-36" value="2" style="rounded=0;whiteSpace=wrap;html=1;fontFamily=Songti TC;fillColor=#f8cecc;strokeColor=#b85450;fontColor=none;noLabel=1;" vertex="1" parent="1">
          <mxGeometry x="150" y="1547" width="20" height="20" as="geometry" />
        </mxCell>
        <mxCell id="GnZqrN5t43sFXC09FRVO-37" value="3" style="rounded=0;whiteSpace=wrap;html=1;fontFamily=Songti TC;fontColor=none;noLabel=1;" vertex="1" parent="1">
          <mxGeometry x="170" y="1527" width="20" height="20" as="geometry" />
        </mxCell>
        <mxCell id="GnZqrN5t43sFXC09FRVO-38" value="4" style="rounded=0;whiteSpace=wrap;html=1;fontFamily=Songti TC;fontColor=none;noLabel=1;" vertex="1" parent="1">
          <mxGeometry x="190" y="1527" width="20" height="20" as="geometry" />
        </mxCell>
        <mxCell id="GnZqrN5t43sFXC09FRVO-39" value="3" style="rounded=0;whiteSpace=wrap;html=1;fontFamily=Songti TC;fillColor=#f8cecc;strokeColor=#b85450;fontColor=none;noLabel=1;" vertex="1" parent="1">
          <mxGeometry x="170" y="1547" width="20" height="20" as="geometry" />
        </mxCell>
        <mxCell id="GnZqrN5t43sFXC09FRVO-40" value="4" style="rounded=0;whiteSpace=wrap;html=1;fontFamily=Songti TC;fillColor=#f8cecc;strokeColor=#b85450;fontColor=none;noLabel=1;" vertex="1" parent="1">
          <mxGeometry x="190" y="1547" width="20" height="20" as="geometry" />
        </mxCell>
        <mxCell id="GnZqrN5t43sFXC09FRVO-41" value="1" style="rounded=0;whiteSpace=wrap;html=1;fontFamily=Songti TC;fontColor=none;noLabel=1;" vertex="1" parent="1">
          <mxGeometry x="130" y="1567" width="20" height="20" as="geometry" />
        </mxCell>
        <mxCell id="GnZqrN5t43sFXC09FRVO-42" value="2" style="rounded=0;whiteSpace=wrap;html=1;fontFamily=Songti TC;fillColor=#f8cecc;strokeColor=#b85450;fontColor=none;noLabel=1;" vertex="1" parent="1">
          <mxGeometry x="150" y="1567" width="20" height="20" as="geometry" />
        </mxCell>
        <mxCell id="GnZqrN5t43sFXC09FRVO-43" value="1" style="rounded=0;whiteSpace=wrap;html=1;fontFamily=Songti TC;fontColor=none;noLabel=1;" vertex="1" parent="1">
          <mxGeometry x="130" y="1587" width="20" height="20" as="geometry" />
        </mxCell>
        <mxCell id="GnZqrN5t43sFXC09FRVO-44" value="2" style="rounded=0;whiteSpace=wrap;html=1;fontFamily=Songti TC;fillColor=#f8cecc;strokeColor=#b85450;fontColor=none;noLabel=1;" vertex="1" parent="1">
          <mxGeometry x="150" y="1587" width="20" height="20" as="geometry" />
        </mxCell>
        <mxCell id="GnZqrN5t43sFXC09FRVO-45" value="3" style="rounded=0;whiteSpace=wrap;html=1;fontFamily=Songti TC;fillColor=#f8cecc;strokeColor=#b85450;fontColor=none;noLabel=1;" vertex="1" parent="1">
          <mxGeometry x="170" y="1567" width="20" height="20" as="geometry" />
        </mxCell>
        <mxCell id="GnZqrN5t43sFXC09FRVO-46" value="4" style="rounded=0;whiteSpace=wrap;html=1;fontFamily=Songti TC;fillColor=#f8cecc;strokeColor=#b85450;fontColor=none;noLabel=1;" vertex="1" parent="1">
          <mxGeometry x="190" y="1567" width="20" height="20" as="geometry" />
        </mxCell>
        <mxCell id="GnZqrN5t43sFXC09FRVO-47" value="3" style="rounded=0;whiteSpace=wrap;html=1;fontFamily=Songti TC;fillColor=#f8cecc;strokeColor=#b85450;fontColor=none;noLabel=1;" vertex="1" parent="1">
          <mxGeometry x="170" y="1587" width="20" height="20" as="geometry" />
        </mxCell>
        <mxCell id="GnZqrN5t43sFXC09FRVO-48" value="4" style="rounded=0;whiteSpace=wrap;html=1;fontFamily=Songti TC;fillColor=#f8cecc;strokeColor=#b85450;fontColor=none;noLabel=1;" vertex="1" parent="1">
          <mxGeometry x="190" y="1587" width="20" height="20" as="geometry" />
        </mxCell>
        <mxCell id="GnZqrN5t43sFXC09FRVO-49" value="1" style="rounded=0;whiteSpace=wrap;html=1;fontFamily=Songti TC;fontColor=none;noLabel=1;" vertex="1" parent="1">
          <mxGeometry x="430" y="1527" width="20" height="20" as="geometry" />
        </mxCell>
        <mxCell id="GnZqrN5t43sFXC09FRVO-50" value="2" style="rounded=0;whiteSpace=wrap;html=1;fontFamily=Songti TC;fontColor=none;noLabel=1;" vertex="1" parent="1">
          <mxGeometry x="450" y="1527" width="20" height="20" as="geometry" />
        </mxCell>
        <mxCell id="GnZqrN5t43sFXC09FRVO-51" value="1" style="rounded=0;whiteSpace=wrap;html=1;fontFamily=Songti TC;fontColor=none;noLabel=1;" vertex="1" parent="1">
          <mxGeometry x="430" y="1547" width="20" height="20" as="geometry" />
        </mxCell>
        <mxCell id="GnZqrN5t43sFXC09FRVO-52" value="2" style="rounded=0;whiteSpace=wrap;html=1;fontFamily=Songti TC;fontColor=none;noLabel=1;" vertex="1" parent="1">
          <mxGeometry x="450" y="1547" width="20" height="20" as="geometry" />
        </mxCell>
        <mxCell id="GnZqrN5t43sFXC09FRVO-53" value="3" style="rounded=0;whiteSpace=wrap;html=1;fontFamily=Songti TC;fontColor=none;noLabel=1;" vertex="1" parent="1">
          <mxGeometry x="470" y="1527" width="20" height="20" as="geometry" />
        </mxCell>
        <mxCell id="GnZqrN5t43sFXC09FRVO-54" value="4" style="rounded=0;whiteSpace=wrap;html=1;fontFamily=Songti TC;fontColor=none;noLabel=1;" vertex="1" parent="1">
          <mxGeometry x="490" y="1527" width="20" height="20" as="geometry" />
        </mxCell>
        <mxCell id="GnZqrN5t43sFXC09FRVO-55" value="3" style="rounded=0;whiteSpace=wrap;html=1;fontFamily=Songti TC;fontColor=none;noLabel=1;" vertex="1" parent="1">
          <mxGeometry x="470" y="1547" width="20" height="20" as="geometry" />
        </mxCell>
        <mxCell id="GnZqrN5t43sFXC09FRVO-56" value="4" style="rounded=0;whiteSpace=wrap;html=1;fontFamily=Songti TC;fontColor=none;noLabel=1;" vertex="1" parent="1">
          <mxGeometry x="490" y="1547" width="20" height="20" as="geometry" />
        </mxCell>
        <mxCell id="GnZqrN5t43sFXC09FRVO-57" value="1" style="rounded=0;whiteSpace=wrap;html=1;fontFamily=Songti TC;fontColor=none;noLabel=1;" vertex="1" parent="1">
          <mxGeometry x="430" y="1567" width="20" height="20" as="geometry" />
        </mxCell>
        <mxCell id="GnZqrN5t43sFXC09FRVO-58" value="2" style="rounded=0;whiteSpace=wrap;html=1;fontFamily=Songti TC;fontColor=none;noLabel=1;" vertex="1" parent="1">
          <mxGeometry x="450" y="1567" width="20" height="20" as="geometry" />
        </mxCell>
        <mxCell id="GnZqrN5t43sFXC09FRVO-59" value="1" style="rounded=0;whiteSpace=wrap;html=1;fontFamily=Songti TC;fontColor=none;noLabel=1;" vertex="1" parent="1">
          <mxGeometry x="430" y="1587" width="20" height="20" as="geometry" />
        </mxCell>
        <mxCell id="GnZqrN5t43sFXC09FRVO-60" value="2" style="rounded=0;whiteSpace=wrap;html=1;fontFamily=Songti TC;fontColor=none;noLabel=1;" vertex="1" parent="1">
          <mxGeometry x="450" y="1587" width="20" height="20" as="geometry" />
        </mxCell>
        <mxCell id="GnZqrN5t43sFXC09FRVO-61" value="3" style="rounded=0;whiteSpace=wrap;html=1;fontFamily=Songti TC;fontColor=none;noLabel=1;" vertex="1" parent="1">
          <mxGeometry x="470" y="1567" width="20" height="20" as="geometry" />
        </mxCell>
        <mxCell id="GnZqrN5t43sFXC09FRVO-62" value="4" style="rounded=0;whiteSpace=wrap;html=1;fontFamily=Songti TC;fontColor=none;noLabel=1;" vertex="1" parent="1">
          <mxGeometry x="490" y="1567" width="20" height="20" as="geometry" />
        </mxCell>
        <mxCell id="GnZqrN5t43sFXC09FRVO-63" value="3" style="rounded=0;whiteSpace=wrap;html=1;fontFamily=Songti TC;fontColor=none;noLabel=1;" vertex="1" parent="1">
          <mxGeometry x="470" y="1587" width="20" height="20" as="geometry" />
        </mxCell>
        <mxCell id="GnZqrN5t43sFXC09FRVO-64" value="4" style="rounded=0;whiteSpace=wrap;html=1;fontFamily=Songti TC;fillColor=#d5e8d4;strokeColor=#82b366;fontColor=none;noLabel=1;" vertex="1" parent="1">
          <mxGeometry x="490" y="1587" width="20" height="20" as="geometry" />
        </mxCell>
        <mxCell id="GnZqrN5t43sFXC09FRVO-65" value="&lt;font face=&quot;Songti TC&quot;&gt;S[1][1]&lt;/font&gt;" style="text;html=1;align=center;verticalAlign=middle;resizable=0;points=[];autosize=1;fontColor=none;noLabel=1;" vertex="1" parent="1">
          <mxGeometry x="444" y="1607" width="48" height="26" as="geometry" />
        </mxCell>
        <mxCell id="GnZqrN5t43sFXC09FRVO-66" value="&lt;font face=&quot;Songti TC&quot;&gt;S[3][3]&lt;/font&gt;" style="text;html=1;align=center;verticalAlign=middle;resizable=0;points=[];autosize=1;fontColor=none;noLabel=1;" vertex="1" parent="1">
          <mxGeometry x="146" y="1607" width="48" height="26" as="geometry" />
        </mxCell>
        <mxCell id="GnZqrN5t43sFXC09FRVO-67" value="&lt;font face=&quot;Songti TC&quot;&gt;S[3][1]&lt;/font&gt;" style="text;html=1;align=center;verticalAlign=middle;resizable=0;points=[];autosize=1;fontColor=none;noLabel=1;" vertex="1" parent="1">
          <mxGeometry x="246" y="1607" width="48" height="26" as="geometry" />
        </mxCell>
        <mxCell id="GnZqrN5t43sFXC09FRVO-68" value="&lt;font face=&quot;Songti TC&quot;&gt;S[1][3]&lt;/font&gt;" style="text;html=1;align=center;verticalAlign=middle;resizable=0;points=[];autosize=1;fontColor=none;noLabel=1;" vertex="1" parent="1">
          <mxGeometry x="346" y="1607" width="48" height="26" as="geometry" />
        </mxCell>
        <mxCell id="GnZqrN5t43sFXC09FRVO-69" value="&lt;font face=&quot;Songti TC&quot;&gt;a[1][1]~a[3][3]&lt;br&gt;都加上常数 c&lt;br&gt;&lt;/font&gt;" style="text;html=1;align=center;verticalAlign=middle;resizable=0;points=[];autosize=1;fontColor=none;noLabel=1;" vertex="1" parent="1">
          <mxGeometry x="27" y="1607" width="87" height="41" as="geometry" />
        </mxCell>
        <mxCell id="GnZqrN5t43sFXC09FRVO-70" value="1" style="rounded=0;whiteSpace=wrap;html=1;fontFamily=Songti TC;fontColor=none;noLabel=1;" vertex="1" parent="1">
          <mxGeometry x="30" y="1527" width="20" height="20" as="geometry" />
        </mxCell>
        <mxCell id="GnZqrN5t43sFXC09FRVO-71" value="2" style="rounded=0;whiteSpace=wrap;html=1;fontFamily=Songti TC;fontColor=none;noLabel=1;" vertex="1" parent="1">
          <mxGeometry x="50" y="1527" width="20" height="20" as="geometry" />
        </mxCell>
        <mxCell id="GnZqrN5t43sFXC09FRVO-72" value="1" style="rounded=0;whiteSpace=wrap;html=1;fontFamily=Songti TC;fontColor=none;noLabel=1;" vertex="1" parent="1">
          <mxGeometry x="30" y="1547" width="20" height="20" as="geometry" />
        </mxCell>
        <mxCell id="GnZqrN5t43sFXC09FRVO-73" value="2" style="rounded=0;whiteSpace=wrap;html=1;fontFamily=Songti TC;fillColor=#dae8fc;strokeColor=#6c8ebf;fontColor=none;noLabel=1;" vertex="1" parent="1">
          <mxGeometry x="50" y="1547" width="20" height="20" as="geometry" />
        </mxCell>
        <mxCell id="GnZqrN5t43sFXC09FRVO-74" value="3" style="rounded=0;whiteSpace=wrap;html=1;fontFamily=Songti TC;fontColor=none;noLabel=1;" vertex="1" parent="1">
          <mxGeometry x="70" y="1527" width="20" height="20" as="geometry" />
        </mxCell>
        <mxCell id="GnZqrN5t43sFXC09FRVO-75" value="4" style="rounded=0;whiteSpace=wrap;html=1;fontFamily=Songti TC;fontColor=none;noLabel=1;" vertex="1" parent="1">
          <mxGeometry x="90" y="1527" width="20" height="20" as="geometry" />
        </mxCell>
        <mxCell id="GnZqrN5t43sFXC09FRVO-76" value="3" style="rounded=0;whiteSpace=wrap;html=1;fontFamily=Songti TC;fillColor=#dae8fc;strokeColor=#6c8ebf;fontColor=none;noLabel=1;" vertex="1" parent="1">
          <mxGeometry x="70" y="1547" width="20" height="20" as="geometry" />
        </mxCell>
        <mxCell id="GnZqrN5t43sFXC09FRVO-77" value="4" style="rounded=0;whiteSpace=wrap;html=1;fontFamily=Songti TC;fontColor=none;noLabel=1;" vertex="1" parent="1">
          <mxGeometry x="90" y="1547" width="20" height="20" as="geometry" />
        </mxCell>
        <mxCell id="GnZqrN5t43sFXC09FRVO-78" value="1" style="rounded=0;whiteSpace=wrap;html=1;fontFamily=Songti TC;fontColor=none;noLabel=1;" vertex="1" parent="1">
          <mxGeometry x="30" y="1567" width="20" height="20" as="geometry" />
        </mxCell>
        <mxCell id="GnZqrN5t43sFXC09FRVO-79" value="2" style="rounded=0;whiteSpace=wrap;html=1;fontFamily=Songti TC;fillColor=#dae8fc;strokeColor=#6c8ebf;fontColor=none;noLabel=1;" vertex="1" parent="1">
          <mxGeometry x="50" y="1567" width="20" height="20" as="geometry" />
        </mxCell>
        <mxCell id="GnZqrN5t43sFXC09FRVO-80" value="1" style="rounded=0;whiteSpace=wrap;html=1;fontFamily=Songti TC;fontColor=none;noLabel=1;" vertex="1" parent="1">
          <mxGeometry x="30" y="1587" width="20" height="20" as="geometry" />
        </mxCell>
        <mxCell id="GnZqrN5t43sFXC09FRVO-81" value="2" style="rounded=0;whiteSpace=wrap;html=1;fontFamily=Songti TC;fontColor=none;noLabel=1;" vertex="1" parent="1">
          <mxGeometry x="50" y="1587" width="20" height="20" as="geometry" />
        </mxCell>
        <mxCell id="GnZqrN5t43sFXC09FRVO-82" value="3" style="rounded=0;whiteSpace=wrap;html=1;fontFamily=Songti TC;fillColor=#dae8fc;strokeColor=#6c8ebf;fontColor=none;noLabel=1;" vertex="1" parent="1">
          <mxGeometry x="70" y="1567" width="20" height="20" as="geometry" />
        </mxCell>
        <mxCell id="GnZqrN5t43sFXC09FRVO-83" value="4" style="rounded=0;whiteSpace=wrap;html=1;fontFamily=Songti TC;fontColor=none;noLabel=1;" vertex="1" parent="1">
          <mxGeometry x="90" y="1567" width="20" height="20" as="geometry" />
        </mxCell>
        <mxCell id="GnZqrN5t43sFXC09FRVO-84" value="3" style="rounded=0;whiteSpace=wrap;html=1;fontFamily=Songti TC;fontColor=none;noLabel=1;" vertex="1" parent="1">
          <mxGeometry x="70" y="1587" width="20" height="20" as="geometry" />
        </mxCell>
        <mxCell id="GnZqrN5t43sFXC09FRVO-85" value="4" style="rounded=0;whiteSpace=wrap;html=1;fontFamily=Songti TC;fontColor=none;noLabel=1;" vertex="1" parent="1">
          <mxGeometry x="90" y="1587" width="20" height="20" as="geometry" />
        </mxCell>
        <mxCell id="GnZqrN5t43sFXC09FRVO-90" value="&lt;font face=&quot;Courier New&quot;&gt;3,3&lt;/font&gt;" style="rounded=0;whiteSpace=wrap;html=1;fontFamily=Songti TC;fillColor=#000000;opacity=50;fontColor=default;" vertex="1" parent="1">
          <mxGeometry x="77" y="1579" width="23" height="14" as="geometry" />
        </mxCell>
        <mxCell id="GnZqrN5t43sFXC09FRVO-91" value="&lt;font face=&quot;Courier New&quot;&gt;1,1&lt;/font&gt;" style="rounded=0;whiteSpace=wrap;html=1;fontFamily=Songti TC;fillColor=#000000;opacity=50;fontColor=default;" vertex="1" parent="1">
          <mxGeometry x="39" y="1541" width="23" height="14" as="geometry" />
        </mxCell>
        <mxCell id="GnZqrN5t43sFXC09FRVO-92" value="&lt;font face=&quot;Courier New&quot;&gt;1,1&lt;/font&gt;" style="rounded=0;whiteSpace=wrap;html=1;fontFamily=Songti TC;fillColor=#000000;opacity=50;fontColor=default;" vertex="1" parent="1">
          <mxGeometry x="139" y="1541" width="23" height="14" as="geometry" />
        </mxCell>
        <mxCell id="GnZqrN5t43sFXC09FRVO-93" value="&lt;font face=&quot;Courier New&quot;&gt;1,4&lt;/font&gt;" style="rounded=0;whiteSpace=wrap;html=1;fontFamily=Songti TC;fillColor=#000000;opacity=50;fontColor=default;" vertex="1" parent="1">
          <mxGeometry x="240" y="1579" width="23" height="14" as="geometry" />
        </mxCell>
        <mxCell id="GnZqrN5t43sFXC09FRVO-94" value="&lt;font face=&quot;Courier New&quot;&gt;4,1&lt;/font&gt;" style="rounded=0;whiteSpace=wrap;html=1;fontFamily=Songti TC;fillColor=#000000;opacity=50;fontColor=default;" vertex="1" parent="1">
          <mxGeometry x="380" y="1521" width="23" height="14" as="geometry" />
        </mxCell>
        <mxCell id="GnZqrN5t43sFXC09FRVO-95" value="&lt;font face=&quot;Courier New&quot;&gt;4,4&lt;/font&gt;" style="rounded=0;whiteSpace=wrap;html=1;fontFamily=Songti TC;fillColor=#000000;opacity=50;fontColor=default;" vertex="1" parent="1">
          <mxGeometry x="478.5" y="1579" width="23" height="14" as="geometry" />
        </mxCell>
        <mxCell id="GnZqrN5t43sFXC09FRVO-96" value="=" style="text;html=1;strokeColor=none;fillColor=none;align=center;verticalAlign=middle;whiteSpace=wrap;rounded=0;" vertex="1" parent="1">
          <mxGeometry x="92" y="1552" width="60" height="30" as="geometry" />
        </mxCell>
        <mxCell id="GnZqrN5t43sFXC09FRVO-98" value="&lt;font face=&quot;Songti TC&quot;&gt;-c&lt;/font&gt;" style="text;html=1;strokeColor=none;fillColor=none;align=center;verticalAlign=middle;whiteSpace=wrap;rounded=0;" vertex="1" parent="1">
          <mxGeometry x="240" y="1501" width="60" height="30" as="geometry" />
        </mxCell>
        <mxCell id="GnZqrN5t43sFXC09FRVO-106" value="&lt;font face=&quot;Songti TC&quot;&gt;S[4][4]&lt;/font&gt;" style="text;html=1;align=center;verticalAlign=middle;resizable=0;points=[];autosize=1;" vertex="1" parent="1">
          <mxGeometry x="441" y="1603" width="48" height="26" as="geometry" />
        </mxCell>
        <mxCell id="GnZqrN5t43sFXC09FRVO-107" value="&lt;font face=&quot;Songti TC&quot;&gt;S[1][1]&lt;/font&gt;" style="text;html=1;align=center;verticalAlign=middle;resizable=0;points=[];autosize=1;" vertex="1" parent="1">
          <mxGeometry x="143" y="1603" width="48" height="26" as="geometry" />
        </mxCell>
        <mxCell id="GnZqrN5t43sFXC09FRVO-108" value="&lt;font face=&quot;Songti TC&quot;&gt;S[1][4]&lt;/font&gt;" style="text;html=1;align=center;verticalAlign=middle;resizable=0;points=[];autosize=1;" vertex="1" parent="1">
          <mxGeometry x="243" y="1603" width="48" height="26" as="geometry" />
        </mxCell>
        <mxCell id="GnZqrN5t43sFXC09FRVO-109" value="&lt;font face=&quot;Songti TC&quot;&gt;S[4][1]&lt;/font&gt;" style="text;html=1;align=center;verticalAlign=middle;resizable=0;points=[];autosize=1;" vertex="1" parent="1">
          <mxGeometry x="343" y="1603" width="48" height="26" as="geometry" />
        </mxCell>
        <mxCell id="GnZqrN5t43sFXC09FRVO-110" value="&lt;font face=&quot;Songti TC&quot;&gt;a[1][1]~a[3][3]&lt;br&gt;都加上常数 c&lt;br&gt;&lt;/font&gt;" style="text;html=1;align=center;verticalAlign=middle;resizable=0;points=[];autosize=1;" vertex="1" parent="1">
          <mxGeometry x="24" y="1601" width="87" height="41" as="geometry" />
        </mxCell>
        <mxCell id="GnZqrN5t43sFXC09FRVO-111" value="&lt;font face=&quot;Songti TC&quot;&gt;+c&lt;/font&gt;" style="text;html=1;strokeColor=none;fillColor=none;align=center;verticalAlign=middle;whiteSpace=wrap;rounded=0;" vertex="1" parent="1">
          <mxGeometry x="140" y="1501" width="60" height="30" as="geometry" />
        </mxCell>
        <mxCell id="GnZqrN5t43sFXC09FRVO-112" value="&lt;font face=&quot;Songti TC&quot;&gt;+c&lt;/font&gt;" style="text;html=1;strokeColor=none;fillColor=none;align=center;verticalAlign=middle;whiteSpace=wrap;rounded=0;" vertex="1" parent="1">
          <mxGeometry x="39" y="1501" width="60" height="30" as="geometry" />
        </mxCell>
        <mxCell id="GnZqrN5t43sFXC09FRVO-113" value="&lt;font face=&quot;Songti TC&quot;&gt;-c&lt;/font&gt;" style="text;html=1;strokeColor=none;fillColor=none;align=center;verticalAlign=middle;whiteSpace=wrap;rounded=0;" vertex="1" parent="1">
          <mxGeometry x="340" y="1501" width="60" height="30" as="geometry" />
        </mxCell>
        <mxCell id="GnZqrN5t43sFXC09FRVO-114" value="&lt;font face=&quot;Songti TC&quot;&gt;+c&lt;/font&gt;" style="text;html=1;strokeColor=none;fillColor=none;align=center;verticalAlign=middle;whiteSpace=wrap;rounded=0;" vertex="1" parent="1">
          <mxGeometry x="442" y="1501" width="60" height="30" as="geometry" />
        </mxCell>
        <mxCell id="GnZqrN5t43sFXC09FRVO-115" value="" style="rounded=0;whiteSpace=wrap;html=1;fontFamily=Songti TC;" vertex="1" parent="1">
          <mxGeometry x="597" y="1249" width="20" height="20" as="geometry" />
        </mxCell>
        <mxCell id="GnZqrN5t43sFXC09FRVO-116" value="" style="rounded=0;whiteSpace=wrap;html=1;fontFamily=Songti TC;" vertex="1" parent="1">
          <mxGeometry x="617" y="1249" width="20" height="20" as="geometry" />
        </mxCell>
        <mxCell id="GnZqrN5t43sFXC09FRVO-117" value="a" style="rounded=0;whiteSpace=wrap;html=1;fontFamily=Songti TC;" vertex="1" parent="1">
          <mxGeometry x="637" y="1249" width="20" height="20" as="geometry" />
        </mxCell>
        <mxCell id="GnZqrN5t43sFXC09FRVO-118" value="b" style="rounded=0;whiteSpace=wrap;html=1;fontFamily=Songti TC;" vertex="1" parent="1">
          <mxGeometry x="657" y="1249" width="20" height="20" as="geometry" />
        </mxCell>
        <mxCell id="GnZqrN5t43sFXC09FRVO-119" value="c" style="rounded=0;whiteSpace=wrap;html=1;fontFamily=Songti TC;" vertex="1" parent="1">
          <mxGeometry x="677" y="1249" width="20" height="20" as="geometry" />
        </mxCell>
        <mxCell id="GnZqrN5t43sFXC09FRVO-120" value="d" style="rounded=0;whiteSpace=wrap;html=1;fontFamily=Songti TC;" vertex="1" parent="1">
          <mxGeometry x="697" y="1249" width="20" height="20" as="geometry" />
        </mxCell>
        <mxCell id="GnZqrN5t43sFXC09FRVO-121" value="a" style="rounded=0;whiteSpace=wrap;html=1;fontFamily=Songti TC;" vertex="1" parent="1">
          <mxGeometry x="717" y="1249" width="20" height="20" as="geometry" />
        </mxCell>
        <mxCell id="GnZqrN5t43sFXC09FRVO-122" value="" style="rounded=0;whiteSpace=wrap;html=1;fontFamily=Songti TC;" vertex="1" parent="1">
          <mxGeometry x="737" y="1249" width="20" height="20" as="geometry" />
        </mxCell>
        <mxCell id="GnZqrN5t43sFXC09FRVO-123" value="&lt;font color=&quot;#00cc00&quot; face=&quot;Courier New&quot;&gt;j&lt;/font&gt;" style="text;html=1;align=center;verticalAlign=middle;resizable=0;points=[];autosize=1;" vertex="1" parent="1">
          <mxGeometry x="634.5" y="1225" width="25" height="27" as="geometry" />
        </mxCell>
        <mxCell id="GnZqrN5t43sFXC09FRVO-124" value="&lt;font color=&quot;#ff0000&quot; face=&quot;Courier New&quot;&gt;i&lt;/font&gt;" style="text;html=1;align=center;verticalAlign=middle;resizable=0;points=[];autosize=1;" vertex="1" parent="1">
          <mxGeometry x="697" y="1225" width="25" height="27" as="geometry" />
        </mxCell>
        <mxCell id="GnZqrN5t43sFXC09FRVO-125" value="" style="rounded=0;whiteSpace=wrap;html=1;fontFamily=Songti TC;" vertex="1" parent="1">
          <mxGeometry x="830" y="1249" width="20" height="20" as="geometry" />
        </mxCell>
        <mxCell id="GnZqrN5t43sFXC09FRVO-126" value="" style="rounded=0;whiteSpace=wrap;html=1;fontFamily=Songti TC;" vertex="1" parent="1">
          <mxGeometry x="850" y="1249" width="20" height="20" as="geometry" />
        </mxCell>
        <mxCell id="GnZqrN5t43sFXC09FRVO-127" value="a" style="rounded=0;whiteSpace=wrap;html=1;fontFamily=Songti TC;" vertex="1" parent="1">
          <mxGeometry x="870" y="1249" width="20" height="20" as="geometry" />
        </mxCell>
        <mxCell id="GnZqrN5t43sFXC09FRVO-128" value="b" style="rounded=0;whiteSpace=wrap;html=1;fontFamily=Songti TC;" vertex="1" parent="1">
          <mxGeometry x="890" y="1249" width="20" height="20" as="geometry" />
        </mxCell>
        <mxCell id="GnZqrN5t43sFXC09FRVO-129" value="c" style="rounded=0;whiteSpace=wrap;html=1;fontFamily=Songti TC;" vertex="1" parent="1">
          <mxGeometry x="910" y="1249" width="20" height="20" as="geometry" />
        </mxCell>
        <mxCell id="GnZqrN5t43sFXC09FRVO-130" value="d" style="rounded=0;whiteSpace=wrap;html=1;fontFamily=Songti TC;" vertex="1" parent="1">
          <mxGeometry x="930" y="1249" width="20" height="20" as="geometry" />
        </mxCell>
        <mxCell id="GnZqrN5t43sFXC09FRVO-131" value="a" style="rounded=0;whiteSpace=wrap;html=1;fontFamily=Songti TC;" vertex="1" parent="1">
          <mxGeometry x="950" y="1249" width="20" height="20" as="geometry" />
        </mxCell>
        <mxCell id="GnZqrN5t43sFXC09FRVO-132" value="" style="rounded=0;whiteSpace=wrap;html=1;fontFamily=Songti TC;" vertex="1" parent="1">
          <mxGeometry x="970" y="1249" width="20" height="20" as="geometry" />
        </mxCell>
        <mxCell id="GnZqrN5t43sFXC09FRVO-133" value="&lt;font color=&quot;#00cc00&quot; face=&quot;Courier New&quot;&gt;j&lt;/font&gt;" style="text;html=1;align=center;verticalAlign=middle;resizable=0;points=[];autosize=1;" vertex="1" parent="1">
          <mxGeometry x="867.5" y="1225" width="25" height="27" as="geometry" />
        </mxCell>
        <mxCell id="GnZqrN5t43sFXC09FRVO-134" value="&lt;font color=&quot;#ff0000&quot; face=&quot;Courier New&quot;&gt;i&lt;/font&gt;" style="text;html=1;align=center;verticalAlign=middle;resizable=0;points=[];autosize=1;" vertex="1" parent="1">
          <mxGeometry x="947.5" y="1225" width="25" height="27" as="geometry" />
        </mxCell>
        <mxCell id="GnZqrN5t43sFXC09FRVO-135" value="&lt;font face=&quot;Songti TC&quot;&gt;此时[i, j]中无重复&lt;/font&gt;&lt;font face=&quot;Songti TC&quot;&gt;&lt;br&gt;元素&lt;/font&gt;" style="text;html=1;align=left;verticalAlign=top;resizable=0;points=[];autosize=1;" vertex="1" parent="1">
          <mxGeometry x="633" y="1282" width="108" height="41" as="geometry" />
        </mxCell>
        <mxCell id="GnZqrN5t43sFXC09FRVO-136" value="" style="endArrow=classic;html=1;rounded=0;" edge="1" parent="1">
          <mxGeometry width="50" height="50" relative="1" as="geometry">
            <mxPoint x="771" y="1261" as="sourcePoint" />
            <mxPoint x="821" y="1261" as="targetPoint" />
          </mxGeometry>
        </mxCell>
        <mxCell id="GnZqrN5t43sFXC09FRVO-137" value="&lt;font face=&quot;Songti TC&quot;&gt;如果i往后走&lt;/font&gt;" style="text;html=1;align=left;verticalAlign=top;resizable=0;points=[];autosize=1;" vertex="1" parent="1">
          <mxGeometry x="760" y="1287" width="81" height="26" as="geometry" />
        </mxCell>
        <mxCell id="GnZqrN5t43sFXC09FRVO-138" value="&lt;font color=&quot;#0000ff&quot; face=&quot;Songti TC&quot;&gt;情况1&lt;/font&gt;" style="text;html=1;align=left;verticalAlign=top;resizable=0;points=[];autosize=1;" vertex="1" parent="1">
          <mxGeometry x="569" y="1194" width="48" height="26" as="geometry" />
        </mxCell>
        <mxCell id="GnZqrN5t43sFXC09FRVO-139" value="&lt;font face=&quot;Songti TC&quot;&gt;出现重复元素&lt;br&gt;j往后走&lt;br&gt;&lt;/font&gt;" style="text;html=1;align=left;verticalAlign=top;resizable=0;points=[];autosize=1;" vertex="1" parent="1">
          <mxGeometry x="990" y="1284" width="90" height="41" as="geometry" />
        </mxCell>
        <mxCell id="GnZqrN5t43sFXC09FRVO-141" value="" style="endArrow=classic;html=1;rounded=0;" edge="1" parent="1">
          <mxGeometry width="50" height="50" relative="1" as="geometry">
            <mxPoint x="1000" y="1260.62" as="sourcePoint" />
            <mxPoint x="1050" y="1260.62" as="targetPoint" />
          </mxGeometry>
        </mxCell>
        <mxCell id="GnZqrN5t43sFXC09FRVO-142" value="" style="rounded=0;whiteSpace=wrap;html=1;fontFamily=Songti TC;" vertex="1" parent="1">
          <mxGeometry x="1060" y="1249" width="20" height="20" as="geometry" />
        </mxCell>
        <mxCell id="GnZqrN5t43sFXC09FRVO-143" value="" style="rounded=0;whiteSpace=wrap;html=1;fontFamily=Songti TC;" vertex="1" parent="1">
          <mxGeometry x="1080" y="1249" width="20" height="20" as="geometry" />
        </mxCell>
        <mxCell id="GnZqrN5t43sFXC09FRVO-144" value="a" style="rounded=0;whiteSpace=wrap;html=1;fontFamily=Songti TC;" vertex="1" parent="1">
          <mxGeometry x="1100" y="1249" width="20" height="20" as="geometry" />
        </mxCell>
        <mxCell id="GnZqrN5t43sFXC09FRVO-145" value="b" style="rounded=0;whiteSpace=wrap;html=1;fontFamily=Songti TC;" vertex="1" parent="1">
          <mxGeometry x="1120" y="1249" width="20" height="20" as="geometry" />
        </mxCell>
        <mxCell id="GnZqrN5t43sFXC09FRVO-146" value="c" style="rounded=0;whiteSpace=wrap;html=1;fontFamily=Songti TC;" vertex="1" parent="1">
          <mxGeometry x="1140" y="1249" width="20" height="20" as="geometry" />
        </mxCell>
        <mxCell id="GnZqrN5t43sFXC09FRVO-147" value="d" style="rounded=0;whiteSpace=wrap;html=1;fontFamily=Songti TC;" vertex="1" parent="1">
          <mxGeometry x="1160" y="1249" width="20" height="20" as="geometry" />
        </mxCell>
        <mxCell id="GnZqrN5t43sFXC09FRVO-148" value="a" style="rounded=0;whiteSpace=wrap;html=1;fontFamily=Songti TC;" vertex="1" parent="1">
          <mxGeometry x="1180" y="1249" width="20" height="20" as="geometry" />
        </mxCell>
        <mxCell id="GnZqrN5t43sFXC09FRVO-149" value="" style="rounded=0;whiteSpace=wrap;html=1;fontFamily=Songti TC;" vertex="1" parent="1">
          <mxGeometry x="1200" y="1249" width="20" height="20" as="geometry" />
        </mxCell>
        <mxCell id="GnZqrN5t43sFXC09FRVO-150" value="&lt;font color=&quot;#00cc00&quot; face=&quot;Courier New&quot;&gt;j&lt;/font&gt;" style="text;html=1;align=center;verticalAlign=middle;resizable=0;points=[];autosize=1;" vertex="1" parent="1">
          <mxGeometry x="1117.5" y="1225" width="25" height="27" as="geometry" />
        </mxCell>
        <mxCell id="GnZqrN5t43sFXC09FRVO-151" value="&lt;font color=&quot;#ff0000&quot; face=&quot;Courier New&quot;&gt;i&lt;/font&gt;" style="text;html=1;align=center;verticalAlign=middle;resizable=0;points=[];autosize=1;" vertex="1" parent="1">
          <mxGeometry x="1177.5" y="1225" width="25" height="27" as="geometry" />
        </mxCell>
        <mxCell id="GnZqrN5t43sFXC09FRVO-152" value="" style="rounded=0;whiteSpace=wrap;html=1;fontFamily=Songti TC;" vertex="1" parent="1">
          <mxGeometry x="597" y="1373.5" width="20" height="20" as="geometry" />
        </mxCell>
        <mxCell id="GnZqrN5t43sFXC09FRVO-153" value="" style="rounded=0;whiteSpace=wrap;html=1;fontFamily=Songti TC;" vertex="1" parent="1">
          <mxGeometry x="617" y="1373.5" width="20" height="20" as="geometry" />
        </mxCell>
        <mxCell id="GnZqrN5t43sFXC09FRVO-154" value="a" style="rounded=0;whiteSpace=wrap;html=1;fontFamily=Songti TC;" vertex="1" parent="1">
          <mxGeometry x="637" y="1373.5" width="20" height="20" as="geometry" />
        </mxCell>
        <mxCell id="GnZqrN5t43sFXC09FRVO-155" value="b" style="rounded=0;whiteSpace=wrap;html=1;fontFamily=Songti TC;" vertex="1" parent="1">
          <mxGeometry x="657" y="1373.5" width="20" height="20" as="geometry" />
        </mxCell>
        <mxCell id="GnZqrN5t43sFXC09FRVO-156" value="c" style="rounded=0;whiteSpace=wrap;html=1;fontFamily=Songti TC;" vertex="1" parent="1">
          <mxGeometry x="677" y="1373.5" width="20" height="20" as="geometry" />
        </mxCell>
        <mxCell id="GnZqrN5t43sFXC09FRVO-157" value="d" style="rounded=0;whiteSpace=wrap;html=1;fontFamily=Songti TC;" vertex="1" parent="1">
          <mxGeometry x="697" y="1373.5" width="20" height="20" as="geometry" />
        </mxCell>
        <mxCell id="GnZqrN5t43sFXC09FRVO-158" value="e" style="rounded=0;whiteSpace=wrap;html=1;fontFamily=Songti TC;" vertex="1" parent="1">
          <mxGeometry x="717" y="1373.5" width="20" height="20" as="geometry" />
        </mxCell>
        <mxCell id="GnZqrN5t43sFXC09FRVO-159" value="" style="rounded=0;whiteSpace=wrap;html=1;fontFamily=Songti TC;" vertex="1" parent="1">
          <mxGeometry x="737" y="1373.5" width="20" height="20" as="geometry" />
        </mxCell>
        <mxCell id="GnZqrN5t43sFXC09FRVO-160" value="&lt;font color=&quot;#00cc00&quot; face=&quot;Courier New&quot;&gt;j&lt;/font&gt;" style="text;html=1;align=center;verticalAlign=middle;resizable=0;points=[];autosize=1;" vertex="1" parent="1">
          <mxGeometry x="634.5" y="1349.5" width="25" height="27" as="geometry" />
        </mxCell>
        <mxCell id="GnZqrN5t43sFXC09FRVO-161" value="&lt;font color=&quot;#ff0000&quot; face=&quot;Courier New&quot;&gt;i&lt;/font&gt;" style="text;html=1;align=center;verticalAlign=middle;resizable=0;points=[];autosize=1;" vertex="1" parent="1">
          <mxGeometry x="697" y="1349.5" width="25" height="27" as="geometry" />
        </mxCell>
        <mxCell id="GnZqrN5t43sFXC09FRVO-162" value="" style="rounded=0;whiteSpace=wrap;html=1;fontFamily=Songti TC;" vertex="1" parent="1">
          <mxGeometry x="830" y="1373.5" width="20" height="20" as="geometry" />
        </mxCell>
        <mxCell id="GnZqrN5t43sFXC09FRVO-163" value="" style="rounded=0;whiteSpace=wrap;html=1;fontFamily=Songti TC;" vertex="1" parent="1">
          <mxGeometry x="850" y="1373.5" width="20" height="20" as="geometry" />
        </mxCell>
        <mxCell id="GnZqrN5t43sFXC09FRVO-164" value="a" style="rounded=0;whiteSpace=wrap;html=1;fontFamily=Songti TC;" vertex="1" parent="1">
          <mxGeometry x="870" y="1373.5" width="20" height="20" as="geometry" />
        </mxCell>
        <mxCell id="GnZqrN5t43sFXC09FRVO-165" value="b" style="rounded=0;whiteSpace=wrap;html=1;fontFamily=Songti TC;" vertex="1" parent="1">
          <mxGeometry x="890" y="1373.5" width="20" height="20" as="geometry" />
        </mxCell>
        <mxCell id="GnZqrN5t43sFXC09FRVO-166" value="c" style="rounded=0;whiteSpace=wrap;html=1;fontFamily=Songti TC;" vertex="1" parent="1">
          <mxGeometry x="910" y="1373.5" width="20" height="20" as="geometry" />
        </mxCell>
        <mxCell id="GnZqrN5t43sFXC09FRVO-167" value="d" style="rounded=0;whiteSpace=wrap;html=1;fontFamily=Songti TC;" vertex="1" parent="1">
          <mxGeometry x="930" y="1373.5" width="20" height="20" as="geometry" />
        </mxCell>
        <mxCell id="GnZqrN5t43sFXC09FRVO-168" value="e" style="rounded=0;whiteSpace=wrap;html=1;fontFamily=Songti TC;" vertex="1" parent="1">
          <mxGeometry x="950" y="1373.5" width="20" height="20" as="geometry" />
        </mxCell>
        <mxCell id="GnZqrN5t43sFXC09FRVO-169" value="" style="rounded=0;whiteSpace=wrap;html=1;fontFamily=Songti TC;" vertex="1" parent="1">
          <mxGeometry x="970" y="1373.5" width="20" height="20" as="geometry" />
        </mxCell>
        <mxCell id="GnZqrN5t43sFXC09FRVO-170" value="&lt;font color=&quot;#00cc00&quot; face=&quot;Courier New&quot;&gt;j&lt;/font&gt;" style="text;html=1;align=center;verticalAlign=middle;resizable=0;points=[];autosize=1;" vertex="1" parent="1">
          <mxGeometry x="867.5" y="1349.5" width="25" height="27" as="geometry" />
        </mxCell>
        <mxCell id="GnZqrN5t43sFXC09FRVO-171" value="&lt;font color=&quot;#ff0000&quot; face=&quot;Courier New&quot;&gt;i&lt;/font&gt;" style="text;html=1;align=center;verticalAlign=middle;resizable=0;points=[];autosize=1;" vertex="1" parent="1">
          <mxGeometry x="947.5" y="1349.5" width="25" height="27" as="geometry" />
        </mxCell>
        <mxCell id="GnZqrN5t43sFXC09FRVO-172" value="&lt;font face=&quot;Songti TC&quot;&gt;此时[i, j]中无重复&lt;/font&gt;&lt;font face=&quot;Songti TC&quot;&gt;&lt;br&gt;元素&lt;/font&gt;" style="text;html=1;align=left;verticalAlign=top;resizable=0;points=[];autosize=1;" vertex="1" parent="1">
          <mxGeometry x="633" y="1406.5" width="108" height="41" as="geometry" />
        </mxCell>
        <mxCell id="GnZqrN5t43sFXC09FRVO-173" value="" style="endArrow=classic;html=1;rounded=0;" edge="1" parent="1">
          <mxGeometry width="50" height="50" relative="1" as="geometry">
            <mxPoint x="771" y="1385.5" as="sourcePoint" />
            <mxPoint x="821" y="1385.5" as="targetPoint" />
          </mxGeometry>
        </mxCell>
        <mxCell id="GnZqrN5t43sFXC09FRVO-174" value="&lt;font face=&quot;Songti TC&quot;&gt;如果i往后走&lt;/font&gt;" style="text;html=1;align=left;verticalAlign=top;resizable=0;points=[];autosize=1;" vertex="1" parent="1">
          <mxGeometry x="760" y="1411.5" width="81" height="26" as="geometry" />
        </mxCell>
        <mxCell id="GnZqrN5t43sFXC09FRVO-175" value="&lt;font color=&quot;#0000ff&quot; face=&quot;Songti TC&quot;&gt;情况2&lt;/font&gt;" style="text;html=1;align=left;verticalAlign=top;resizable=0;points=[];autosize=1;" vertex="1" parent="1">
          <mxGeometry x="569" y="1318.5" width="48" height="26" as="geometry" />
        </mxCell>
        <mxCell id="GnZqrN5t43sFXC09FRVO-176" value="&lt;font face=&quot;Songti TC&quot;&gt;未出现重复元素&lt;br&gt;j不动&lt;br&gt;&lt;/font&gt;" style="text;html=1;align=left;verticalAlign=top;resizable=0;points=[];autosize=1;" vertex="1" parent="1">
          <mxGeometry x="990" y="1408.5" width="102" height="41" as="geometry" />
        </mxCell>
        <mxCell id="GnZqrN5t43sFXC09FRVO-177" value="" style="endArrow=classic;html=1;rounded=0;" edge="1" parent="1">
          <mxGeometry width="50" height="50" relative="1" as="geometry">
            <mxPoint x="1000" y="1385.12" as="sourcePoint" />
            <mxPoint x="1050" y="1385.12" as="targetPoint" />
          </mxGeometry>
        </mxCell>
        <mxCell id="GnZqrN5t43sFXC09FRVO-178" value="" style="rounded=0;whiteSpace=wrap;html=1;fontFamily=Songti TC;" vertex="1" parent="1">
          <mxGeometry x="1060" y="1373.5" width="20" height="20" as="geometry" />
        </mxCell>
        <mxCell id="GnZqrN5t43sFXC09FRVO-179" value="" style="rounded=0;whiteSpace=wrap;html=1;fontFamily=Songti TC;" vertex="1" parent="1">
          <mxGeometry x="1080" y="1373.5" width="20" height="20" as="geometry" />
        </mxCell>
        <mxCell id="GnZqrN5t43sFXC09FRVO-180" value="a" style="rounded=0;whiteSpace=wrap;html=1;fontFamily=Songti TC;" vertex="1" parent="1">
          <mxGeometry x="1100" y="1373.5" width="20" height="20" as="geometry" />
        </mxCell>
        <mxCell id="GnZqrN5t43sFXC09FRVO-181" value="b" style="rounded=0;whiteSpace=wrap;html=1;fontFamily=Songti TC;" vertex="1" parent="1">
          <mxGeometry x="1120" y="1373.5" width="20" height="20" as="geometry" />
        </mxCell>
        <mxCell id="GnZqrN5t43sFXC09FRVO-182" value="c" style="rounded=0;whiteSpace=wrap;html=1;fontFamily=Songti TC;" vertex="1" parent="1">
          <mxGeometry x="1140" y="1373.5" width="20" height="20" as="geometry" />
        </mxCell>
        <mxCell id="GnZqrN5t43sFXC09FRVO-183" value="d" style="rounded=0;whiteSpace=wrap;html=1;fontFamily=Songti TC;" vertex="1" parent="1">
          <mxGeometry x="1160" y="1373.5" width="20" height="20" as="geometry" />
        </mxCell>
        <mxCell id="GnZqrN5t43sFXC09FRVO-184" value="e" style="rounded=0;whiteSpace=wrap;html=1;fontFamily=Songti TC;" vertex="1" parent="1">
          <mxGeometry x="1180" y="1373.5" width="20" height="20" as="geometry" />
        </mxCell>
        <mxCell id="GnZqrN5t43sFXC09FRVO-185" value="" style="rounded=0;whiteSpace=wrap;html=1;fontFamily=Songti TC;" vertex="1" parent="1">
          <mxGeometry x="1200" y="1373.5" width="20" height="20" as="geometry" />
        </mxCell>
        <mxCell id="GnZqrN5t43sFXC09FRVO-186" value="&lt;font color=&quot;#00cc00&quot; face=&quot;Courier New&quot;&gt;j&lt;/font&gt;" style="text;html=1;align=center;verticalAlign=middle;resizable=0;points=[];autosize=1;" vertex="1" parent="1">
          <mxGeometry x="1117.5" y="1349.5" width="25" height="27" as="geometry" />
        </mxCell>
        <mxCell id="GnZqrN5t43sFXC09FRVO-187" value="&lt;font color=&quot;#ff0000&quot; face=&quot;Courier New&quot;&gt;i&lt;/font&gt;" style="text;html=1;align=center;verticalAlign=middle;resizable=0;points=[];autosize=1;" vertex="1" parent="1">
          <mxGeometry x="1177.5" y="1349.5" width="25" height="27" as="geometry" />
        </mxCell>
        <mxCell id="GnZqrN5t43sFXC09FRVO-188" value="&lt;font color=&quot;#0000ff&quot; face=&quot;Songti TC&quot;&gt;以情况2反证&lt;/font&gt;" style="text;html=1;align=left;verticalAlign=top;resizable=0;points=[];autosize=1;" vertex="1" parent="1">
          <mxGeometry x="569" y="1453" width="84" height="26" as="geometry" />
        </mxCell>
        <mxCell id="GnZqrN5t43sFXC09FRVO-218" value="" style="rounded=0;whiteSpace=wrap;html=1;fontFamily=Songti TC;" vertex="1" parent="1">
          <mxGeometry x="598.5" y="1531" width="20" height="20" as="geometry" />
        </mxCell>
        <mxCell id="GnZqrN5t43sFXC09FRVO-219" value="" style="rounded=0;whiteSpace=wrap;html=1;fontFamily=Songti TC;" vertex="1" parent="1">
          <mxGeometry x="618.5" y="1531" width="20" height="20" as="geometry" />
        </mxCell>
        <mxCell id="GnZqrN5t43sFXC09FRVO-220" value="a" style="rounded=0;whiteSpace=wrap;html=1;fontFamily=Songti TC;" vertex="1" parent="1">
          <mxGeometry x="638.5" y="1531" width="20" height="20" as="geometry" />
        </mxCell>
        <mxCell id="GnZqrN5t43sFXC09FRVO-221" value="b" style="rounded=0;whiteSpace=wrap;html=1;fontFamily=Songti TC;" vertex="1" parent="1">
          <mxGeometry x="658.5" y="1531" width="20" height="20" as="geometry" />
        </mxCell>
        <mxCell id="GnZqrN5t43sFXC09FRVO-222" value="c" style="rounded=0;whiteSpace=wrap;html=1;fontFamily=Songti TC;" vertex="1" parent="1">
          <mxGeometry x="678.5" y="1531" width="20" height="20" as="geometry" />
        </mxCell>
        <mxCell id="GnZqrN5t43sFXC09FRVO-223" value="d" style="rounded=0;whiteSpace=wrap;html=1;fontFamily=Songti TC;" vertex="1" parent="1">
          <mxGeometry x="698.5" y="1531" width="20" height="20" as="geometry" />
        </mxCell>
        <mxCell id="GnZqrN5t43sFXC09FRVO-224" value="e" style="rounded=0;whiteSpace=wrap;html=1;fontFamily=Songti TC;" vertex="1" parent="1">
          <mxGeometry x="718.5" y="1531" width="20" height="20" as="geometry" />
        </mxCell>
        <mxCell id="GnZqrN5t43sFXC09FRVO-225" value="" style="rounded=0;whiteSpace=wrap;html=1;fontFamily=Songti TC;" vertex="1" parent="1">
          <mxGeometry x="738.5" y="1531" width="20" height="20" as="geometry" />
        </mxCell>
        <mxCell id="GnZqrN5t43sFXC09FRVO-226" value="&lt;font color=&quot;#00cc00&quot; face=&quot;Courier New&quot;&gt;j&lt;/font&gt;" style="text;html=1;align=center;verticalAlign=middle;resizable=0;points=[];autosize=1;" vertex="1" parent="1">
          <mxGeometry x="636" y="1507" width="25" height="27" as="geometry" />
        </mxCell>
        <mxCell id="GnZqrN5t43sFXC09FRVO-227" value="&lt;font color=&quot;#ff0000&quot; face=&quot;Courier New&quot;&gt;i&lt;/font&gt;" style="text;html=1;align=center;verticalAlign=middle;resizable=0;points=[];autosize=1;" vertex="1" parent="1">
          <mxGeometry x="698.5" y="1507" width="25" height="27" as="geometry" />
        </mxCell>
        <mxCell id="GnZqrN5t43sFXC09FRVO-228" value="" style="rounded=0;whiteSpace=wrap;html=1;fontFamily=Songti TC;" vertex="1" parent="1">
          <mxGeometry x="831.5" y="1531" width="20" height="20" as="geometry" />
        </mxCell>
        <mxCell id="GnZqrN5t43sFXC09FRVO-229" value="" style="rounded=0;whiteSpace=wrap;html=1;fontFamily=Songti TC;" vertex="1" parent="1">
          <mxGeometry x="851.5" y="1531" width="20" height="20" as="geometry" />
        </mxCell>
        <mxCell id="GnZqrN5t43sFXC09FRVO-230" value="a" style="rounded=0;whiteSpace=wrap;html=1;fontFamily=Songti TC;" vertex="1" parent="1">
          <mxGeometry x="871.5" y="1531" width="20" height="20" as="geometry" />
        </mxCell>
        <mxCell id="GnZqrN5t43sFXC09FRVO-231" value="b" style="rounded=0;whiteSpace=wrap;html=1;fontFamily=Songti TC;" vertex="1" parent="1">
          <mxGeometry x="891.5" y="1531" width="20" height="20" as="geometry" />
        </mxCell>
        <mxCell id="GnZqrN5t43sFXC09FRVO-232" value="c" style="rounded=0;whiteSpace=wrap;html=1;fontFamily=Songti TC;" vertex="1" parent="1">
          <mxGeometry x="911.5" y="1531" width="20" height="20" as="geometry" />
        </mxCell>
        <mxCell id="GnZqrN5t43sFXC09FRVO-233" value="d" style="rounded=0;whiteSpace=wrap;html=1;fontFamily=Songti TC;" vertex="1" parent="1">
          <mxGeometry x="931.5" y="1531" width="20" height="20" as="geometry" />
        </mxCell>
        <mxCell id="GnZqrN5t43sFXC09FRVO-234" value="e" style="rounded=0;whiteSpace=wrap;html=1;fontFamily=Songti TC;" vertex="1" parent="1">
          <mxGeometry x="951.5" y="1531" width="20" height="20" as="geometry" />
        </mxCell>
        <mxCell id="GnZqrN5t43sFXC09FRVO-235" value="" style="rounded=0;whiteSpace=wrap;html=1;fontFamily=Songti TC;" vertex="1" parent="1">
          <mxGeometry x="971.5" y="1531" width="20" height="20" as="geometry" />
        </mxCell>
        <mxCell id="GnZqrN5t43sFXC09FRVO-236" value="&lt;font color=&quot;#00cc00&quot; face=&quot;Courier New&quot;&gt;j&lt;/font&gt;" style="text;html=1;align=center;verticalAlign=middle;resizable=0;points=[];autosize=1;" vertex="1" parent="1">
          <mxGeometry x="869" y="1507" width="25" height="27" as="geometry" />
        </mxCell>
        <mxCell id="GnZqrN5t43sFXC09FRVO-237" value="&lt;font color=&quot;#ff0000&quot; face=&quot;Courier New&quot;&gt;i&lt;/font&gt;" style="text;html=1;align=center;verticalAlign=middle;resizable=0;points=[];autosize=1;" vertex="1" parent="1">
          <mxGeometry x="949" y="1507" width="25" height="27" as="geometry" />
        </mxCell>
        <mxCell id="GnZqrN5t43sFXC09FRVO-238" value="&lt;font face=&quot;Songti TC&quot;&gt;此时[i, j]中无重复&lt;/font&gt;&lt;font face=&quot;Songti TC&quot;&gt;&lt;br&gt;元素&lt;/font&gt;" style="text;html=1;align=left;verticalAlign=top;resizable=0;points=[];autosize=1;" vertex="1" parent="1">
          <mxGeometry x="634.5" y="1564" width="108" height="41" as="geometry" />
        </mxCell>
        <mxCell id="GnZqrN5t43sFXC09FRVO-239" value="" style="endArrow=classic;html=1;rounded=0;" edge="1" parent="1">
          <mxGeometry width="50" height="50" relative="1" as="geometry">
            <mxPoint x="772.5" y="1543" as="sourcePoint" />
            <mxPoint x="822.5" y="1543" as="targetPoint" />
          </mxGeometry>
        </mxCell>
        <mxCell id="GnZqrN5t43sFXC09FRVO-240" value="&lt;font face=&quot;Songti TC&quot;&gt;如果i往后走&lt;/font&gt;" style="text;html=1;align=left;verticalAlign=top;resizable=0;points=[];autosize=1;" vertex="1" parent="1">
          <mxGeometry x="761.5" y="1569" width="81" height="26" as="geometry" />
        </mxCell>
        <mxCell id="GnZqrN5t43sFXC09FRVO-241" value="&lt;font face=&quot;Songti TC&quot;&gt;未出现重复元素&lt;br&gt;j不动&lt;br&gt;&lt;/font&gt;" style="text;html=1;align=left;verticalAlign=top;resizable=0;points=[];autosize=1;" vertex="1" parent="1">
          <mxGeometry x="979" y="1479" width="102" height="41" as="geometry" />
        </mxCell>
        <mxCell id="GnZqrN5t43sFXC09FRVO-242" value="" style="endArrow=classic;html=1;rounded=0;" edge="1" parent="1">
          <mxGeometry width="50" height="50" relative="1" as="geometry">
            <mxPoint x="1001.5" y="1542.62" as="sourcePoint" />
            <mxPoint x="1055" y="1505" as="targetPoint" />
          </mxGeometry>
        </mxCell>
        <mxCell id="GnZqrN5t43sFXC09FRVO-243" value="" style="rounded=0;whiteSpace=wrap;html=1;fontFamily=Songti TC;" vertex="1" parent="1">
          <mxGeometry x="1066" y="1487" width="20" height="20" as="geometry" />
        </mxCell>
        <mxCell id="GnZqrN5t43sFXC09FRVO-244" value="" style="rounded=0;whiteSpace=wrap;html=1;fontFamily=Songti TC;" vertex="1" parent="1">
          <mxGeometry x="1086" y="1487" width="20" height="20" as="geometry" />
        </mxCell>
        <mxCell id="GnZqrN5t43sFXC09FRVO-245" value="a" style="rounded=0;whiteSpace=wrap;html=1;fontFamily=Songti TC;" vertex="1" parent="1">
          <mxGeometry x="1106" y="1487" width="20" height="20" as="geometry" />
        </mxCell>
        <mxCell id="GnZqrN5t43sFXC09FRVO-246" value="b" style="rounded=0;whiteSpace=wrap;html=1;fontFamily=Songti TC;" vertex="1" parent="1">
          <mxGeometry x="1126" y="1487" width="20" height="20" as="geometry" />
        </mxCell>
        <mxCell id="GnZqrN5t43sFXC09FRVO-247" value="c" style="rounded=0;whiteSpace=wrap;html=1;fontFamily=Songti TC;" vertex="1" parent="1">
          <mxGeometry x="1146" y="1487" width="20" height="20" as="geometry" />
        </mxCell>
        <mxCell id="GnZqrN5t43sFXC09FRVO-248" value="d" style="rounded=0;whiteSpace=wrap;html=1;fontFamily=Songti TC;" vertex="1" parent="1">
          <mxGeometry x="1166" y="1487" width="20" height="20" as="geometry" />
        </mxCell>
        <mxCell id="GnZqrN5t43sFXC09FRVO-249" value="e" style="rounded=0;whiteSpace=wrap;html=1;fontFamily=Songti TC;" vertex="1" parent="1">
          <mxGeometry x="1186" y="1487" width="20" height="20" as="geometry" />
        </mxCell>
        <mxCell id="GnZqrN5t43sFXC09FRVO-250" value="" style="rounded=0;whiteSpace=wrap;html=1;fontFamily=Songti TC;" vertex="1" parent="1">
          <mxGeometry x="1206" y="1487" width="20" height="20" as="geometry" />
        </mxCell>
        <mxCell id="GnZqrN5t43sFXC09FRVO-251" value="&lt;font color=&quot;#00cc00&quot; face=&quot;Courier New&quot;&gt;j&lt;/font&gt;" style="text;html=1;align=center;verticalAlign=middle;resizable=0;points=[];autosize=1;" vertex="1" parent="1">
          <mxGeometry x="1103.5" y="1464" width="25" height="27" as="geometry" />
        </mxCell>
        <mxCell id="GnZqrN5t43sFXC09FRVO-252" value="&lt;font color=&quot;#ff0000&quot; face=&quot;Courier New&quot;&gt;i&lt;/font&gt;" style="text;html=1;align=center;verticalAlign=middle;resizable=0;points=[];autosize=1;" vertex="1" parent="1">
          <mxGeometry x="1183.5" y="1463" width="25" height="27" as="geometry" />
        </mxCell>
        <mxCell id="GnZqrN5t43sFXC09FRVO-253" value="" style="endArrow=classic;html=1;rounded=0;dashed=1;dashPattern=1 4;" edge="1" parent="1">
          <mxGeometry width="50" height="50" relative="1" as="geometry">
            <mxPoint x="1003.25" y="1547" as="sourcePoint" />
            <mxPoint x="1056.75" y="1579.38" as="targetPoint" />
          </mxGeometry>
        </mxCell>
        <mxCell id="GnZqrN5t43sFXC09FRVO-254" value="" style="rounded=0;whiteSpace=wrap;html=1;fontFamily=Songti TC;" vertex="1" parent="1">
          <mxGeometry x="1066" y="1573" width="20" height="20" as="geometry" />
        </mxCell>
        <mxCell id="GnZqrN5t43sFXC09FRVO-255" value="" style="rounded=0;whiteSpace=wrap;html=1;fontFamily=Songti TC;" vertex="1" parent="1">
          <mxGeometry x="1086" y="1573" width="20" height="20" as="geometry" />
        </mxCell>
        <mxCell id="GnZqrN5t43sFXC09FRVO-256" value="a" style="rounded=0;whiteSpace=wrap;html=1;fontFamily=Songti TC;" vertex="1" parent="1">
          <mxGeometry x="1106" y="1573" width="20" height="20" as="geometry" />
        </mxCell>
        <mxCell id="GnZqrN5t43sFXC09FRVO-257" value="b" style="rounded=0;whiteSpace=wrap;html=1;fontFamily=Songti TC;" vertex="1" parent="1">
          <mxGeometry x="1126" y="1573" width="20" height="20" as="geometry" />
        </mxCell>
        <mxCell id="GnZqrN5t43sFXC09FRVO-258" value="c" style="rounded=0;whiteSpace=wrap;html=1;fontFamily=Songti TC;" vertex="1" parent="1">
          <mxGeometry x="1146" y="1573" width="20" height="20" as="geometry" />
        </mxCell>
        <mxCell id="GnZqrN5t43sFXC09FRVO-259" value="d" style="rounded=0;whiteSpace=wrap;html=1;fontFamily=Songti TC;" vertex="1" parent="1">
          <mxGeometry x="1166" y="1573" width="20" height="20" as="geometry" />
        </mxCell>
        <mxCell id="GnZqrN5t43sFXC09FRVO-260" value="e" style="rounded=0;whiteSpace=wrap;html=1;fontFamily=Songti TC;" vertex="1" parent="1">
          <mxGeometry x="1186" y="1573" width="20" height="20" as="geometry" />
        </mxCell>
        <mxCell id="GnZqrN5t43sFXC09FRVO-261" value="" style="rounded=0;whiteSpace=wrap;html=1;fontFamily=Songti TC;" vertex="1" parent="1">
          <mxGeometry x="1206" y="1573" width="20" height="20" as="geometry" />
        </mxCell>
        <mxCell id="GnZqrN5t43sFXC09FRVO-262" value="&lt;font color=&quot;#00cc00&quot; face=&quot;Courier New&quot;&gt;j&lt;/font&gt;" style="text;html=1;align=center;verticalAlign=middle;resizable=0;points=[];autosize=1;" vertex="1" parent="1">
          <mxGeometry x="1083.5" y="1551" width="25" height="27" as="geometry" />
        </mxCell>
        <mxCell id="GnZqrN5t43sFXC09FRVO-263" value="&lt;font color=&quot;#ff0000&quot; face=&quot;Courier New&quot;&gt;i&lt;/font&gt;" style="text;html=1;align=center;verticalAlign=middle;resizable=0;points=[];autosize=1;" vertex="1" parent="1">
          <mxGeometry x="1183.5" y="1549" width="25" height="27" as="geometry" />
        </mxCell>
        <mxCell id="GnZqrN5t43sFXC09FRVO-264" value="&lt;font face=&quot;Songti TC&quot;&gt;未出现重复元素&lt;br&gt;j往前走&lt;br&gt;&lt;/font&gt;" style="text;html=1;align=left;verticalAlign=top;resizable=0;points=[];autosize=1;" vertex="1" parent="1">
          <mxGeometry x="972.5" y="1582" width="102" height="41" as="geometry" />
        </mxCell>
      </root>
    </mxGraphModel>
  </diagram>
</mxfile>
